/* XPM */
static char *_dfdd5604d9946b3b43c33f3cc69354eTfcslhFcshFXvu2s[] = {
/* columns rows colors chars-per-pixel */
"64 64 63 1 ",
"  c #070704",
". c #090703",
"X c #0E0905",
"o c #130C06",
"O c #180F07",
"+ c #160F08",
"@ c #180F08",
"# c #1A1007",
"$ c #171009",
"% c #1C120A",
"& c #1F1710",
"* c #1F1811",
"= c #23160B",
"- c #26180D",
"; c #2B1B0E",
": c #301E0F",
"> c #201710",
", c #241A12",
"< c #2D1D11",
"1 c #311F10",
"2 c #2E2115",
"3 c #2B2219",
"4 c #332012",
"5 c #362212",
"6 c #342214",
"7 c #352214",
"8 c #372415",
"9 c #382313",
"0 c #3A2413",
"q c #382314",
"w c #3A2414",
"e c #3C2514",
"r c #3E2715",
"t c #3F2816",
"y c #342519",
"u c #392618",
"i c #34281E",
"p c #3D2818",
"a c #3D291A",
"s c #402715",
"d c #432A17",
"f c #432B18",
"g c #452B18",
"h c #462C18",
"j c #442C1B",
"k c #482E1A",
"l c #4B2F1A",
"z c #4A2F1B",
"x c #4B301B",
"c c #4C301B",
"v c #4D311C",
"b c #4D321D",
"n c #51331C",
"m c #52341D",
"M c #55361E",
"N c #57381F",
"B c #58381F",
"V c #413124",
"C c #4A3422",
"Z c #523620",
"A c #543620",
"S c #583820",
"D c #5A3921",
/* pixels */
";;;--<<41<<<<44444557475q77w554514q4444<<<<<141<<<<<<<;;;;;---=%",
";;;;;<45<<44qw777q77ww51<;;-%%%%%%%==;1555511455111<11<;;;;---==",
";;;;<144559rrrrrwrr5<=#oXX..XooXoooXXXXo%=;590515554411;;;;;-;-=",
";;;;<5455wrtwwtfw1=o..ooO%%%===O=====%%OoXXo=;9r9555551111;;-;-=",
";;;<<555wtr5wdw;O.XOOO=%===;<1<=51111;;-==O@oXo-5r054551111;;;==",
";;<<155wd5rhd1o.oO%===<;<<195w9;trwrr0114;-;=%%XX-504555111;;;==",
";;<<199rwthr%.oO===;;;w555rdwdd;fddgkd7wr5191<-=%Xo;r5991;;;;;==",
";;<<59wrwg4XXO%=;1144<frwrthdhk4xkkcnhrddwwdr01;;%OX=5111:;;;;==",
";;<15wrrh5 o%=;;5rww95hrrdgchxc5mnvmMvfkkrahddr05--%o%1115;;;;-=",
";<1595wd5 o%=;44wgddrwvffdkxkxx4ZMnmMMvkxhfckkgrr<1=%o%151;;;;-=",
";<45w4w5Xo%=;5wwthkfd8vkhfcnkvm5ZSMMSMnnnhhncckgd95:=%O%5;;;;;-=",
";<<55wrOX%%;4wdwthkkdwvkkhxMnvmwASSNSSMnvkhmmckvkdr9==%o=5;;;;;=",
";;454r-.%==15tdwdkvvhwmckhvMnvntSSSSSMMvvchvMvcmchrr;;;@o;5;;;;=",
";<5155oo%;;5wftwkvMmhwAvkkvMcvmrSSSSSMmvmkhmBncmnkrr;1;=O%;;;;;=",
";<1<<=.O=;;wrh88xnMnhfSvvkmMvvmtSSSMSSmxmchmBncmckdr;1<=%o;;;;;=",
";<411%X%;1;wtk1wvmMmhfSvvknBvvvtSSSMMMMcnchmMcccckrr155;=O51;;;=",
";<11q-X%;4<rgk5rnSSMkhSvvkkMvvvtSMMmmMmcvhhMnccckkrr159;=%54;;-=",
";<<19=o=<51dhkrfmSSMkhAkvcmcvxxwSMmvnSmknkkMckkchdrr;59;=%51;;-=",
";1149=o=<51tgffhmSSmdhmkccchkhhwmmckcmkdkdhvkkdhd009;55;-%5<;;;=",
";1<49-o=151tffhkmSSmkhvhhaaaaaa8hhhfhhaaauafaaaawy77<<<<=$51;;;=",
";1<1w-X-455fhhcvMBSmkaCa7777y77727y77y277772222<<<<,,,-%%o11;;-=",
";<<1r-o-514fghmMMMBnkaa-2<<<<<<<<<<<<,,<<<<,;;-;;---===%%X11;;-=",
";111w-o;955hghmMMSMmka7,-%,,,<,,<<,<,,,,,,,---------=%%%%o11;;-=",
";111w-o;905hkcMMMBMnhfr+%%%%%%%%%%%%%%%%%%%%%%%%%%%%%+O+OX1<;;-=",
";114r-o;9w5hkcMmmSSMhfx;%%%%%%%O%%%%%%%%%%%%%%%%%%%@OOOOoo1<;;;=",
";<11r-o;9r5kkcMMmNMmdfMd55<4<<1=515551;15;<w1511;;;;%=-=%O41;;-=",
";<4<w=o;0r5khkmmmBnndfmkfgwtrrr;fdddkrwdd4wcddrd5551=;1;=O54:;;=",
";<51w-o;0w4ghkvnvMcnhfAcfhrfhhg5hkkkcdrhhwtvhkkhwww5;55;=O55;;-=",
";;44w=o;9r5kkcnnxMnvhfSchhrdfkkwvkcvMcdkkrfvhcckdrr0;50:=%55;;-=",
";;559-O;5w5ckknnkMcvdfmkkkdffkk5vkkMMcgckrfvkkkkdrrw;501-%55;;-=",
";<55w-o;5r5hkhhhhnkkdfvkkkgdhkh5vkcMnhkckdavkckkdrw0;qr1;%55:;;=",
";<11w-o;5r4fVi,<rncvdavkhcfdhkhqvkcnvkkccdavkcccdtr9;9r5;%551;;=",
";<41r-o-4r5a3-,,,kccrfvhhcfhhhhwvkcmMkhkcdfnkhkckdw0;9r1;%45:;;=",
";<11r-o-154w,,,,=dkkramckkdfhhhwvkkcnhghkrfvhgkkddwr;q01-%111;-=",
";<11r;o-1917,i<%=dkkrtmckkffhkhwvckcmhhkkrfvhdhhhdww;591;%11:;-=",
";<1<w;o-4r58&i3,,whhrtvkkhhkkhkwvckcmkkkkrfnhghkkdw0;951-%45:;;=",
";<150-o-4w5w*%$%,<dkdanhkkkkhkkwvkkcvkkhcdfndhckdd59:951-%55;;-=",
";<110-O-5w47*&$$$=rgrfmhkhkhghkwvkkcchhhcddnhhkkdr9w:551-%54;;==",
";<<19-o-5w17,%$%%=5drdvdgdhkghh5vkkkcgkkkrfcdhdddrwr:55;-%55;;==",
";;<19-o-5517,%o&%%1d0wkdgdgchhd5vkkkngkkkrdcdddddr90:55;=%55;;==",
";;<15-o=4517,%%,>%1drwkdddhhggd5vkkkcfhhkstcdddrdr09;55;=%41;;==",
";;;15-o=191<*,,*%%4d9wkghgkdddd5vkhkcdhkh0tkdddrsrw5;45;-%51;;==",
";;;<5=o=1514%,,-@;5r07hdkkkdddd5kkkkktddk9dkdddwrrw5;45;=%41;;==",
";;;15=o=59<w;$%O=5rd97fdhkkdrdd4hdhhkrrdd5rksddwddr9;45;=%1;;;-=",
";;;15=o=19<w91-;5rdd57gdddhrrdd<hrddkrrdd5whrsd0rr05;45;=%4;;;-=",
";;;;5-o=15<rrr45rrdd57hrdddrrrr<frdddwrrr5wdrrrrr051;<1;=%1;-;==",
";;;;5=o=15<r0r50rddd14drsrr9900;d0rrr909r15r9999551:-;;;=%1;;;==",
";;;;5=o=;4<rrrr0rddd51aww887777<w7757777714755114<<<--;-%%1;;;-=",
";;;;5=o=;4;rrdrrsrdd:7y<222777277222<2<2<<<<<<<<<,,,--=%%+1;;-==",
";;;;5=o=;1;rrdd0rrdd1,-=,=------==---==========%%%%%%%%$Oo;;;-==",
";;;;1=o=;5;s9sd9rrdd1=,-%=;;;;;-;;;;;;----===-===%%%%%%%%o;;=-==",
";;;;1=o=;1;w0rr900rs5%%%%%%%%%=%=====%%%%%%%%%%%%%%%%%OOOo;;==-=",
"-;;;5=o=;1;w0rr90r9r1==OOOOOOOOoOOOOOOOOOOoOOOOOOOOOooOOoo;;==-=",
"-;;;1=o%;1;0rrs90r551;4;;=-=--;%-;-==-====%;==-=====%%=%OO;;-=-=",
"--;;1=o%;:;99rr50005;<515:;;;;;-1::;;;;1;;-1;;;;;;--=;-=%O;;-===",
"--;-:%o=;;-590050r95:<515551111;511111151;;511;::;;;-;;=%@;-=-==",
"==;-;%o=;;;55509rr55;<515541515;551551151:<51111:;;;-;;-%%;-=-==",
"==--;%o%-;;515559915:<5;5911115;551595551;;5;:1:::;;-;;==#;-===%",
"==--;%o%-;-1:5519511;;5;5511115=55<<15551;;5;;11::;;-;;==%;-=-==",
"====;%o%=;=1:15555:1;;5:1::1111;551<15511;;5:;::::;;=-;=%%;==-==",
"==--;%o%=;=;;:1:1:;1;;1;:;;;:11;5515511;1;;1;::;;;;;=;;=%@;=%-=%",
"==-=-%o%---;;;:;;;;:;;1;;;;;;;1;11::1:;;:;;1;;;;;;;;=;;=%%;==-=%",
"=-==-%o%-;=;;;;;;;;:--;;;;;;;:;=1:;;;;;;;;;;;;;;;;;;=;;=%@-==-%%",
"====-#o%===;-;;-;;;;==;;;;;;;;;=;;;;;;;;;--;-;;;;;-;=--%%@-===%%"
};
