/* XPM */
static char *_db014765aff4a2ee1d6e8c7d2242246fD72QFZhHCo13cmX[] = {
/* columns rows colors chars-per-pixel */
"64 64 61 1 ",
"  c #271A0E",
". c #2B1B0F",
"X c #301E0F",
"o c #2D1D10",
"O c #311F10",
"+ c #33220F",
"@ c #2E2014",
"# c #342313",
"$ c #3B2514",
"% c #3E2817",
"& c #352619",
"* c #392718",
"= c #37281A",
"- c #3B2B1B",
"; c #402716",
": c #422A16",
"> c #442B17",
", c #432B19",
"< c #452B18",
"1 c #402D1B",
"2 c #442C19",
"3 c #462C18",
"4 c #462D18",
"5 c #462E18",
"6 c #472E1B",
"7 c #492F1A",
"8 c #4B2F1B",
"9 c #43301E",
"0 c #49301A",
"q c #4B331E",
"w c #4E311C",
"e c #4F321D",
"r c #4F351F",
"t c #50331D",
"y c #51351E",
"u c #54361F",
"i c #57381F",
"p c #58381F",
"a c #443222",
"s c #4A3523",
"d c #4F3520",
"f c #4C3927",
"g c #503721",
"h c #543720",
"j c #503822",
"k c #573920",
"l c #533B24",
"z c #543B25",
"x c #583921",
"c c #593B22",
"v c #5B3C22",
"b c #5C3C23",
"n c #5F3E24",
"m c #603F24",
"M c #614025",
"N c #644226",
"B c #674428",
"V c #6A462A",
"C c #6D492B",
"Z c #714C2D",
"A c #744F30",
/* pixels */
"**##++&&o.##oo**################################**oo##.o**####&=",
"**##+#**o.##O#*********##******#******************#o##.o**####**",
"####&*..##:>>4djrrllzl7770rrrr44dr00lzzzllllzlrrgr4:::#+..&*#+++",
"####&*..#$>444gjrrjllj7444rrrr44rr44jljlljjjljrrgd44>:##..&*##++",
"##**o.##::>4rd--##o..........o............oooo##-4rr:>::##.o=*#+",
"+#**..#$44<4rr-*##...........................o##*-rr::>:$$..&*##",
"**..##:>rr**#o##**OO*$$$##::##::#O$$,,**,,**44$*##oo#*>>::++.o&=",
"**..##:<qq**oo##$$##$;::$$<<**<,##$:74$$74$$74:$##o.##:>>:$#..&&",
"o.++:>>>**o.$$0ehh4<eexk77kk,,hk00eynnyybv74uue7,%*$oo##>>::#+..",
"..#$:>>:##.o$%eekk44etxxeebx44kkeeyuMMhynn77kkee,,%$o.##:>>:$#..",
"..:>4>##oo:4eexxkk77eyVVxhNNeebbttnMMMhunneemMMmyyxx>$..##::>:..",
"..444>##.o47eyvvxk77yuVCxxNNttnnttMMNMuummeeMNMMuybb7>O.##:>44..",
".odg74o.$%ryeyVCMM77bmVVxkNNttMMeemMCVuuNNeeVCNMuuCCbx:$.oqegdo.",
".odg04..%,yyeyCCNMq7bmVVkuNNttMMeemMCVuuNNetCCNMuuCCbx,%.oergdO.",
"..%,yr#O<4vbetCCNMe7bmMmytMMkkmnttmMNNxpNNyyCCNMkkCCbx74oOyy4,..",
"..%:yy#O<7bbetCCNMeenmmmttMMhiMMteMMNNxxNNyyCCNNikCCbx77oOyy,%..",
".o::ee#O<7vbeeBVCCyemMBNhubbukCCeeMMNMxxNNyyVCCCyyCCxi74.o004,..",
"..::eeOO47bbeeMBZCteMNBNkubbhkCCeeMMMMxxNNyyVCCCyyCCxi7<.o704:..",
".o:4gy#O7ebbeebmZZeeVVBBuuNNxxNMetVCVVvvVVyyCCVByymMvx,%XO004:..",
".O:4jg#O7emm70bbZZeeVVBNyyMMxxMmeeVVVVvvVVyyVCVByybnvx,%OO704:..",
".o:4yyo.eyCCtebmCCtebb9911911111aassssaaflffssssaa999aaa##****..",
".o:4gyo.0yCCtebmCCtexx--------*-aaaaaaaasfff1-aaaa----a9#@**&#..",
".o:4kkOOetVVeemMCVe041**aa&&--&&&&&&****-----*&&&&&&--&&oo--@o..",
".o:4xkOOeyVBeeMNCVe791&&aa&#--&&&&&&##&&&&&&==##&&##--&#oo--@o..",
".o:4xx#OeyMMukZZCVeevx*#@@oooooooo..  ..oooooo....  ..    oo  ..",
".o:4xx#OeyMMkxZACVeebv**@oooooo..........o..ooo.........  o.....",
".o>4kk#OyuMMixZZBM77MMe7,,44$$$$##$:<,$$::$$et77,407:$$#..--*#..",
".o:4kk#OtyMNuxZZNM77MMye4477::<<##<477$$44$$uute44ee<:$$..44**..",
".o:,gg##7emmukCCmbetBVNMyybbeemm,:MMNMe7MM77VCMnkkNNkh07oOyy4,..",
".o:<gy##7emmuxCCmbetBVNMyymmyyMM<<NBBBeeNN77CCMMkkBBxke7oOgg4<..",
"oO70ku##0yVVbbVVmb7eCZNMyymmytmm44NBCCe7NN77CCMMikBBxu7<.Oyy4:..",
"oO7eku##eyCCnnVVmb7eCZMMyymmyymm<4NBCCeeNN77CCNMuuBBxu4<OOyy4,..",
".o7eku##euCCvvVCMM77VVMmuuMmuuNM<<mMNNuuVB7eCCBNyyNNxu7<OOgke0o.",
".o7ekk##euVCbvVVMN77BVNmuuMMiiNN<<mNNNuuBNeeVCBNyyNNxu7<O#gjr0o.",
".o<4xx##eyCZmnNNNM77MNCCxpNNxxCC4<MNVVuuNM77MMBMuuCCbbe7##ry07o.",
".o,4xx##eyCCnnMMMM77MNZCxpVVpxCC74MNVVuuNN77mMBMyuCCnbe7##ry04o.",
".o,4xx#OeyMM4--,7eeeMNCCppZZxiCCeemMCCxxZC77mMVByyCCnb74OOyh04o.",
".o<4xk#Oeymb-**-47eeMNZCppZZiiCCeemMCCxxZZe7MMVByyCCbx74O#yh04o.",
".oqegy#O7711**aa--47bmZZiiZZuyBB77bmCCvxZZteMMMmeeVVbx74##jk4:..",
".oqrgy#O77--**aa--<4bbZZuiZZuyBN77mMCCvvZZtemMMmttVVxx77##gh4:..",
".O0qkk##yyaa@oooaa$$bMVVyuVVuuCCeeVCCCbbCCeebmMMkkmmxx07OO7074..",
"oo70kk##yuaa@o oaa#$nMVBuuVVuuZZeeVCCCbbVVeebmMMkkmmxx77OO7074..",
"oo,4gy##ikq4***$&&#*xbNMixCCppCCeeVCZZbvNNeeNNMMuuNNbv77O#gj44o.",
"oo,4gg##ike7$*$$##**xbMMxxCCppCCeeVCZZbvNMeeBBNMyuNNbv07##jk44o.",
"..,4kk##eexx<>te#o*-MNBNxxCCppVBttMBZZvknnetCZBNuxCCnve0O#jk44..",
"..,4kk##eebb>:te#o*-MNBNxxVVpiVBttMMZZxknnetZZBNkxZZbve0OOjk4:..",
"oO40kk#OeyVV#o**@@$,mMmmuuNNuuVVttMMNNkkMM7eCZNNkxCCbx74OOyy:%oo",
"oO40kj#OeuCC#.####$<MMmmuuNNuuVVttMMNMkkNM77ZZNNukCCbx74OOyy:%o.",
"oO47ee##eyCCe4$$<<>4mMNNuuVVkuVVttNBBNkkVV7eZZBNuuMNMme0OOyy:%..",
".o47ee##eyVVeq::77>7MNNNukCCuuVVttNBNNhkVVeeZZBMuymMMme0O#gg:%..",
"oo:<ee##eyNNuuyyvx7eBVMmukCCytNNyyVVMmxxNN7eVVVVuubbxxeeO#kk,:o.",
"oo:4ee##eyMMiuuubm7eNVMMhkVVyyMMyyBVMmkkMM0eVVVVuubbxxeeO#kk,%o.",
".o70kkOO7eMMuummmb77xbVVuyNBuuMmeemMmmyybb7eNVMMyyMMbx74O#kk,%..",
".o70kkOO7eMMyyMMMm74xbVVyyMMuynnqqbnnbeebb0eMNMntyMMvx44O#jj-*..",
".o44yyO#eyNBttMNCV7<xx9911aa11ssaassssaasaaaaaaassaassaa##--&*..",
".o:4yy##eyNNttMNCV7<xx----aa--aaaaasssaaaaaaaa-9aa--aaaa#@**&&..",
".o%:kkO.etbbyuCCNM7<11&=aa&&==&&======&*=*&&==**&&&&&&==ooaa#o..",
".o%:kkO.0ebbyuCZMn7441&&aa&#&&##&&&&&&&&&&##&&&&@@####&&ooaa@o..",
".o>4yyOO<7bbyuCZMn77xx#@#@oooooooo.  .oo....oo....  ..   .oo  ..",
".o>7yyOO>4bbtyCCMn74xx*@oo..................oo.......... .......",
".O44yy#O$:xx77MMnv::bb4,**$$##$*##****##%%##,4,%**<<$*$#..**##..",
"oO47yyOo$:xx47mMbx::vb74**%%##-%##$$:%$*,,#*44<,*$44%$**.o%-*$..",
"oO,4ee..>7yy77kkkh::yhee<4ee::te$*77yy44gg::yyee47kkee44oo44::..",
"oO,4ee..>7ty77hhhg::yyee44ee::yy$*77gg77kk::yyee77xxee74oo47,:.."
};
