/* XPM */
static char *_cea5e8098eb471ba3447edca14fce5anAF8oWpx7BkDl7je[] = {
/* columns rows colors chars-per-pixel */
"64 64 203 2 ",
"   c #390800",
".  c #3A0C01",
"X  c #3D1303",
"o  c #400700",
"O  c #4B0600",
"+  c #450B01",
"@  c #4C0C01",
"#  c #520700",
"$  c #540C00",
"%  c #5C0C00",
"&  c #441202",
"*  c #4B1302",
"=  c #451905",
"-  c #481804",
";  c #4E1F09",
":  c #541302",
">  c #5C1301",
",  c #531A06",
"<  c #5B1B06",
"1  c #511E08",
"2  c #5C1E08",
"3  c #640D00",
"4  c #6B0E00",
"5  c #740D00",
"6  c #7B0D00",
"7  c #641200",
"8  c #6C1200",
"9  c #641B05",
"0  c #6C1D05",
"q  c #641F08",
"w  c #6E1F08",
"e  c #741300",
"r  c #7C1300",
"t  c #741B04",
"y  c #7B1B03",
"u  c #4B220C",
"i  c #54230C",
"p  c #5B240C",
"a  c #5C280E",
"s  c #562912",
"d  c #5B2A11",
"f  c #632007",
"g  c #6D2007",
"h  c #63230A",
"j  c #6C250B",
"k  c #63280F",
"l  c #6D2A0D",
"z  c #742106",
"x  c #7B2106",
"c  c #73250A",
"v  c #7C250A",
"b  c #73290D",
"n  c #7B290C",
"m  c #632C11",
"M  c #6C2C11",
"N  c #762F12",
"B  c #7B2E11",
"V  c #6A3115",
"C  c #743213",
"Z  c #7D3313",
"A  c #8C0600",
"S  c #830D00",
"D  c #8B0D00",
"F  c #960400",
"G  c #9B0500",
"H  c #930E00",
"J  c #9C0D00",
"K  c #831400",
"L  c #861500",
"P  c #851600",
"I  c #8B1400",
"U  c #891700",
"Y  c #8C1600",
"T  c #821901",
"R  c #841A02",
"E  c #811C01",
"W  c #891900",
"Q  c #8C1B01",
"!  c #931300",
"~  c #9C1300",
"^  c #931B01",
"/  c #9C1A00",
"(  c #A30600",
")  c #AB0700",
"_  c #A40C00",
"`  c #AC0C00",
"'  c #B40B00",
"]  c #BC0B00",
"[  c #A41300",
"{  c #AB1300",
"}  c #A41A00",
"|  c #AC1B01",
" . c #B31200",
".. c #BB1400",
"X. c #B41C01",
"o. c #BD1901",
"O. c #842405",
"+. c #8C2505",
"@. c #862807",
"#. c #8E2A07",
"$. c #812508",
"%. c #8A260A",
"&. c #85290D",
"*. c #822C0D",
"=. c #8C2C0B",
"-. c #892D0D",
";. c #932304",
":. c #9B2303",
">. c #922907",
",. c #9D2B06",
"<. c #9D2508",
"1. c #942D0B",
"2. c #9B2D0B",
"3. c #8E320F",
"4. c #94320E",
"5. c #9A310D",
"6. c #812D10",
"7. c #832F10",
"8. c #8A2F10",
"9. c #833413",
"0. c #893211",
"q. c #8C3312",
"w. c #873916",
"e. c #8F3811",
"r. c #843B19",
"t. c #893D1B",
"y. c #913110",
"u. c #933513",
"i. c #9E3512",
"p. c #953A15",
"a. c #9C3B16",
"s. c #A42403",
"d. c #AC2402",
"f. c #A42B05",
"g. c #AB2905",
"h. c #A32608",
"j. c #A42D0A",
"k. c #AC2B09",
"l. c #B32503",
"z. c #BD2302",
"x. c #B22B05",
"c. c #BB2B05",
"v. c #B22E0B",
"b. c #AA3106",
"n. c #A4330E",
"m. c #AC340C",
"M. c #B5320B",
"N. c #BA330D",
"B. c #A23714",
"V. c #A33B16",
"C. c #A93912",
"Z. c #A23E19",
"A. c #B53D12",
"S. c #C30C00",
"D. c #CB0D00",
"F. c #D50500",
"G. c #D90400",
"H. c #D30E00",
"J. c #DB0E00",
"K. c #C31300",
"L. c #CA1100",
"P. c #C21B00",
"I. c #CD1900",
"U. c #D41300",
"Y. c #DB1100",
"T. c #DE1800",
"R. c #E40300",
"E. c #ED0700",
"W. c #E30D00",
"Q. c #EB0D00",
"!. c #F20600",
"~. c #F30D00",
"^. c #FA0D00",
"/. c #E31200",
"(. c #EB1300",
"). c #EE1B00",
"_. c #F31400",
"`. c #FB1600",
"'. c #F41A00",
"]. c #FD1C00",
"[. c #C02000",
"{. c #C03408",
"}. c #F32100",
"|. c #FD2400",
" X c #FD2B00",
".X c #FE3300",
"XX c #FE3B00",
"oX c #9F411A",
"OX c #B14419",
"+X c #B1461A",
"@X c #8F4824",
"#X c #9F4E26",
"$X c #B04C20",
"%X c #B75324",
"&X c #B05528",
"*X c #FE4400",
"=X c #FE4B00",
"-X c #FE5400",
";X c #FE5D00",
":X c #FE6401",
">X c #FE6C01",
",X c #FE7302",
"<X c #FE7A02",
/* pixels */
"- h C b l 9.w.9.j j z z 0 $.8.p.0.u.q.0.n j q.0.6.*.6.n n n v j p *.-.O.O.t T E t > z #.#.-.8.&.&.-.y.y.-.-.y.4.&.z x @.c a p < ",
"& : : 7 7 > 7 t r e e e T Q T e 8 e e 7 8 r y 7 e r 8 8 % 3 e 6.2 e r e 8 e r r r r r e e e 7 7 7 r e e e e 7 8 e 7 7 T +.l ; @ ",
"& $ % 3 % 3 3 e T T U T P U r 4 % 3 e e T U U K T Y K r K K P &.< T U T 5 4 e r T P r e 5 5 4 3 4 e e e e r e 4 r r e T R l - @ ",
"X > 7 7 8 e e r r T W r r e e 8 r r e T P P Y P Y ^ Y U Y U P &.< W Q e e e K r 4 r r r r r r T T r r r P r e r r r e e E j - > ",
". $ @ e 8 e T r r T T r r P r r U r e P U r K r r r r 5 r P U v < r P P P P Y U T K r r K r K r U T e r 4 P T T T e r e y j - 8 ",
". $ % 3 3 e e e r e e r r T 8 4 T r r r r K Y U P K r P P U U &.9 r U Y Y P r r Y K K P P P r e e T K r r P T r r r e e Q j - 7 ",
"X $ % 7 8 e e e r r 8 4 r P P r r r r r e r 6 r 5 5 r U P Y ^ %.7 5 P P P K K K P K P P K P K P r r r 5 r e 8 4 r r r e y j * 7 ",
"X + O 3 r e r r r r r r P U U Y ! P K P ! S 5 5 6 P S S I ! ! %.8 4 6 S U S S P K 6 U ! S 6 K U U r 5 P P r r T P P U r e p = $ ",
"= & & @ @ @ : @ @ @ @ @ # # # $ % % 3 3 3 3 3 3 4 3 3 3 3 3 4 x t $ % 3 3 3 3 3 3 % 3 3 3 3 4 3 3 % % % % $ O O O $ # @ 9 p X   ",
"V C Z 9.w.t.@XN b j h 2 h j q : 9 t x x t y y t y y y t 8 0 0 t x y y y y x v t t t t t t t t 9 0 q q 9 2 q p 2 , 2 p h l k i 1 ",
">.>.b.M.m.1.1.>.m.n.2.v u.Z.i.z x j.M.v.k.k.v.v.k.k.k.h.Q Q <.Q <.v.N.M.N.M.v.v.v.k.v.j.j.2.%.v 2.i.B.B.i.5.V.V.V.Z.Z.a.a.p.p.u.",
"e r r r r e r e y P Q U W ^ f.$.e ! ~ [ [ [ [ { { [ [ H D H ! H H ~ ~ [ } [ { } { { { { | k.Q r K P T P T r r T P y 8 e e y y T ",
"e e e r P P P e r r P Y U U s.R 4 J _ _ _ A A ` ` _ _ ` ` ` _ _ J J ` ` ` _ ` ` _ _ _ J  .x.W 5 6 D S K r r 6 5 5 r r r r 5 r e ",
"e e r r e 4 r P U P P K K ! d.R 6 H _ _ _ _ _ _ _ _ J ` ` ' ` ` ` ` ` ' ` ` ` ' ` _ _ _ { x.Q 6 S D S P r r r r e T r r e 3 r e ",
"T r r e 4 3 e T P K r 6 S ! | +.r J _ _ ) ' ' ' _ _ _ ) ' ` ` ` ` ` ` _ ` ' ) _ ' ` _ ( ` l.^ 5 D ! U U K 5 r r T r e e r T e e ",
"P r P e e 4 r K P P K U ! ~ } W S J _ ' ' S.S.S.] ] ] ) ) ' ' ' ' ' ' ' ] ] ] ] ] ' ) ' ' z.^ 5 D ! ! U ! K U U r 4 e e e r r r ",
"r T P r P P Y ! ! / U ! ! { | ! H ) ] D.H.W.R.R.R.G.H.D.S.] ] ] ] ] S.D.Y.J.W.J.G.F.F.H.D.K.~ 6 D H ! 6 P Y r 4 r T r P P r e T ",
"3 e r W ^ r K K U ~ } [ [ [ [ ! J ] H./.~.|. X X X|._.E.J.S.] ] ] S.D.Y.Q.'.|.].|.|.'.~.Q.L.{ S H D H ! P P r 6 r r e U Q e 8 7 ",
"@ $ $ $ % % % $ % 3 4 5 6 S J J ' H.Q.^..X;X>X,X,X>X-X.X'.U.S.] S.Y.E.^..X*X>X:X;X;X*X X X'.D.' D S 5 4 4 3 % % % $ $ % $ @ @ + ",
"h l j c z z t t t t y R T K [  .U.].|.*X>X,X,X,X,X>X,X>X-X`.Q.D.H._.|.;X,X,X>X>X:X:X;X:X;X*X].U. .! y y t t t t 0 n n c h p i a ",
"p t.$XOXOXA.f.m.M.M.{.c.| ~ ..Y.'..X-X,X>X*X.X.X.X.X=X:X>X=X|.(.!..X>X<X>X*X X.X X.XXX;X,X>X-X|./.P.} h.g.x.x.x.g.f.,.m.n.l p 9.",
"* t O.Q Q ^ / Q U T ^ Y D J S.(. X;X,X=X.X X].].].].|. X;X,X=X.XXX,X<X=X|.`.].`.].].|. X;X,X>X.X].K.[ ~ ~ ! U Y ^ T P Q ;.c * y ",
"+ r P P Y ! ! ! Y S ! ~ H ' J.|.=X,X=X|.].].].].`.].].`.|.=X:X:X,X,X*X|.`.`.`.`.].`.].].].=X,X,X XJ. .{ ~ U 6 S U K U Y W c & P ",
"* P T r U U U K Y P ~ [ [ L._. X>X>X X].`._.(.W././.(._.`.|.XX>X:XXX`.`._.W.Q.W.W.(._._.].|.>X>X.X~.K.{ ~ U P P U P r r P j * T ",
"* r r r P P Y P K 5 ! ~ [ K.`.XX>XXX].]./.Y.H.H.D.H.D.J.(._.|.XX X`._.W.J.D.D.D.D.H./.(.`.].XX:X-X].L.{ J ~ ! ! Y K r r W c * T ",
"* r T P P r K U Y U ~ ~ [ K.].*X>XXX].(.H.D.S.D.S.S.S.D.H.J._.^.`.(.J.H.D.S.] ] S.S.H.Y.(.]. X:X;X XD. .[ ~ ! U U K P Y ^ n * T ",
"& e U Y K r r U ! ! ~ [ { L. X;X:X.X]./.S.S.] ] ] ' ' ' S.D.H.Y.J.D.S.] ] ] ' ] ] ' D.Y.(.`..X:X:X.XU.` _ H ! ! U P U / s.c & T ",
"& % r r K Y P K U U ! ~ { L. X;X>X.X`./.S.] ' ' ) ( ( ) ' ] S.S.] ' ' ) ) ( ) ) ) ) ] H.(.]..X:X;X XD._ H S D ! U 6 U P ;.j & # ",
"*   O # # % 3 4 5 5 6 6 H K.|.;X:X.X`.(.S.] ] ) ( ( G G ( ) ' ' ) ( ( ( ( ( ( ) ) ' S.D.(.]..X:X:X X] D 6 4 4 3 3 % $ $ 9 h *   ",
"M h N n z w z t y y Q ^ / K. X;X:X.X].(.D.S.] ) ( ( G G G ( ( ( G G G ( ( ( ( ) ' ] D.H._.].XX:X;X|.../ W y y y 0 0 0 g j j h p ",
"#X&X%XOXOXC.n.j.j.k.g.d.z.P.'.*X>X*X|._.Y.D.] ' ( ( G G F ( G F F F F G G ( ) ' ' ] D.Y.].|.=X>X*X).o.l.l.g.j.j.;.2.1.#.&.4.u.e.",
"x ;.;.Q ^ ^ U ^ / / ~ ~ X.o.W. X>X-X|.`./.D.S.' ) ) G F F F F F F F F F F ( ) ' ] ] D./.]. X:X>X XD.{ { { ~ ! ! ^ ^ T r r R y t ",
"6 U ! ^ ! ! / / ~ ! [ [ { ..H.|.;X;XXX|._.J.S.' ) ) ( G F F F F F F F F G ) ) ) ] S.H.(.|.*X,X-X].K._ [ H ~ / ! ^ ^ U P U P e 3 ",
"W r r K P ! ! ! ! ~ [ [ {  .K.W..X>X;X|.].(.H.S.' ) ) ( ( F F F F F F F G ( ) ] S.H.(.`. X:X:X.X/..._ J ! ~ ! ! ^ ^ W T ^ Q r r ",
"Q T P Y ! Y ! U D ! ~ [  . .o.S.}.;X>X=X X`.(.H.S.] ) ( ( F F F F F F F G ) ' S.D.J.]. X;X>XXX(.I..._ J ~ ~ ! ! ! ^ P e r r r e ",
"P P U U P K U U U ~ [ [ {  ... .H. X:X:X=X X].J.H.S.' ) ( G F F F F F G ) ' S.H./.`.|.-X,X-X].L.o. ._ ~ ! ! ! ! K r r W r e P P ",
"P U Q P P P P U U ! ~ } [ {  .` S.E..X:X>X*X].(.Y.D.S.' ) ( G F G G ( ( ) S.H.W._.|.=X:X-X|.'. .{  .[ } ! ! Y U Y Y e r r r e 3 ",
"r r ^ K P U Y ! ! U D ! H J {  .` S.'.XX:X:X.X]._.J.D.] ] ' ( ( ( ( ( ) ] H./._.|.XX>X;X|.(.L._ _ [ ~ ! D P U U K 5 r T r r e 8 ",
"$ $ > $ $ $ $ % % 3 3 4 5 5 ! | } _ ' J..X>X>XXX^._.J.D.] ) ( ( ) ) ' ] D./._.].*X,X>X XY..._ H S 5 5 4 3 % % % $ @ > > @ $ @ @ ",
"s m m k k h h h q 9 n x y y ^ / } } { L./.XX>X>X.X]._./.D.] ' ' ' ] S.H.(.`.].*X>X>X.XW.o.{ } / ^ y y y x t z c c n b M M a i ; ",
"a b n n -.oXZ.a.i.1.j.j.<.:.d.l.z.P.P.I.Y._..X:X>XXX].`.(.J.D.S.D.H./._.].].=X,X,XXX_.T.I.P.[.X.d.l.x.x.g.f.f.b.f.,.4.u.p.l < *.",
"* 7 7 7 e t y y T P ^ P Y U ! ~ ~ [ { { ..L.'..X:X,X*X|.].(./.J.J./._.].].XX,X,X.X_.L. .` [ { [ ! ! ! P T r T P P r e 8 t f * y ",
"* 7 8 7 e 4 e e r P ! ! / ~ ! ! H D H J _ ` L.(.|.;X,X-X.X].`._._.`.].].*X,X,X X~.S.` _ _ [ ~ ! ! I S S K r r r r r e 8 e h + # ",
"* e 8 e r r r r T Y ! ! ! ! ! H ! H J J [ { ` L./.|.:X<X:XXX].].].]..X;X<X,X.X(.K.` ` _ [ [ [ ~ ~ ~ I Y Y r r T r r e T y f * e ",
", 7 7 7 8 8 e r r r P I U ! ~ ~ ~ ~ ~ [ { _ ` ' ] Y.|.:X,X;X.X].|. X-X<X>X.XQ.L.` _ _ _ [ [ } ~ S ~ Y K K r P e e e 8 e y f & e ",
"h 8 7 8 e e e r r P r ! / ! ! ! ! ~ [ [ ~ J `  . .] J.|.=X,X>XXX.X;X,X;X.XQ.K.` _ J _ _ [ [ ! ! ! U ! r 5 r P r 8 e e e e 2 & % ",
"h 8 e r T r e e r r r r I U U D S D H H H J [ {  .' ' D.!.XX:X,X,X>X*X].J...` _ _ J _ J J ~ H U P S 6 r r r e P r e r e y h & % ",
"h e P ^ W e r P P T Y 5 U U ! ! U ! ! ! [ { [ _ ` ` ` ' S.W..X;X:X|.Q.H.] ` _ _ [ [ ~ [ [ } ! ! U P Y Y Y P r 4 3 r r e -.l + 7 ",
"; + @ $ : $ > 7 3 % 3 % 3 3 3 4 4 5 6 6 5 5 6 6 S S D H J  .L.J./.H.` _ J D S 6 5 3 3 3 4 4 3 3 3 % % $ # # @ + + @ @ + p i . o ",
"s d s a a a p p 2 q 9 9 9 0 0 0 9 t y y y R R P P W W Q ^ / } } [ ! ^ ^ Q W T R R y y t t 0 9 q h h h 2 h k h p a a i i a a 1 , ",
"@Xr.Z 9.*.q.v x #.2.2.j.,.j.m.z z j.m.j.<.s.s.d.d.d.l.d.d.l.d.X.l.} d.c.l.d.g.g.x.x.x.x.M.m.n q c &.-.-.-.q.0.*.*.*.q.0.n b =.=.",
"z t t y T r T T P T e r T Q ^ 0 0 T T T U P Y ! ! ! ! ! ~ ~ ~ [ } [ ! ! ~ ! / ! / ^ U U Q f.&.< T P T r e e y y y y t 8 7 8 e t ",
"e e e r r 4 e P P e e r K P U 0 9 r P I Y U U U U ! ~ D ! ! ! ! ~ ~ ~ ! ! ! [ } ! I I I I :.c < P P r e e 4 8 e r T e 3 3 e 7 % ",
"e 7 7 8 e r e e r e T P P P :.&.9 r P P K P K K U ! U U D ~ [ ~ ! ~ [ ~ ! ~ / ! 6 P ! ! Y :.n < r T e e P e 8 e e r r e % 7 7 8 ",
"e 7 e 8 e e e e r r r K U Y ^ *.9 P P 6 K P r ! ! P I I I I U ! ! I U U P P P ! U P P K P :.6., 5 r e T r T e e 8 8 r e 7 e 7 3 ",
"8 e 8 e 7 % 3 r T T e r U U Q n 9 U U 5 K U P U Y ! ! ! ! ! ! ! I I r 6 6 K P U P U Y K K Q n * e e 4 8 P T r r r e e 8 % 7 % % ",
"% 7 8 8 7 3 8 8 e r r e e e Q n 9 r K r r P Y U U ! ! U ! ! ! U K P P U Y P r K K P U P U ^ n : e e r r T e r W W r r e 7 % 8 e ",
"8 8 8 3 e y T T r e r e e P +.c 7 e P Y U U / Y P P U U U P ! U I Y P P Y K K K K U P P P Q j * 4 e r r r r r T r 3 7 e 7 e e 7 ",
"@ @ @ + @ @ @ @ @ + @ @ @ > c b > @ $ % 3 3 3 3 7 8 4 8 8 4 e 8 4 4 3 4 4 7 7 7 3 3 3 3 3 t j , @ @ # @ @ @ $ @ @ @ @ @ + + + + ",
"= u i a d a a s i u i i k k j c j 2 h h h q < 9 0 9 0 0 g j j < : < q q j h j j c c c c b b j p i p p i i i i i a i i i i i u u ",
"d h h *.3.3.3.n 0 x #.#.#.@.O.>.5.1.=.=.@.#.#.>.>.+.+.+.>.#.1.h < c -.4.1.1.1.4.V.V.i.2.>.x x c 3.4.4.>.4.=.*.*.n n n 9.9.a ; l ",
"m > > 7 t 8 8 8 8 8 y e 7 8 e y y t 7 7 e e e e e e e 8 e e E b 2 8 e e e r r e t e e r T y r r t t y y y y e y e 7 > 7 z p 1 9 ",
"1 7 > % 7 3 3 3 8 r e e 7 7 7 e 8 8 8 r e r e 3 4 T r 4 4 4 e B j 7 8 e e e r e r 4 e r r r r r T r e e e e r r r 3 $ % t a - 7 ",
"* e 7 8 e 8 7 7 7 7 3 7 8 e 8 3 3 3 8 7 3 7 e r e r r e e 8 t 9.< % e r r e e e r T T r 8 e e T r r e 8 7 7 7 7 % 7 e 8 8 a - 7 "
};
