/* XPM */
static char *d22d15fd85d74d2dcfad125ee84d485aJLIQbtKm6hWbkMzw[] = {
/* columns rows colors chars-per-pixel */
"64 64 211 2 ",
"   c #250300",
".  c #2B0300",
"X  c #2E0D02",
"o  c #340500",
"O  c #3C0600",
"+  c #320D02",
"@  c #3C0B01",
"#  c #351103",
"$  c #3B1304",
"%  c #440600",
"&  c #4B0700",
"*  c #440901",
"=  c #4C0A00",
"-  c #550700",
";  c #5D0700",
":  c #540B00",
">  c #5C0B00",
",  c #441304",
"<  c #4C1505",
"1  c #451806",
"2  c #4D1906",
"3  c #451B0A",
"4  c #4C1E0B",
"5  c #531403",
"6  c #5B1201",
"7  c #531A06",
"8  c #5A1B06",
"9  c #541D09",
"0  c #5B1D09",
"q  c #630700",
"w  c #6A0700",
"e  c #640D00",
"r  c #6B0D00",
"t  c #740600",
"y  c #7C0600",
"u  c #730E00",
"i  c #7B0E00",
"p  c #641101",
"a  c #6C1100",
"s  c #641A04",
"d  c #6C1B04",
"f  c #621E09",
"g  c #6B1F09",
"h  c #741200",
"j  c #7B1300",
"k  c #741B03",
"l  c #7B1B02",
"z  c #4E210C",
"x  c #54230D",
"c  c #5B230D",
"v  c #4E2210",
"b  c #542410",
"n  c #5A2610",
"m  c #5B2812",
"M  c #6B2107",
"N  c #63240C",
"B  c #6B250D",
"V  c #66290F",
"C  c #6B280E",
"Z  c #752106",
"A  c #7D2105",
"S  c #73240B",
"D  c #7C250A",
"F  c #742A0E",
"G  c #762A0F",
"H  c #7C2A0D",
"J  c #642711",
"K  c #652A13",
"L  c #6C2C12",
"P  c #732C11",
"I  c #7C2C11",
"U  c #7B2F18",
"Y  c #6D3116",
"T  c #6D3118",
"R  c #743116",
"E  c #7E3216",
"W  c #773418",
"Q  c #7C351A",
"!  c #840600",
"~  c #8C0700",
"^  c #830D00",
"/  c #8B0D00",
"(  c #950600",
")  c #9C0600",
"_  c #930D00",
"`  c #9B0C00",
"'  c #831200",
"]  c #821500",
"[  c #851500",
"{  c #8B1300",
"}  c #831B02",
"|  c #861A00",
" . c #8A1900",
".. c #8B1C02",
"X. c #931300",
"o. c #9B1300",
"O. c #941B02",
"+. c #9B1C01",
"@. c #A50400",
"#. c #AC0400",
"$. c #A40C00",
"%. c #AB0C00",
"&. c #B30500",
"*. c #BB0600",
"=. c #B30B00",
"-. c #BB0A00",
";. c #A31300",
":. c #AC1200",
">. c #A31B01",
",. c #AC1C01",
"<. c #B31300",
"1. c #BA1200",
"2. c #B31C01",
"3. c #BD1B00",
"4. c #832205",
"5. c #8C2305",
"6. c #832509",
"7. c #8C2609",
"8. c #832A0C",
"9. c #8B290B",
"0. c #922404",
"q. c #9C2404",
"w. c #962805",
"e. c #9E2A06",
"r. c #942508",
"t. c #9E2609",
"y. c #942B0A",
"u. c #9B2D0A",
"i. c #9F310C",
"p. c #832E10",
"a. c #892F10",
"s. c #932F10",
"d. c #9F2F11",
"f. c #843416",
"g. c #8C3213",
"h. c #8C3817",
"j. c #83371B",
"k. c #8D3A1A",
"l. c #953413",
"z. c #9B3312",
"x. c #933B18",
"c. c #973B18",
"v. c #A32404",
"b. c #AC2302",
"n. c #A42A05",
"m. c #AB2A04",
"M. c #A7270A",
"N. c #A42D0A",
"B. c #AC2D0C",
"V. c #B32101",
"C. c #BC2302",
"Z. c #B22A04",
"A. c #B72A09",
"S. c #BC2D0C",
"D. c #A6300F",
"F. c #AB320C",
"G. c #BD320C",
"H. c #B72E10",
"J. c #BA2F10",
"K. c #A43715",
"L. c #AE3311",
"P. c #A23A1A",
"I. c #B73713",
"U. c #C10600",
"Y. c #C90700",
"T. c #C40A00",
"R. c #CC0A00",
"E. c #DB0600",
"W. c #D30C00",
"Q. c #DA0D00",
"!. c #C31300",
"~. c #CE1100",
"^. c #C31B00",
"/. c #C91D00",
"(. c #D21100",
"). c #DB1100",
"_. c #E20500",
"`. c #E40C00",
"'. c #EB0E00",
"]. c #E41200",
"[. c #EC1400",
"{. c #EF1900",
"}. c #F41500",
"|. c #F91600",
" X c #F51900",
".X c #FA1C00",
"XX c #C32302",
"oX c #CF2100",
"OX c #C62A07",
"+X c #C63508",
"@X c #C53211",
"#X c #C93610",
"$X c #FC2300",
"%X c #F72801",
"&X c #FD2B01",
"*X c #FD3401",
"=X c #FE3B02",
"-X c #96421E",
";X c #A2421C",
":X c #8C4023",
">X c #A04722",
",X c #FE4303",
"<X c #FE4B03",
"1X c #FD5405",
"2X c #FD5C06",
"3X c #FD5E08",
"4X c #FE6107",
"5X c #FD640A",
"6X c #FD6B0D",
"7X c #FE7313",
"8X c #FE7817",
/* pixels */
"3 J I f g G E C 7 N M d k k a.-X>Xl.c.x.I C h.G P I g.8.B E U c 0 S y.l 4.d k k k = s k D L Q J 9 B S M G H G I G g k 5.A z 8 6 ",
", 5 : : : : : 6 0 s a a l ..l k d l e > e h h a e h j a : : s P 7 l h a > : > a a a p : : : & * * 6 p p p a p a d : > d 5.L , * ",
", 5 : > : p e a h h h ..} | ] e - > r ] j  .j r r j j u h h h C < l  .j > e > a h h a e e : & & > e a a p a a r a a e h l c # * ",
"@ = p a a h h a a h | | h r e > h h h [ [ [ u j [ ] ] [ ] [ l 8.< j j ] h a e e e h e > e p p e l l j h l a h h a j a h A x , : ",
"@ 6 = a > a h a r a j h a j r h j u u j [ j j u u u u u j { } H 5 r h j { [ [ h h h r e h h a h | | h j a h h j h a a h A V , 6 ",
"# : : > > e e a a e e h j ] r r h u r r j ' j ' ] j u ] { ' j D s h ] j j u r u h u h j j  .j r h ] ] h h j j h h h e a l N $ p ",
"# = : > > e a r a a a > e [ ] j j [ j j u ] j w w r i ' ' { { l p j j ] i h u u j j j { ] j a j ] j h a j j e e a ] a e } c + : ",
"# O % : > e e a a a h a h r h [ j u u { { ' i u u u i i X.X.X.l a w u ' { ' j u u u { { r r h ] h h a h a h h h j ] j e s 4 X : ",
"# X X X @ , , @ @ @ @ @ @ * % = = & & > e w > > w w q q w w a 9.k - ; r w w w w ; - ; > > > : > : & % = & = O o O % = * 2 z #   ",
"K R Q P E j.j.N C N B 9 B P 0 < 0 D D A 4.....5.5.| } l h ] ] } } } ] | } 4.l l l l l d A Z s < 2 2 < < 2 2 9 9 4 9 c N c x x 3 ",
"0.0.q.Z.n.5.0.0.N.n.n.4.u.I.F.8 S I.J.S.@XXXC.C.@XS.H.B.O.M.v.O.v.M.J.OX#X@XS.S.H.S.G.t.m.u.8.S g.g.I G p.S x.h.x.;X;Xh.x.k.f.p.",
"h j j j j h u h j j j { { +.m.k e X.o.o.o.$.:.:.<.:.;.o._ _ o.` _ ;.o.:.:.:.:.;.;.2.:.,.C.+X4.k h j a j h p p l l a a h p h d a ",
"h h r h j j j u u u i { { o.b.l r o.;.$.` ~ ) <.1.$.` :.<.1.%.1.%.` 1.1.<.%.1.$.;.$.` :.2.+X5.d u r r r e e r e > h h h j e h r ",
"l h j j h r u [ ] j ' ] / o.V.} i o.` %.$.$.%.$.) %.:.$.1.=.=.1.1.$.%.%.%.` %.1.%.` ` ` :.+X4.a j j u h r e e a r j j a e : a a ",
"h h u h r e u j j j { i X.;.2.} i ` $.$.) $.%.=.$.$.%.%.=.%.$.=.!.-.$.$.$.%.` ` %.$.` ( :.OX5.e ] ] u h u u r h h r > e a a > > ",
"h j h h j u u i u { X.X.o.;.,.] t ` ) ) ) &.&.&.&.&.#.@.#.#.=.=.-.-.*.-.-.*.&.&.#.%.$.) =.XX..e i ' ] ] j j j h > > r e e a e e ",
"j j h h j h j i u ] { o.o.;.2.' ! ) #.#.&.*.*.&.&.*.&.&.*.*.*.U.U.U.T.U.T.U.*.*.*.&.&.&.-.oXv.r i { X.i j [ e > e j h a a r a a ",
": e h r h w r w j ] ^ o.o.;.;.{ ! ) &.&.U.R.Y.R.R.Y.R.Y.U.&.&.*.U.T.U.T.T.Y.R.R.R.U.-.&.-./.>.e r u i { ' h u j e > e h h e : : ",
"o O O O % & & & : e e e w u X.` ) #.*.U.T.W.E.E.`.`.E.W.U.*.&.#.#.Y.Y.R.W.E.E.`.E.W.R.*.#.%.` { w q > : : = : = & = * * * @ @ o ",
"n n J c N N B B B g k 7.5.O.>.=.-.T.R.W.'..X&X*X&X&X X`.E.W.U.U.U.W.Q.'..X$X&X&X$X X'.W.Y.U.=.:.+.O.k g B H I S M G P P 2 4 z 4 ",
"x f.l.K.D.N.0.r.N.L.A.C.o.2.^.(.W.].[.|.&X<X5X8X8X7X2X*X.X'.Q.R.R.[.$X=X1X6X6X6X5X1X*X.X].Q.W.!.3.>.q.q.q.m.q.n.v.4.w.e.w.V 2 6.",
", s h ] j { ' ' u j { X.~ $.-.-.W.[..X=X4X6X4X<X,X,X<X4X2X*X'.`.[.$X<X5X1X=X=X=X<X2X2X,X$X`.R.T.%._ ^ { { { j h h a h j 0.L $ d ",
"@ h u i ] ^ i ] u u ^ o.` $.%.-.R.}.*X2X6X,X=X.X|..X$X*X1X2X*X.X$X<X2X,X&X.X|..X$X&X<X6X*X|.W.-.) ~ / { ] j r e e h e h l C $ e ",
"@ l j u ] ' ] i u i / _ ` $.=.-.W..X<X6X=X$X$X X}.}..X.X$X,X2X=X<X2X=X$X$X X|.{.|..X&X<X2X*X`.-.@._ / ^ ' u r r r e e e l N # a ",
", h r u ] i ] u u t / / ` $.%.U.`.&X2X2X$X$X X[.Q.Q.].{..X.X=X2X4X*X|.|.[.Q.Q.Q.). X.X*X5X=X}.T.=.` / i ^ { ' h r r r > } B # a ",
", h j ' ] u u i i ^ o.o.;.` =.Y.'.*X5X<X.X X).W.R.R.R.W.).`.|.&X&X}.[.Q.R.T.Y.R.R.Q.|.&X4X,X XY.=.) _ ^ ^ { ] j u e a j ..P $ e ",
", p j { i ^ ' X.{ o.o.o.` :.1.W.'.=X5X=X.X XW.Y.T.U.T.T.R.W.].'.'.].W.U.U.U.*.T.T.W.|.&X2X,X XY.%.` / / ^ u u j u e j j 0.M + a ",
"+ > ] u i { i ^ X.X._ o.;.;.=.W._.&X4X<X$X X).W.T.U.-.*.U.R.R.W.Y.Y.U.*.*.&.*.*.Y.W.}.&X2X,X[.U.%.` / ^ ' i u u r r u e p 7 + % ",
"+ . O * : : - > r r u i y / $.T._.&X2X2X.X}.Q.Y.U.-.&.&.&.*.U.*.*.*.*.&.&.&.*.*.T.Q..X&X5X,X[.-.) ^ u w ; - - - & % O O 7 c +   ",
"N c P S D S D k k 5.r.q.X.o.<.U.W..X2X6X$X XQ.T.*.&.&.#.&.&.&.&.#.&.&.&.&.&.*.U.T.`.$X,X7X&XE.=.` ] j j d a d s 8 8 8 0 9 N c 9 ",
"z.P.K.D.M.F.B.B.L.Z.A.b.OXOX^.-.Y.'.,X6X=X.X[.Y.*.&.&.#.#.#.#.#.#.#.#.#.#.&.*.T.W.{.&X1X5X%XE.-.:.>.v.v.+.0.y.9.6.9.8.D d D y.4.",
"k } j {  .] j { { X.X./ ;.2.!.-.U.].$X1X4X&X XW.U.*.&.#.#.#.@.@.@.#.#.#.#.&.*.R.]..X*X6X,X].W.=.%.o.o.X.X.{ j j h ] p p a h h > ",
"u ] { { ' i ' X.X.X._ _ ` :.$.=.*.Q.}.=X5X,X.X[.R.*.*.&.#.@.@.@.@.#.#.#.&.*.T.]..X&X3X1X$XE.T.&.%.o.X.{ ^ { { u j h j r h h > = ",
"j j u u ] j i ] { ^ / _ o.;.<.%.&.R.`..X,X4X=X.X[.R.*.&.&.#.@.@.@.#.#.&.*.*.W. X$X1X6X=X XQ.*.@.$._ { { i { ' ] [ ] j a j ] a h ",
"] j u j j i i i i ^ / _ o.:.3.$.#.Y.W.].$X<X6X*X.X{.W.*.&.#.#.#.@.#.#.&.*.R.[..X=X6X<X.X].R.@.( ` X.^ ^ { { ' j h j h r e e e h ",
"j ] u u u u j u i ^ o.o._ ;.3.` ) *.-.R.`.&X2X5X*X.X{.W.*.&.#.@.#.#.#.*.W.[..X*X2X,X$X].(.R.$.~ ` X.^ ' u j u r r e h ] e e a ] ",
"h j [ u j u u r i { ^ X./ ;.^.$.` =.-.T.W.{.&X1X5X*X.X].R.U.&.&.&.&.*.W.{..X*X2X,X.X{.Q.Y.~.<._ o.X.{ ] i u u h j j j a h j a a ",
"h r j r u h [ ' i i ' ^ ^ o.3.;.! ( =.-.U.Q.{.$X<X2X*X.X].W.T.*.-.*.R.[..X,X1X=X.X[.W.U.-.^.2.^ ^ { ^ i u u u u u h h r j j j r ",
"* & = = : : = = & & > e e r { o./ y ! ( #.-.W.]..X,X3X=X.X[.W.T.Y.W.[..X,X4X*X.X{.(.-.%.$.` +.{ w > > : : : = & * * 5 * * * * % ",
"v T J n L c 9 9 9 0 f Z D l 5.O.+.o.;.;.:.=.T.).[..X,X5X&X X{.].].{. X=X4X=X.X[.W.R.!.:.:.o.O...l a g B G c c V N P L Y x z z z ",
"m Q I Z D s.l.9.z.y.y.N.q.b.>.,.3.3.3.^.1.!.T.(.).]..X,X3X*X$X.X.X$X,X5X,X.X[.).(.1.1.^./.1.;.>.0.0.n.F.7.7.u.i.6.8.8.k.Q K x Q ",
"3 7 6 6 e h h h h j  .j ] X.{ o.;.;.;.$.%.1.1.-.R.).{..X,X5X=X.X.X,X5X=X X].).~.=.$.$.;.` o.;.o.] j ] ] h a h l h a > 6 7.c 1 d ",
"@ s a e p > > r h j {  .O.X.^ / / o._ _ ` $.<.=.-.T.(.]..X,X4X<X,X5X=X|.].R.R.-.%.$.` ` o.o./ { { i u u r r > > e > > e d c $ % ",
"< s > > a h e h j [ h ] { ] ' X./ _ X._ o.;.$.%.%.-.T.(.].}.=X5X4X=X.X{.W.-.$.$.:.;.;._ _ o.X.X.{ ' { h h r e e > > : h k x $ d ",
"< < : > e e a a r a h u i { o.o.X.X.X.X.o.o.` $.%.$.=.T.~.].}.&X*X}.].W.T.%.) ` _ / _ o.;.;.o.^ u { j j a h a a p > a a 4.c X a ",
", s : e h r e a h a e j { { { / X.X.o.o./ X.;.;.:.$.%.%.=.T.).`.`.Q.U.=.$.) ` _ ^ ~ / o./ X.{ i j i j r h a p > > e a a Z x X > ",
"< p a a e a a e a a h u { ' { { ' i ^ ^ / / o.;.<.<.:.%.%.-.R.(.R.-.=.$.) ` _ _ _ / X./ ^ ^ { ' j j r r h e a a a a a a 8.c X = ",
"2 = > h a p > h j j h e j ' j i i { { ^ o.o.X._ ;.` ` $.$.%.%.%.=.@.$.$.` ` X._ X./ / X.o.X.' ] j u ] h j j a > = p a e g x X & ",
"3 . o O % % % & = : : & : : - > > w r w w r r r t t y y y ^ ^ o.X.y t t u r r r w q q e q ; > : - : = * % * O o . o o o 1 z X   ",
"b 4 x 4 3 c x 9 , < < < 5 0 M 8 f d d k k l h l l ] | | ] [ { O.{ h ] h h l h l A d d g s 5 7 9 c 9 c 3 n c 4 3 3 4 3 3 x c $ $ ",
":Xj.f.U p.g.8.A 7.0.t.e.0.q.e.c S d.m.v.+.b.V.b.V.V.,.,.2.2.V.2.2.2.V.C.C.V.>.>.V.b.b.m.b.m.P c V 6.D S 8.S I f.H g 6.7.l k g.8.",
"g l l } l d a j | j ] j h O.n.P B j O.{ ' { o.>.X.X.{ X.o.o.X.>.;.o.X.>.>.{ X.X.o.X.{ +.>.Z.P < d h a p p 6 s d k a p 6 > e l k ",
"h u h h r - > h h h r h u ] ..V 8 w ] ' X.^ ^ { ' ] ^ ^ X.{ { o.o.X.X.X.{ { X.o.' { { X.^ m.P , a a : > e > : > > a a : > p : : ",
"j h a e h a a h e r h j ] [ u.P 6 j ] j j i u j j { { ' { o.o.{ ' / o.X.o.X.X.X.' i { o.' q.P 7 > e : > a e > h p p p > p a a a ",
"j h h j h r r h h j ] j ] ' t.Q 5 j u u j ] ' ' X.] ' { X.X.{ X.X.i i { { { j ] ' ' ' ' ] +.P 1 : p a e h ] a e > : > e a a e e ",
"] j h h r = e h h j u j { O.0.W 8 [ j r j j ] ] ] ] { { ' { { ' { { ] i u i j ] ' X.X.' '  .B , e h e > j h a a a a h a : e : : ",
"e h h a h a e h r h ] j j j 7.L 8 h ] j u j { { { { ' ] { X.X.{ ' ] ] { ' ] u u j X.{ { X.O.V < a a e a p > h h j h a p > > e h ",
"h h h r e a j j j a h h r ] 7.c 2 : j j [ ] { { { j ' j j { X.X.' ] [ j j j u j i ' j ] j O.K $ : a h h a a a h a : e > > h h a ",
": & = & & = : : : & % % % : f J c O & : > e e e e e r r > - > > > > > > : > > > : - - > - s Y x O * = : & = & * % O % O o O * * ",
"1 x c x n x n m K 3 z x L L C P K x J K J 9 0 8 8 N c 8 C c V 9 < < c 0 0 0 9 L L B B C L R K K x 1 x 4 3 m x n Y 4 3 x z x 3 z ",
"K C B G g.8.g.D S A y.u.y.9.w.e.l.z.i.0.5.7.y.4.y.9.5.} 7.8.p.J K P 9.u.y.y.9.9.u.N.0.w.y.p.S 8.8.g.6.9.u.9.9.g.D k 6.y.H x 3 M ",
"c s p p d d a a j j ] a a h a j ..| h h j ] j h h h h a a h k J c p a ] j j h h j j j [  .] j j a a a ] } j h d p a p p k c 1 s ",
"2 d p > > > - > h h j h h r h h j j r j j [ j r w j j a > e d L c e e e e r r ] j r j r r j h h ] h a r e a h a l : & p l L $ p ",
", d h a e e > e r e e e h h h a r e r r r r h j j j j a a e k Q 7 e j h h a e a h h { j e j h j h h h > = : e e p > a a A Y $ : "
};
