/* XPM */
static char *_b22ce01a35042b4ab15849ef839dae6W8hOcGJf4Et20IIF[] = {
/* columns rows colors chars-per-pixel */
"64 64 145 2 ",
"   c #39352E",
".  c #3D3932",
"X  c #423E36",
"o  c #433F38",
"O  c #46423A",
"+  c #4A453D",
"@  c #4D483F",
"#  c #4B4740",
"$  c #4E4941",
"%  c #524D44",
"&  c #544F48",
"*  c #565047",
"=  c #565249",
"-  c #5A564D",
";  c #5D584F",
":  c #5B5750",
">  c #5E5A51",
",  c #605A4F",
"<  c #625D54",
"1  c #666057",
"2  c #686257",
"3  c #676158",
"4  c #6E675D",
"5  c #6F675D",
"6  c #6E675C",
"7  c #6E675E",
"8  c #6D675C",
"9  c #6B645A",
"0  c #6E685C",
"q  c #6F685C",
"w  c #6E685D",
"e  c #6F685D",
"r  c #6E685E",
"t  c #6F685E",
"y  c #6F695E",
"u  c #6F695F",
"i  c #6F685D",
"p  c #70695D",
"a  c #71695D",
"s  c #70685E",
"d  c #70695E",
"f  c #70695F",
"g  c #706A5E",
"h  c #716A5E",
"j  c #716A5F",
"k  c #726B5F",
"l  c #736B5F",
"z  c #736C5F",
"x  c #716A5E",
"c  c #726A60",
"v  c #726B60",
"b  c #736B60",
"n  c #726B61",
"m  c #736B61",
"M  c #736C60",
"N  c #726C61",
"B  c #736C61",
"V  c #736D62",
"C  c #746C61",
"Z  c #746D61",
"A  c #756E61",
"S  c #746D62",
"D  c #746E63",
"F  c #756E63",
"G  c #766E63",
"H  c #766F63",
"J  c #776F63",
"K  c #756F64",
"L  c #766F64",
"P  c #746D62",
"I  c #777065",
"U  c #777065",
"Y  c #787064",
"T  c #797164",
"R  c #787065",
"E  c #797266",
"W  c #7A7266",
"Q  c #7A7366",
"!  c #7C7467",
"~  c #7D7467",
"^  c #7A7266",
"/  c #7C7568",
"(  c #7D7568",
")  c #7C7569",
"_  c #7E7568",
"`  c #7E7569",
"'  c #7D7669",
"]  c #7E7668",
"[  c #7E756A",
"{  c #7F776A",
"}  c #7F776B",
"|  c #7D7569",
" . c #7F786C",
".. c #80776B",
"X. c #80786B",
"o. c #80786C",
"O. c #81796C",
"+. c #817A6D",
"@. c #827A6C",
"#. c #827A6D",
"$. c #837A6D",
"%. c #837B6D",
"&. c #837A6E",
"*. c #837B6E",
"=. c #837B6F",
"-. c #857C6E",
";. c #847C6F",
":. c #857C6F",
">. c #857D6F",
",. c #827A6D",
"<. c #857D70",
"1. c #867D70",
"2. c #867D71",
"3. c #867E70",
"4. c #877E71",
"5. c #877F71",
"6. c #867E70",
"7. c #887E71",
"8. c #897F71",
"9. c #887F72",
"0. c #887F72",
"q. c #878072",
"w. c #888073",
"e. c #898073",
"r. c #898173",
"t. c #8A8274",
"y. c #8B8274",
"u. c #8A8275",
"i. c #8B8376",
"p. c #8C8375",
"a. c #8C8376",
"s. c #8D8476",
"d. c #8E8577",
"f. c #8B8274",
"g. c #8E8578",
"h. c #8F8678",
"j. c #8F8679",
"k. c #8F8678",
"l. c #90877A",
"z. c #908779",
"x. c #91887A",
"c. c #948B7D",
"v. c #968D7F",
"b. c #978D7F",
"n. c #938A7C",
/* pixels */
"4.$.e.l.j.v.i.4.c.j.$.4.j.v.j.$.q.x.$.4.;.i.9.$.;.;.d.d.a.9.$.e.$.d.e.i.x.e.4.4.$.4.x.j.) ! j Q ;.4.4.$.Q 4.$.) ) 4.@.Q $.;.) j ",
"j.K 9 S u 9 < 8 S 8 < u j S u 9 9 1 < 9 u S 8 $ ! a.n N 8 9 N S S 9 9 I Q 8 Q N n Q S 9 S n * 1 4.$.S K S u 9 9 n n 8 8 u j < 1 ",
";.< 8 N 8 1 - < 1 < < < 3 9 1 3 < < < 3 9 < > o ) ) 1 9 9 1 9 9 < < j S 9 u S j n 9 < 9 u ; o 9 j.S 8 u 9 2 1 ; 8 9 1 8 1 u ; $ ",
"$.N u 3 8 3 > < 1 1 9 9 3 < < < 3 9 3 < < 1 1 o $.S 8 9 9 9 9 9 9 u K 9 9 j S j 9 9 u j 9 ; + ;.;.n 8 u 9 9 < 9 u 9 9 u 8 u < $ ",
"$.1 < 9 < > < < 9 9 9 < < 3 1 3 9 9 < > 3 > 9 + $.8 9 < 1 9 9 9 1 9 9 < 1 u j j 9 8 u 9 9 2 % @.9.j u 9 < 2 9 u 8 2 8 9 9 8 < + ",
") 3 < > < < 1 < 9 < 9 9 1 < < 9 3 9 < 9 9 < 9 $ $.u < 1 9 9 9 9 1 u 9 9 n < 9 9 9 9 u u u 9 + ) ;.j 8 9 1 u 1 9 9 9 9 2 u 9 - @ ",
"$.1 < 3 < < 1 1 8 8 8 9 3 3 8 9 9 < 1 3 < < 3 X n 8 8 u 1 8 1 9 1 < 9 j j 8 9 1 9 9 j 9 8 9 @ j ) j 8 8 j 9 2 j j 9 u n j 9 * $ ",
"Q * O + + o $ = $ & % @ $ $ % % % + + O O + O . ) 2 O $ * & % % % % & * % + + $ O $ $ % % % . S j $ $ & * + @ & $ * * % $ O   % ",
"i.) 9 u j 9 S z 2 < < < < 1 j j u < 9 9 j j 9 S 9.$.S ) n 8 u j N j 9 2 9 9 9 2 < < 2 9 9 < 9 ) ) 2 n 9 9 9 9 < 1 9 < ; ; ; 2 Q ",
"4.$.$.e.4.) $.$.$.I Q 8 $.v.$.S I I K $.) I ) S n Q ) S u n u S S Q 8 S v.j.) 8 ) Q ) S Q Q  .S I Q Q n S S Q 9 j Q 8 u j 8 9 9 ",
"I u 8 j 8 u u u n u j @ Q Q < 3 > < 9 8 > > < < < < > - * - > < < 3 $ u d.9 < > < ; < < 1 9 < > > < 1 < < < < - > - % * > - * % ",
"u u 8 9 N j j 9 u j u + ) 4.3 1 < 3 3 9 > < < < > < > > > < < < < < O 9 $.3 9 < = < 1 9 1 > < < ; < < < < - = ; - * % - > ; - - ",
"8 9 n j u 9 9 9 j j 9 + ! ) < < < 3 8 3 < < - < ; < > > < < > < > < O 9 @.< ; < > < > < < - < < ; < < < - - < - > > % < > > - & ",
"u 8 n 8 9 9 9 < 9 9 1 O Q $.< < < < 3 < < > > > > > > > - - > < < < + 9 4.> < 3 < > > < < - < < < 1 < - - < > - > - * - ; - - - ",
"u 8 9 1 < < < 9 u < > O ) Q < < 1 3 < > < > < < - > - - > > > < 1 3 % ; ;.< 1 < > < > < < < 1 < < 3 1 < > > ; - - ; * > > - > - ",
"- * & % $ - % & - * +   ) j O $ % + # + % % $ O $ $ $ # + + $ O $ $ o j Q * * % % $ % = $ % % % % % % $ O # + + $ + % $ + $ + + ",
"< 2 j 9 j < < 9 9 2 < j =.9.9 8 9 1 2 9 1 , - ; < ; < 2 9 S S 9 9 9 S @.e.9 * % % % = & - < = % % ; - % * - ; < ; = * % = ; * % ",
"d.v.4.Q $.) $.) $.$.4.=.$.$.@.) ) ) $.4.) $.S S e.l.i.;.a.$.Q Q 4.$.4.;.4.4.$.=.! ..4.4.e.$.j S ) 4.$.) ) ) ) ) I ) Q Q @.j Q j ",
"d.S < > < < < ; < < < < < - > > < < 3 1 < > - + @.4.8 8 9 9 1 n j j S N S j n j j n 8 n j j % j @.9 1 ; - > - > ; * > 3 > ; ; O ",
"x.N < 3 1 1 < < > > < > - < 3 < > < 3 < < < < O 9.$.9 < 9 < 9 9 1 9 j u N 9 2 j u 9 9 8 j S = 9 9.9 - - > = - - - - > > = < * o ",
"c.u 1 9 9 9 < < 1 < 1 < > 1 3 < < < < 9 9 3 < O 9.=.1 < 1 < 3 < 1 9 9 j n 9 9 n 9 9 8 S S N = 9 e.1 < < > - : * - * - > < 1 = @ ",
"n.1 3 < > < < > 3 - 1 < > 3 1 > < < < < < 1 < + 4.$.3 9 8 9 < < 9 9 9 9 9 9 n j u j S N j j % 1 e.< < > - - = - - * > 1 < < * $ ",
"e.n 9 > < 9 3 3 9 < 3 3 < < < < < < < 1 < 1 3 + ) Q 8 3 1 < < 1 9 9 < 9 8 u j 8 j 9 j 9 9 8 * 9 e.< > > - < * - * - < < > < * $ ",
"4.9 - * > = % - < - - ; * - ; - - - - - ; ; % . =.j < < ; > < < > ; < < , 2 < ; , 1 2 < < < @ < ! * % % - * % % % $ . + % +   * ",
"l.j * * % % - < - + $ @ $ % = - < < < < ; = - j d.Q ; , < - - * = , = % = = % @ & * & $ + % * z ! , * & * % $ < 2 = - < < ; 2 @.",
"e.$.) ) $.$.) ) ) $.@.S $.v.d.i.a.;.9.i.$.) ;.e.4.a.j.i.e.$.=.) 9.;.S ! e.;.) $.4.4.;.$.) ..$.@.$.S Q ) @.$.) $.) ) $.$.Q =.@.) ",
"8 1 9 1 < < > < 9 3 > < x.9.8 9 9 9 9 9 9 9 < 9 j 8 9 9 j u 9 2 n 9 % S x.8 > < < > > 9 > - - < < 3 < ; > - > < ; > ; < < - * > ",
"< 9 < < - > > 1 9 1 - * l.) < < 1 1 9 9 9 9 u 9 9 9 9 9 j u < 9 8 9 @ 2 $.< - - > - > > - - ; ; ; > > - - - ; - - - - * > * - - ",
"3 < < < > ; 3 < 1 < * @ d.) 1 8 1 9 1 8 9 9 9 1 < 9 < 3 u 9 2 j 9 9 O 2 4.< - - > ; > - * > > - > > ; ; - * * - - ; - - = * < > ",
"9 > 3 9 > > < > > < < @ a.Q 9 8 1 9 1 < 1 9 3 1 < < 1 1 9 9 9 9 1 < O 9 4.> > > < - < < - - - - ; > ; < > > > < - ; - > - - > ; ",
"3 9 u 9 < 3 < < < 1 < + x.Q 1 3 < 1 ; < 8 9 < < < 9 9 1 1 9 1 < 9 1 + < =.< - < < > < > > < < > < < ; - - > > > = * % * - ; ; - ",
"< < - ; - ; - < < > * O x.Q < < > < - < - < < < 1 < < < < < * < 2 < @ 9 ) - % % ; % $ * * & ; - % $ % - * * * $ * % % - - - * * ",
"$ @ - - % + $ $ + $ $ 1 n.Q ; % % & = * % % $ @ O O @ @ % = * & % O o j ..1 ; % % O @ O % $ % + O % $ % @ + % $ ; * - & % @ O o ",
"d.e.e.$.! 4.4.) ) $.4.e.9.e.=.@.4.e.;.e.;.@.e.j S ;.$.) 4.) 4.$.) @.) $.@.4.$.) ) ) $.Q ) Q Q ) =.d.) Q ) ) $.$.$.=.$.@.@.@.I ! ",
"x.$.n S j 8 S j u j Q Q Q S K j j I S S j j j * ) l.8 < < 9 < < 9 9 < < > < ; < < > < ; < < % < d.) N n u S 9 1 8 j u j j Q < < ",
"d.K 9 1 1 < 8 9 1 j N u u u 9 9 1 < 8 < 9 u 2 + d.S ; < < > < - < < > > < > ; - ; < ; < > < + < i.9 1 < 9 1 < j 9 2 9 n j j = - ",
"l.Q 9 < 9 1 9 1 2 8 j u u 1 9 9 9 9 8 9 9 8 < $ e.j < 1 < > > > < - < 1 > - * = > > < > < < % 2 ;.9 < < 8 9 9 9 9 < 1 u 9 9 * % ",
"l.Q 9 3 8 9 9 1 9 j 9 u 8 1 9 S u 9 8 8 9 9 < % 9.S < < < 1 < > * - < > * > - ; ; < < < < 3 $ < $.9 < 9 1 < < 9 9 9 9 2 8 9 - + ",
"4.Q u 8 9 9 < 1 9 9 8 j j j 8 j u 9 9 < 2 8 1 @ Q S < 1 9 < - - > < < > > > - > > 1 3 > < < + , $.1 9 9 9 9 9 9 9 9 9 8 j S ; O ",
"$.S 9 2 9 ; ; 1 1 < u 1 9 8 1 < > 1 < 1 < 9 < o ) u < 9 - * ; - < < > > < > > > ; < > ; < < O ; ) < < 9 9 9 8 1 2 1 9 2 9 9 $ O ",
";.< O O O + * * % % = * @ % % % % % % % $ $ O = $.< $ + + @ $ + + + O @ + + % % % % $ $ + O O 2 Q ; % @ $ O O % = % % % , - @ 9 ",
"4.4.) ! ! Q Q ) $.$.@.9 9 ) 4.;.$.@.) Q ) S ) e.d.a.$.) ;.) $.) ) ) S S @.4.9.a...$.;.) Q ) ;.$.d.l.;.Q Q Q ) $.e.$.Q $.$.$.@.=.",
"Q n N u u 9 8 S n u 9 - e.c.u < 9 9 < 1 9 3 < 9 8 9 < ; 9 j 8 8 j n ; 9 a.j 9 9 S 8 8 u j S j N S S 9 9 9 9 8 9 8 u 9 1 < 1 < - ",
"u 9 3 9 9 < 9 9 9 3 < @ a.Q > > 1 > - < < < > < < > - 1 8 < < 1 1 < $ z e.< < 9 < < 1 < 9 9 1 8 9 9 < u < 9 9 9 < < ; > - ; ; > ",
"n 3 < 3 3 < 3 < 9 9 < o ;.) 9 1 < < < < < < < < ; - < 3 < ; < > < < % 9 e.1 < 1 < 3 8 1 9 9 9 9 < 9 9 < 9 8 < < ; ; ; > < > > < ",
"8 < > 3 9 < > 1 < < > . ;. .< < > < < < > > < < > > < < < ; 1 < < < $ < 9.< < < < 9 9 9 9 8 9 9 u 9 u 9 1 < - < < < < < ; = - < ",
"9 - < 3 1 > < < 1 < > o =.n < < > > < < > - < 1 > > < < < < < < < < o < $.< < < 9 9 9 < 9 9 9 9 9 9 9 < < < < 1 > ; < < > ; < > ",
"9 < < 3 < > > ; < < < o ..N > > > < < < ; > 1 < < 3 < < < > < ; < ; + 2 ) 3 9 9 < < < 9 < < < < 9 1 9 9 < < < < ; - > < > < > ; ",
"+ O O O O O + + $ + O . 4.9 + + O o O O o + + O O O o O o O O + + O   j ) + o O o + + O O % O O O O o o     . . . O @ o .       ",
"9 Q S N Q Q ) ) I K S ) d.i.) Q j j Q $...$.) j j j Q Q Q $.$.) S j Q 4.d.$.S Y ) Q ) Q ) ..j j z S 9 < 9 n j u S Q S N u j 8 u ",
"j.$.9 9 1 N S 8 9 8 N 9 < j n 8 8 9 n 8 9 9 < < e.c.$.Q ) $.Q I ) Q Q ) Q Q $.$.) ) S S ) Q 1 9 x.S < 2 8 j 9 9 9 1 8 u 8 u 1 9 ",
";.9 ; = - > < > > > - = - > - ; ; - - ; < < * + d.$.2 9 j 8 8 8 9 2 9 9 < 8 j 9 2 9 2 9 u j - 2 ;.; - - - - - - - - - > - - $ ; ",
"4.9 - ; < < < ; - - > ; < - - - - - ; - > > * O 9.$.9 9 < 1 9 < 1 9 j 9 2 9 9 1 < 9 2 8 8 u % < 4.> - > - - - - - ; * < < ; % * ",
"$.1 - > > > - - - > - - - - < ; * * * - - < < + 9.) < < < 8 8 9 9 j 9 8 8 9 u 9 < u 9 9 8 9 % < ) < * ; - ; * * - - - > ; - $ & ",
"$.< > - - - - % ; - - - - - ; < ; - ; - > > ; O =.K < < < 9 9 j 9 1 1 9 9 9 8 N 8 u u u 8 2 * ; ) < - < - > - > > - - - - - % % ",
"$.< = - > - > < > > ; > > - > > - > > : - > > o $.I < 9 1 1 < 8 < < < 9 9 9 8 j 9 9 9 1 < < % - @.- - > < > > < ; > ; > < > $ $ ",
"$.* O O + o + $ + # O O O o O O O $ + + O $ o + e.9 - * + & * $ O + + @ $ O O & % @ @ + @ o . 9 S $ % $ + o O + + O O + + + . - ",
") @.S n S ! Q Q S u 8 9 < 9 9 n I ) ) ) n N ) i.a.9.) Q ! $.$.) Q S j j 9 9 ) Q N S 2 9 j S S $.;.@.) j < 9 2 9 9 < 1 j 8 S S S ",
"S N ) Q ) ) S Q Q S Q 9 @.l.) Q n S I Q K Q ) K @.$...) Q S ) ) ..Q 9 ..$.S S u n S S S Q N 9 S N S ) j S S Q S K Q K S u n I S ",
"> < ; 9 j u 8 8 < > < O ! ) > - - * - < < < < < 9 1 < 1 > < 9 9 9 1 % j Q > < < < < < 1 1 - > < < < < < < < > 3 8 9 1 < < < < < ",
"3 9 < 1 9 j n 9 1 < 1 + ) ) ; > > - 9 < - < < 9 9 1 1 < < 1 9 1 1 9 + Q Q > < 3 < < 1 1 1 ; 1 < < 1 1 < < 1 1 8 9 1 < < < < > > ",
"j 9 1 1 9 8 j j 9 < 8 O Q ) < > > 3 < - > > ; 1 1 < < < < 3 9 9 1 9 + 2 n > < < < < < < < > 1 < < < 9 9 < 1 9 8 9 1 1 < < < < < ",
"9 9 8 3 < < 9 2 1 9 1 O Q ) < < > ; > < < < > < 3 9 1 < 1 < 9 9 9 9 $ 9 I < 3 < < < > > < < < < < < 1 9 1 1 9 9 9 < 1 < 1 < < < ",
"9 9 < 1 < 1 9 < 1 < 1 o j Q < > < > < < < < < 9 9 9 > 9 9 3 9 8 9 9 O 8 ) 3 1 < < > > < > < < 1 > < < 1 < < < < 1 9 9 1 1 < < < "
};
