/* XPM */
static char *dbd2a9ffa1824796ee29a48bbd7c12c5aU1jeZbPEdSEyFbu[] = {
/* columns rows colors chars-per-pixel */
"64 64 211 2 ",
"   c #330400",
".  c #3E0600",
"X  c #340C01",
"o  c #3B0D01",
"O  c #3D1102",
"+  c #3B1505",
"@  c #440600",
"#  c #4C0600",
"$  c #450901",
"%  c #4C0A00",
"&  c #530600",
"*  c #5B0600",
"=  c #540B00",
"-  c #5C0B00",
";  c #431403",
":  c #4B1403",
">  c #461907",
",  c #4C1A06",
"<  c #451B09",
"1  c #4D1D09",
"2  c #541503",
"3  c #5C1302",
"4  c #541B06",
"5  c #5C1B05",
"6  c #551E09",
"7  c #5A1F09",
"8  c #650700",
"9  c #6B0600",
"0  c #630D00",
"q  c #6B0E00",
"w  c #740600",
"e  c #7B0600",
"r  c #730E00",
"t  c #7B0E00",
"y  c #641201",
"u  c #6C1200",
"i  c #631D06",
"p  c #6C1C04",
"a  c #621E08",
"s  c #741200",
"d  c #7B1200",
"f  c #741B04",
"g  c #7C1B02",
"h  c #741D08",
"j  c #46200B",
"k  c #4E220D",
"l  c #53220C",
"z  c #5B220B",
"x  c #4F2612",
"c  c #532610",
"v  c #5A2710",
"b  c #542913",
"n  c #5D2A12",
"m  c #672107",
"M  c #63240B",
"N  c #6B240B",
"B  c #65280E",
"V  c #6C290E",
"C  c #742106",
"Z  c #7C2206",
"A  c #73250A",
"S  c #7A2409",
"D  c #73290E",
"F  c #7C2A0D",
"G  c #622B14",
"H  c #6B2B12",
"J  c #732D12",
"K  c #7B2E13",
"L  c #743015",
"P  c #7C3316",
"I  c #71341A",
"U  c #7F3519",
"Y  c #7B3A1E",
"T  c #830500",
"R  c #8D0400",
"E  c #830D00",
"W  c #8C0D00",
"Q  c #950500",
"!  c #9C0500",
"~  c #930D00",
"^  c #9B0B00",
"/  c #821200",
"(  c #851300",
")  c #821500",
"_  c #861500",
"`  c #8B1300",
"'  c #891500",
"]  c #8C1600",
"[  c #831A02",
"{  c #8B1A02",
"}  c #931300",
"|  c #9C1300",
" . c #931B01",
".. c #9B1A01",
"X. c #A30500",
"o. c #AC0600",
"O. c #A30B00",
"+. c #AB0A00",
"@. c #B30600",
"#. c #B90700",
"$. c #B30A00",
"%. c #BB0A00",
"&. c #A31300",
"*. c #AC1300",
"=. c #A31B01",
"-. c #AD1C01",
";. c #B21500",
":. c #BB1300",
">. c #B51C00",
",. c #BB1E00",
"<. c #832205",
"1. c #8C2404",
"2. c #83250A",
"3. c #8C2708",
"4. c #852C0D",
"5. c #8C2B0B",
"6. c #942203",
"7. c #9D2403",
"8. c #9B2906",
"9. c #962509",
"0. c #9C270A",
"q. c #952B0A",
"w. c #9C2C0A",
"e. c #90300F",
"r. c #9C300E",
"t. c #822E11",
"y. c #892E10",
"u. c #833315",
"i. c #8A3111",
"p. c #823619",
"a. c #8F3719",
"s. c #84391C",
"d. c #8B3C1C",
"f. c #943414",
"g. c #9A3514",
"h. c #973816",
"j. c #9C3A17",
"k. c #A52403",
"l. c #AC2201",
"z. c #A42A06",
"x. c #AA2A06",
"c. c #A32B0A",
"v. c #AB2F0B",
"b. c #B52201",
"n. c #B82101",
"m. c #B42A06",
"M. c #BA2D0B",
"N. c #BE2F0A",
"B. c #A5320F",
"V. c #AD320E",
"C. c #BB300B",
"Z. c #A63512",
"A. c #AB3411",
"S. c #A13A17",
"D. c #AA3915",
"F. c #AB3D1A",
"G. c #B53513",
"H. c #B33914",
"J. c #BB3A16",
"K. c #B83C18",
"L. c #C40C00",
"P. c #CB0D00",
"I. c #D00700",
"U. c #DB0500",
"Y. c #D30E00",
"T. c #DC0C00",
"R. c #C31000",
"E. c #CD1100",
"W. c #C41F00",
"Q. c #CB1C00",
"!. c #D41100",
"~. c #DC1200",
"^. c #D71C00",
"/. c #E10700",
"(. c #E40D00",
"). c #E90E00",
"_. c #E31400",
"`. c #EB1500",
"'. c #E61800",
"]. c #EC1900",
"[. c #F31500",
"{. c #FB1500",
"}. c #F41A00",
"|. c #FC1C00",
" X c #C32201",
".X c #CC2200",
"XX c #C92906",
"oX c #C3310E",
"OX c #C03713",
"+X c #F72400",
"@X c #FC2300",
"#X c #FD2C00",
"$X c #FE3401",
"%X c #FE3C00",
"&X c #A4401C",
"*X c #A8421D",
"=X c #834325",
"-X c #924423",
";X c #9B4826",
":X c #A14521",
">X c #A74925",
",X c #A44D29",
"<X c #FF4400",
"1X c #FE4C01",
"2X c #FE5401",
"3X c #FE5B02",
"4X c #FE6403",
"5X c #FE6B06",
"6X c #FF6B09",
"7X c #FE7207",
"8X c #FE720D",
/* pixels */
"> z J H V P p.p.N N N N N F p.-X-Xd.d.d.K N s.s.L U u.D A S A N 5 F 5.6.6.s g [ g = u [ <.t.P D A A F F S 4.4.5.4.f C <.N z z 3 ",
": = = y y 3 y s s u s s g  .[ f f g y 3 y s g s s g u u - - s t.5 s g d s 0 q d s s y 0 y y 3 = = y y y y u y y u 0 y g <.V 1 % ",
"O = - 0 0 0 0 s ) d _ ' ' ] ) r * - q d ' _ ( d d ' d d d d d t.3 ( ` d r q r s d s q q q 0 - = - u s u s s s q d d u d [ N ; % ",
"O 3 y q y s d d s ) ` d d r q 0 d d s ' ' / _ d ' ' / / ' ' ) 4.3 ' ' d d r r q q s s q q u s s g d g g d s s s s g s s g N ; y ",
"O - = s s s d s s ) ) s s ' s s _ d r d ` / / t t d t r t ` _ 4.3 d / ' ` ( ` ( d d r q s s s q ) d s d q s d d s s d s g N ; y ",
"X = = 0 0 q q s d q r d / _ r q d d s d ' ` ` ' ( ( t t ( ( ) y.y d ` ' ( t r t ' d d d / _ d q s ) ) ) d d d s s s u r { N ; y ",
"O % - 0 0 q s d d s q 0 s _ ) s d d r d d / t r r t / ` ' ( ' 4.y r ( / / t t t / / / / d s q d d d s q d u 0 0 s s s s [ m ; y ",
"O $ # - q q r s s s s d d d / ) ' d t ( ` ( t r t t t t ` } } 2.y q t E } ' t t t r ( ` r q q d d q q s s s s s d ) ) r s 6 O = ",
"+ o o $ $ $ : $ $ $ # % % % % % = # & = - 0 - - 0 - - - - - 0 Z p # * - 0 - - - - = - - - - - = = = % = % % @ @ @ % # $ 5 6 o   ",
"H H K u.p.U s.D D m m 6 M H M , a A S S Z Z <.Z Z Z Z f y u p g g C f f Z S S C Z C S f C A i 4 6 z z 7 6 6 7 4 4 6 6 z B B l 1 ",
"8.7.x.m.x.k.z.w.B.Z.B.S a.F.Z.p A F.K.K.G.M.m.m.G.G.G.Z.6.6.0.{ 9.G.J.G.J.J.G.G.G.G.G.c.z.q.4.A h.h.g.f.f.f.g.g.g.j.j.h.h.h.h.f.",
"d ) d d d d d s d _ ' ] ]  .k.f q } } | | ~ &.;.*.| } ~ T E ~ ~ ^ | | &.=.&.&.| =.*.*.*.b.C.Z y g d s ) d g s g [ s u s s f g d ",
"d d s d d d / r r r t ` E W =.f 8 Q ! ! ! R R O.O.! Q Q +.+.O.+.O.! +.$.o.! O.O.O.^ O.O.;.C.g - 9 t r d r r r q 0 d s / s q d r ",
"d s d d r q r _ / d / d E ` -.g 9 Q O.O.! X.+.! ! O.O.O.O.+.+.+.+.O.+.$.+.O.+.$.+.^ O.O.;.N.Z y s d r d r r s q q d d s q 0 d s ",
"d s s s q 0 q d d d d r } } -.<.r Q ! +.X.o.$.+.X.! ! X.O.X.X.X.+.$.+.X.+.+.X.X.O.O.O.Q *.N.<.y d / d d t s d d d s 0 0 s d s q ",
"d d d s s q r r t ( ( ( } | -.g r Q Q ! X.o.@.o.o.X.X.X.X.o.o.o.+.$.$.+.%.$.$.$.+.+.O.! +.N.<.0 t / d d ( / _ d q 0 q 0 q s s s ",
"d d d d d d d d d ' E ` } =.-.[ e ! X.o.o.$.$.@.@.o.$.$.$.$.$.#.#.$.$.#.#.#.#.$.$.X.X.o.$. X1.0 t ` } d / ' s 0 0 d s s d s s d ",
"- q r _ _ r r r r t E | &.&.=.) e ! o.#.#.%.%.L.L.L.L.%.%.$.$.$.#.#.#.#.#.%.%.%.%.$.$.$.%.b.{ 0 t E t ` ` r r q 0 0 8 d ) q 0 - ",
"@ $ # # # # # # # & * 0 8 9 ' / e Q X.@.L.T./.).`.).).~.L.#.@.o.o.#.%.L.Y.T.U.U.U.T.T.P.$.^ E r 0 * - = = # % % $ % % % % @ $ . ",
"v G H H B N N A N i p S f [  . .| %.L.Y.).|.$X$X$X#X#X}.).Y.L.%.@.P.T.).}.#X$X$X$X$X@X'.Y.L.;.} ] g u p N N N N i D D V 7 l l l ",
"l Y ,X>X*XD.B.Z.D.D.H.V.=.=.,.,.Q.!._.|.%X3X6X8X8X8X5X2X$X}.(.P.P.`.@X$X2X6X6X8X6X6X4X1X#X[.^.Q.W.-. .w.c.v.v.x.8.1.1.B.r.N l p.",
"O y h g [ { ` d s s ) / T ~ O.+.P.'.{.<X5X3X<X<X<X<X2X3X4X2X@X}.}.#X2X4X3X1X%X$X%X<X1X5X3X#X_.!.L.^ W ( ' ` d s s 0 u _ [ N O f ",
"o s t E ' ' r / r r e W W ^ X.@.Y.|.<X5X1X#X@X|.{.|.@X#X%X3X2X#X$X3X3X%X@X@X{.{.|.|.@X%X3X1X@X'.P.X.~ ~ E E 9 q q q s d d N O d ",
"O d ) d ( ( ( r t t ` ~ ^ O.+.L.`.%X4X1X@X|.}.`.`.[.}.|.|.%X1X1X1X3X$X{.{.[.}.[.[.}.|.{.1X4X<X}.Y.$.^ ~ ` t r r r s q q s m ; d ",
"; d r r / d / r r r E W ^ ^ +.P.|.1X4X$X|.]._.~.Y.~.~._.}.|.$X3X3X$X|.[.'.~.~.~.~._.}.{.#X4X3X|._.%.^ W W ( / d r r q q g m ; d ",
"; s d ( ( r q t t t W ~ ^ Q +.U.#X4X1X@X].~.!.!.P.P.P.Y.~.~.[.@X#X[.].~.Y.P.P.P.Y.Y.'.}.@X2X5X#X(.%.^ ~ W ' / r r r r d { N ; d ",
"O y _ ` ( t d ( ' ' W ~ ^ X.%.T.#X4X%X{._.Y.P.P.L.L.L.L.P.P.~._.).~.P.L.L.L.%.L.P.P.~.`.@X<X4X#X/.%.O.W W t t t r r d _ { i O g ",
"O - ) d t / r r ' E E E ^ +.%.T.#X4X$X{.~.P.P.L.%.#.#.%.L.L.L.P.P.L.%.#.#.@.@.#.L.P.P._.@X1X5X#XT.%.! T T r r r r q d q s 5 o % ",
"O   @ # # # & & * 0 8 8 e Q $.U.#X5X$X|.~.P.L.%.#.@.@.@.@.@.@.#.@.o.o.o.@.$.@.#.L.P.Y._.@X1X4X#XT.+.9 * * & * & = & # @ 2 7 o   ",
"I l J J N m N p p Z 2.3.9...>.T.#X4X<X|._.P.L.#.@.@.o.o.o.o.o.X.X.X.o.o.@.@.@.%.L.L.!.`.@X1X5X#XU.*.) g f p p p i 5 5 5 z M z l ",
";X,X>X*XF.F.F.D.D.D.D.v.OXoXXX!.@X2X3X@X[.!.L.#.@.@.@.o.o.o.X.! ! X.o.o.o.o.@.#.%.P.~.[.$X5X4X+XP.>.z.c.z.w.w.w.q.5.5.4.A t.i.i.",
"h [ [ ] {  ._ ] .. .} } -.>.:.P.}.<X5X$X{._.P.%.#.@.o.o.o.X.X.X.! X.X.o.o.o.@.%.L.Y._.|.%X4X<X'.#.^ | .... ./ d _ { s y s _ u y ",
"q / ` ` ' ' } } | | | ^ O.*.$.L.).$X5X3X@X[.~.L.%.@.@.o.o.o.X.X.X.! X.o.o.@.#.#.P.~.[.@X5X2X@XT.%.O.| ` E ` } ( ' _ d s d ) q 0 ",
") d r d ( ` ` ` } } } &.*.;.;.$.Y.@X<X4X2X@X`.!.P.#.@.o.o.o.X.X.X.! X.X.o.@.#.P.~.].{.3X5X%X`.L.+.^ ~ E t ` ' _ ' d s s _ ) d d ",
"_ s r d / ( ( E E ` } | *.;.W.O.$.].|.1X7X1X|.`.!.L.#.@.@.o.X.X.X.X.X.X.o.$.L.~.`.|.3X5X<X`.L.^ O.| W E ' } / / d d s q q q u s ",
"d d d d t t d t E } &.&.| *..X=.! P.'.|.2X5X1X{.].Y.L.#.@.o.o.X.X.X.X.o.#.L.!.].{.<X7X3X+X~.:.E ^ | W E d t / / r q s d 0 0 d d ",
"s d _ d / d d d / ` | =.&.*.W.=.! #.!.`.|.3X4X<X|.~.P.L.#.@.o.o.o.o.o.$.L.!.'.{.$X3X2X@XT.E. XW ^ | ` } / d / / / d s q s u y q ",
"q q ' d / d ( ' ' ( E W ~ &.,.l.W X.%.!.].@X2X5X$X[.~.P.L.#.$.@.o.o.@.#.P._.[.#X4X2X#X_.L.R.n.E T W ` E t r d t r r s s s q 0 = ",
"% % = = = # = = = = - 0 8 9 ` k._ T R +.!.}.#X2X3X#X[._.Y.L.#.$.$.@.#.L.~.[.#X3X3X$X(.L.O.~  .d 0 - - = = = % % % % % % $ $ $ @ ",
"b G n n G n B B M 7 N A C [ {  . . .=.>.:.!.].|.1X3X#X{.~.!.P.L.L.L.P.~.{.#X3X2X#X].E.;.=... .1.<.p p D D N N V V V B H z z l l ",
"b I P F 5.;X:X&XS.S.Z.A.c.x.b.n. XW.Q.^.Q.E.~.}.#X1X3X$X{.].~.Y.!._.].|.%X3X2X$X}.!.R..X.X,.>.l.k.z.H.H.B.w.B.Z.q.1.e.a.p.D M d.",
", 2 y y s f g g [ _ { d ( ` | | | O.O.O.%.%.L.!.`.@X2X4X$X{.}.].].}.{.$X4X1X#X}.P.$.+.*.&.&.=.| ` } ] { _ d ) ] { _ u y g N 5 S ",
"; - 0 0 q q q 9 r ( ` ` | &.~ ~ ~ ~ ~ ^ O.+.$.%.Y.'.@X<X4X$X{.|.{.{.%X3X<X@X`.P.$.+.O.^ ^ | | } } } E t d r q r r s q q s M : % ",
"> u y 0 d s u s d ' ` } ` ` } ~ ~ ~ ~ ^ O.$.+.$.%.E._.@X2X4X$X|.{.$X4X2X@X~.L.#.$.+.+.^ ^ &.| | | | ` ( / s s s u q q _ g z ; s ",
"> = = 0 0 q q s d r t ' ` | =.} } ~ ^ O.O.+.+.+.+.#.E._.}.%X2X%X%X2X<X@X_.L.$.+.^ ^ O.O.&.&.| W E } ( / d d d q q 0 y s [ B ; g ",
"1 y 0 y u q q s d r r ( } } ' ` } | &.&.^ ^ $.+.+.+.$.L.~.[.%X3X3X%X[.T.L.$.+.O.^ ~ O.&.&.&.} W ' ` ' d s s s s q u s s g B ; y ",
"l y s s s s u q s s r r ( ( ( ' E W W ~ ~ ~ O.+.+.+.o.o.%.!.].#X#X].P.$.X.X.^ ^ ^ ^ ^ ~ ~ | } ` ' ( r r s u u d u 0 s s <.B O - ",
"l y s ) d q s ) _ _ ) r ( ( ( ' ( | } } &.*.^ O.O.X.X.X.o.$.L.I.Y.#.o.o.X.O.^ ^ ^ ^ ^ | &.| ` ' ( d ( ' _ d s 0 - d u u Z z O - ",
"< . @ % % % = = = = - = - 0 0 0 q 9 r r r r r w e e T T T R ! +.+.Q T T T e e e w 8 8 8 8 8 0 - - = = = % % $ . . $ @ @ z k X . ",
"b b b x k k k 1 , 4 4 2 4 i i i i f g g g g [ g g [ ' { _ ' } | } E _ _ ) [ g [ g f f p i 5 4 z z z 6 l n G z l l l k 1 l l 1 , ",
"=X=XY I F 4.Z g 1.q.q.w.9.z.V.N A v.v.x.k.l.-.-.>.>.,.>.,.,.,.,.,.;.>.,.,.>.-.>.>.b.b.l.x.A.K z J 4.4.4.4.i.i.i.i.S i.f.F C 3.5.",
"h f f g g s g d ) ) g g )  .7.p S { _ _ ` } } | } ` } } | | | *.*.| } | | ` | | | | } } | m.K 4 [ _ d s s u g g g g s u y y s g ",
"s s q s s 0 q s d s r r / `  .p i q / ` } ( ( ` ' ' ` ' } W } } | } | } ` ` | &.} ` } } } l.J 4 ) d q r s r q r s g u 0 - u 0 = ",
"s u y y y s s s s q d _ _ ( 7.K 5 s ( ' d / / d ( ` ` ` ` | =.} W } | | | | =.} t ' | | } k.K 6 s d q u g q 0 s u u u y 0 y y s ",
"s 0 y u s u u s d d d d _ } 6.u.m ' ( t d ( / ' } / E ' } } ' } | ` ( ' ' ( ' } ' ( ' ( ` =.K > q d s s d ) s q 0 0 y s u y 0 0 ",
"s u u s y - 0 s d d s d ` } 6.u.N ] / r d / / ' ' ' } ` } } } ` ` ` ' / t d / ( ( } } ( ( ..J : q s q q ) g s s s s s u = y - - ",
"- u u u s 0 q y u s d d s s 6.u.m s d d r d ' ' } ' ' ' } } } ` ( / d ` } ( t t t } } ( '  .H : s u s d s 0 u g d s s y y - y u ",
"s u y 0 u s g d ) s d s s { 1.D 5 0 ) _ _ ` .._ ( / d / ( / } } ' ( / ( ( d d ( / ( / ( (  .B ; 0 g d d s s s s s - - 0 - y u y ",
"% % % $ % % % = = % % % = - S J 5 % = - - 0 0 - 0 0 0 0 0 0 q 0 0 0 0 0 0 0 0 0 0 0 0 0 0 S V l % = = % % % % $ % $ @ @ @ $ $ $ ",
"+ < 1 l l z z G G < , 1 B V A A V 6 z z z 7 4 4 5 i i 5 N m B 6 , 4 z i i a M N N N N J J L D G 1 1 l l k c l b n l k k k k j k ",
"V V V 4.4.i.i.F C C 5.5.3.3.1.8.w.q.q.3.Z 1.q.3.3.5.5.3.5.5.y.B v I i.g.r.q.5.w.Z.Z.r.8.w.5.Z S 4.5.5.5.5.4.4.i.N C D p.P z 1 V ",
"N i y y f p p u s s [ u y u s g g f y y s s u s u u u y y g <.I B p f s g g g g g g g ) { _ g s u p f g g f u f u y 3 5 C l 6 p ",
"2 y y - 0 0 - - u g d u u q y s q u q s s d s - 0 d d q 0 8 g s.V 0 0 q q s d d d q s u q s s s d d s s u u s s s - % - p v ; y ",
": u y y y y y 0 0 0 - 0 s s s y 0 0 u 0 - 0 u s s s s s s 0 f s.z - s ) s y u u g d _ g q s s d g s s y - - 0 y - = y u p n ; y "
};
