/* XPM */
static char *_37bb18a9c7a41b6821eebc6fd331c0d1ftkikzIA1d10YZc[] = {
/* columns rows colors chars-per-pixel */
"64 64 149 2 ",
"   c #351F11",
".  c #2F2012",
"X  c #362314",
"o  c #3B2414",
"O  c #3C2817",
"+  c #342618",
"@  c #392718",
"#  c #36291A",
"$  c #3C2B1A",
"%  c #3E311F",
"&  c #3F3221",
"*  c #432614",
"=  c #492715",
"-  c #452816",
";  c #4A2916",
":  c #412D1C",
">  c #4D2D19",
",  c #512F1A",
"<  c #42311E",
"1  c #4F301B",
"2  c #55321C",
"3  c #5A341E",
"4  c #60371F",
"5  c #443522",
"6  c #4A3521",
"7  c #463926",
"8  c #4A3A26",
"9  c #4C3E29",
"0  c #563722",
"q  c #5D3720",
"w  c #543B24",
"e  c #5E3922",
"r  c #533F29",
"t  c #603720",
"y  c #633A22",
"u  c #693E24",
"i  c #4F402B",
"p  c #53442D",
"a  c #5C422A",
"s  c #5D482F",
"d  c #574730",
"f  c #584730",
"g  c #574830",
"h  c #5B4B32",
"j  c #654027",
"k  c #6D4026",
"l  c #6C4026",
"z  c #6E4227",
"x  c #6A4126",
"c  c #62442B",
"v  c #65432A",
"b  c #6B4228",
"n  c #6C4329",
"m  c #69452B",
"M  c #67482E",
"N  c #6B492E",
"B  c #704227",
"V  c #714327",
"C  c #71472B",
"Z  c #74472A",
"A  c #74482B",
"S  c #714A2F",
"D  c #784C2E",
"F  c #674E33",
"G  c #604E34",
"H  c #604E35",
"J  c #614F35",
"K  c #634D33",
"L  c #684D33",
"P  c #6C4F33",
"I  c #684F34",
"U  c #684F35",
"Y  c #6C4D32",
"T  c #724E31",
"R  c #635137",
"E  c #635237",
"W  c #675237",
"Q  c #645136",
"!  c #6A5034",
"~  c #6B5035",
"^  c #6A5135",
"/  c #6B5135",
"(  c #695337",
")  c #6A5337",
"_  c #6C5135",
"`  c #6C5235",
"'  c #6C5236",
"]  c #6D5236",
"[  c #6D5336",
"{  c #6E5337",
"}  c #6D5437",
"|  c #6C5236",
" . c #655439",
".. c #665338",
"X. c #685439",
"o. c #685539",
"O. c #68553A",
"+. c #68563A",
"@. c #6B573B",
"#. c #6E5538",
"$. c #6F573A",
"%. c #6C5539",
"&. c #6C583C",
"*. c #6D593C",
"=. c #6D5A3D",
"-. c #6F5A3D",
";. c #6D593C",
":. c #705236",
">. c #725336",
",. c #725336",
"<. c #7D5132",
"1. c #705538",
"2. c #715539",
"3. c #715638",
"4. c #705639",
"5. c #715639",
"6. c #725639",
"7. c #725739",
"8. c #735739",
"9. c #70573A",
"0. c #71573A",
"q. c #72573A",
"w. c #765739",
"e. c #725639",
"r. c #72583A",
"t. c #73583A",
"y. c #74583A",
"u. c #74593A",
"i. c #74593B",
"p. c #75593B",
"a. c #755A3B",
"s. c #705A3C",
"d. c #775A3C",
"f. c #715C3E",
"g. c #705C3F",
"h. c #715D3F",
"j. c #725A3C",
"k. c #7A5A3B",
"l. c #785B3C",
"z. c #785C3D",
"x. c #785D3D",
"c. c #7A5D3D",
"v. c #795D3E",
"b. c #785D3E",
"n. c #7A5D3E",
"m. c #7A5C3C",
"M. c #735F40",
"N. c #766142",
"B. c #796242",
/* pixels */
"*.$.b.p.U 7.p.p.p.r.r.p.7.b.b.$.} p.] 7.7.] 7.s.o.( l.p.7.d.] ] p.b.] K 7.( ] ] Y ( ] 7.7.7.7.*.*.7.b.b.] ] ( 7.7.7.( K U ] 7.J ",
"b.A u u y u u u q y u u u y y y u y 3 y y y 3 6 h.<.V V u l z z z y u u z y u u y y u y u u 1 f 7.Z u l z u u u u u y y u u 3 6 ",
"7.l 3 3 y y 3 3 3 y y 3 2 3 3 y 3 3 3 3 2 2 , o o.D y y y y y y 3 3 y u y 3 y y y y y t y y ; 8 k.u 3 y y 3 y 3 y 3 2 q 3 3 2 o ",
"7.u 3 3 y 3 2 3 3 3 q q 3 3 3 3 3 3 2 , 3 y y o o.C u y y y 3 3 3 y u t q y u y 3 3 y y y y > i 8.y 3 y q q 3 3 3 3 3 3 3 3 3 @ ",
"7.q 3 y 3 2 3 3 3 q q 3 2 q 3 2 3 3 2 2 y 2 3 X J m y y y y y 3 3 q 3 q 3 y u y 3 y q 3 y y 2 7 >.y y 3 3 3 2 y 3 3 3 3 2 3 3 @ ",
"7.y 3 3 3 q 3 2 3 3 3 3 3 q 3 2 3 3 2 q 3 2 3 @ h n t y y y q 3 q q t y y y t 3 y y y y u y , 5 >.u 3 3 3 3 3 3 3 3 3 2 q q 2 @ ",
"$.q 2 3 3 3 q 3 q 3 3 3 q 3 3 3 q 2 2 3 2 2 2 o p u u u t y 3 y 4 3 y y y y y y y y u y u y > 7 Y y 3 3 3 3 3 q 3 , q y y 3 , @ ",
"W 2 * * = * - = * - - - * * = - - o * - ; * * @ o.c ; - * * ; ; - - ; ; - * ; > - - - > ; = o p ( > * - * o * * o * ; * * o X & ",
"h.o.p p p 9 9 p p i p 9 9 i p p 9 8 p p p p 9 p h.h.h h d g p f f p i 9 p d p p 9 9 9 9 9 9 p R *. .f i d f p i f J p p p i f R ",
"N N T T T Y Y Y Y N m s *.n.,.N Y T T T N N Y m v M T N m N Y Y N N a J B.k.>.M Y m L N Y N Y j m N Y j m m N a j T Y T S M N N ",
"u y y u y 3 3 2 3 3 2 $ h.S 3 3 3 3 u 3 2 q 3 q q 3 3 2 , , 3 3 3 3 - i b.u 3 3 2 , q 3 2 2 2 2 3 3 3 3 2 > 2 2 3 3 3 3 y 3 3 2 ",
"y y 3 3 y 3 3 2 2 3 3 $ o.S 3 2 q 3 q 3 q 3 3 y 3 3 3 3 , 2 3 3 3 2 o 7 7.y q 3 3 2 2 3 3 2 y q 3 3 3 2 , , 3 3 2 > > q 2 3 3 3 ",
"u 4 q q 3 3 2 , q 3 3 $ h v 3 3 3 3 3 q 3 2 3 q 3 q , 2 2 3 3 3 2 q * 7 ] 3 2 3 , 3 3 3 3 3 3 2 2 q 2 2 2 2 3 2 2 y q 3 2 3 2 3 ",
"y 3 y 3 2 3 3 3 q 2 3 o d m 3 3 3 2 2 2 3 3 3 3 3 2 > 3 3 3 2 2 3 3 - 7 ] 3 2 2 3 3 3 3 3 2 2 3 3 3 2 > 2 3 2 2 3 3 2 3 3 , 3 3 ",
"y y y 3 2 2 2 2 2 > > X h v q q q q 2 2 q 3 q 3 2 2 > 3 q 3 3 y y 3 > & 7.q 3 2 3 3 2 2 3 3 q 3 3 3 2 2 3 2 3 2 2 2 2 2 2 3 y 3 ",
"3 , , > ; > - * ; ; o . h e - - ; - * - > > - * = ; ; - - = > ; > > o 9 7.> > > ; ; - > - ; ; > > ; ; > - * ; - - * ; ; ; > ; ; ",
"r 7 8 5 5 5 5 5 7 7 7 p  .o.p 9 8 7 7 9 7 7 7 7 7 5 p p 9 7 8 7 5 5 7 R B.K 5 $ $ % 5 5 5 7 7 7 5 7 9 9 8 7 9 7 7 p p 5 8 8 5 5 ",
"B.b.7.Y ] L _ ] ] ] 8.] >.Y Y ] ] ] ] k.>.>.L o.-.r.8.>.8.] >.U Y ] ] K Y >.U K K K ( ] ] >.U o.s.] ] ] ] ( Y Y Y e.] Y e.U Y W ",
"7.u 3 3 3 y y 3 3 q y 2 3 3 3 2 , 3 y t 3 3 2 < o.S 3 3 3 3 3 3 3 3 2 2 3 3 3 3 3 3 q t 3 y ; h ] 3 3 3 3 2 2 2 3 2 2 3 3 3 2 < ",
"7.y 3 3 3 q 3 3 3 2 3 , , 2 2 2 3 y q 3 3 3 3 o o.m 3 2 3 2 2 , > 2 3 2 3 2 2 3 3 3 2 2 q y > i ] 3 , 2 2 > > 2 2 3 2 2 2 3 > X ",
"] y 3 3 3 q , 3 3 3 2 , 2 2 2 2 q q 3 3 3 3 3 X  .m 3 2 2 2 2 > > 3 3 2 3 3 2 3 3 3 2 3 y 3 > 9 >.3 2 3 2 > 2 2 2 2 2 2 2 2 > @ ",
"] 3 3 3 2 2 2 3 3 2 2 2 2 3 3 2 3 3 2 2 3 q 3 o R m 3 3 3 q 2 2 2 3 2 2 3 2 2 3 3 3 3 q 3 3 * 9 >.2 3 2 2 2 2 2 2 2 2 q 2 2 > @ ",
"K q 3 2 2 3 y q 3 2 3 3 2 3 3 3 2 3 3 3 3 y 3 O f y 3 2 2 2 2 2 2 2 > 3 2 3 3 3 3 3 q , , 3 o p >.2 2 2 2 2 , , 2 2 2 q 2 2 , $ ",
"( 3 , ; , , , , , , 2 , > 2 2 , > , , > , 2 > X R y 2 , > > ; ; ; ; > > 3 3 2 2 2 3 2 ; , >   i Y , ; > , > > > , > - ; ; ; * @ ",
"M.p < < < : $ $ < $ : $ $ : < $ < : 5 $ @ $ < i &.K 6 < < < < $ @ $ @ @ $ $ < : : < < : $ : 7 f o.p 5 < < $ @ $ 6 $ $ @ @ $ 7 h ",
"d.} ( $.7.] K I $.$.$.R o.j.$.$.r.$.7.{ K I $.r.7.p.7.$.7.( $.I K K K ..*.$.( $.$.$.7.$.( $.( ( 7.d.$.( ( ( ( ( W } r.( K d.$.$.",
"l y y y y u y q q 3 3 < *.S u y q y y q 3 y y 3 u y 3 q y 3 3 , 3 q > p b.z q 3 u y q q 3 3 2 3 3 y q 2 q 3 q 2 2 3 q q q 3 2 3 ",
"y y y 3 3 3 , 2 q 3 2 @  .N 3 3 3 3 2 2 3 q q 3 2 2 2 2 3 3 2 > 3 3 * 9 7.q 2 3 q 2 > , 3 3 2 2 2 3 3 2 2 2 2 3 3 , 2 , 3 2 2 2 ",
"y q 3 3 3 , 2 3 3 2 ; X  .S 3 q 2 3 2 q 3 3 q 3 2 3 2 2 3 3 3 2 3 3 * 9 p.y 2 2 3 , 2 , 3 3 2 , 2 2 2 > 2 > 3 3 2 2 2 2 3 2 2 3 ",
"y 2 3 y 3 2 3 , , 2 , @ o.m 3 q 2 3 3 2 2 2 3 3 2 2 2 2 2 2 3 2 2 3 - i 7.3 2 3 2 2 3 3 3 2 2 2 2 2 > 2 3 2 3 3 2 2 2 3 2 , 2 3 ",
"3 q y y q 3 3 2 2 2 2 o h.v 3 3 2 2 2 2 3 3 3 3 2 3 2 2 2 3 2 > 3 3 - 9 ] 2 2 3 3 2 3 3 3 3 2 2 2 2 2 3 3 3 3 3 2 , 2 2 2 3 3 2 ",
"3 3 3 3 > , , 2 , 2 > X M.N 3 , , , 2 3 2 2 3 , 2 3 , > , > - 2 3 , * 9 ] 3 , , 2 , > , , > 3 > 2 , , 3 , 2 , , , > ; , 2 2 , > ",
"$ $ $ $ $ : : < $ $ @ i N.( 6 : $ $ $ $ $ $ @ X @ $ $ @ X X @ $ $ @ @ p h.p < $ < $ $ @ @ @ $ o o o o $ X X @ X o X $ $ : $ o o ",
"N.$.$.( ( r.$.K K ( $.$.r.$.$.( ( ( I ( ( I $.h ..*.) h K h ( W W ( ( $.( o.( ( r.$.$.( W K K @.*.o.K K I J ( W W W ( ( $.$.I o.",
"b.l q 3 q 3 y 3 2 2 2 2 q q q 2 3 q q y 2 3 3 w *.T q 3 y q 3 3 q q 2 2 q 3 3 q 3 3 3 q 3 3 > f b.n q q q y 3 3 q q 3 q 3 y 3 8 ",
"7.q 2 , 2 2 3 , , 2 > , 3 3 2 , , 2 2 > 2 3 2 @ *.v 2 q 3 2 3 2 2 2 2 2 , 2 3 3 3 3 2 2 3 3 = 9 8.3 2 2 3 2 , 2 , 2 2 3 2 3 , $ ",
"7.y 2 > 3 3 2 > 2 2 2 3 3 2 2 , 2 2 2 2 3 2 , o ..j 3 3 2 2 2 2 3 2 2 > 3 3 3 , 2 2 3 2 2 2 > i P 3 2 3 2 2 2 2 2 2 2 3 3 3 > $ ",
"p.y 2 2 3 3 , , 2 3 2 2 2 2 > q 3 2 2 3 , , , o W y 2 2 3 3 2 2 2 > > 2 2 2 2 2 2 2 2 2 2 3 = 7 Y 2 2 2 2 2 2 2 2 3 2 3 3 2 > @ ",
"7.y 3 3 2 2 , 3 2 2 2 3 2 2 2 q 3 2 , > , 3 2 X f m 3 y y 3 , 2 2 2 2 2 2 2 2 3 3 2 2 3 3 2 o 7 L 2 3 3 3 3 2 3 3 2 2 2 2 3 - @ ",
"] 3 , 2 2 , 2 2 2 > 3 , > , > > 2 ; > 2 2 , , X ..j 3 3 2 , 2 2 2 2 2 2 3 2 3 2 2 2 2 , 2 , o 9 L , , 2 2 , 3 2 2 2 2 2 , , o @ ",
"*.6 O o X o o o o o o o X o o o o X O : o o o %  .w O O o X O O o o X O o o o O $ o o o o o @ p J < : o o X X X o o o X O O X 7 ",
"s.h.o.J f p J h J J R f J R o. .K W R R W h ....*.*.o.R o.R o.W ..W R h h R W $.J J W J R o.*.o.*.h.o... .J R o.o.R h h J W W h.",
"j y y e e e y u u y q r B.,.j q y y q y u y y u l j l u j j m u j j 0 f p.m q q q e q q y j j q y l u y u e q y y j y q q y q e ",
"3 2 2 3 2 2 q 3 3 3 3 @ *.m 2 2 q 3 > q 3 3 3 3 3 3 3 q 3 3 2 , 2 2 ; p k.3 , 2 , > 2 3 2 3 2 3 2 3 3 3 3 2 2 3 3 3 , , 2 2 2 2 ",
"q 2 2 q 2 2 3 , 3 q , X o.m 3 3 3 2 3 3 2 3 3 3 2 3 q q 2 2 2 > 3 3 ; 9 e.3 2 2 2 2 q 3 , 3 3 3 , q 3 2 3 2 2 2 2 2 , 2 3 2 2 2 ",
"3 2 3 2 2 3 > 2 2 2 , X &.v , 2 2 3 3 2 , 3 3 2 3 3 3 , > 3 2 2 3 2 * 7 ] 3 2 , 2 2 2 3 2 3 3 3 2 2 3 2 , , , > , 3 3 3 2 2 2 2 ",
"3 , 2 2 3 2 2 3 q 2 3 @ ..q 2 q 3 2 2 2 2 2 2 3 3 3 2 , 3 3 2 2 2 3 * 5 L 2 , 2 2 2 2 2 2 2 2 , 2 3 3 , > 2 2 2 2 2 3 2 2 3 3 , ",
"3 3 3 q 3 2 2 3 3 3 3 @ o.u 3 y 2 , 2 3 3 3 3 3 3 3 3 3 2 2 2 2 3 2 * 7 Y 3 2 2 2 , , q 2 2 2 3 q 3 2 3 2 2 2 2 2 3 3 , 3 3 2 2 ",
"* O o O O o o X o o o @ *.a * = o   O * o o o X o   o O o o o o o o   p o.: o X X   X o o o O * o o X X   o o     o o X o X     ",
"g R h f f f h J f h d J M.*.R h p p f h p h W f p p h J h h J h f f R *.h...f h R f J h h h p d f h f p h J J p J h f g f h p 9 ",
"s.N y j j v N v y v v v e e m e e e v v v v j K o.,.m v y y e j v y y j e e m v j v y y v v 0 f B.N e y j v e e v y j v v j e J ",
"7.y 2 , 2 3 3 , 2 2 2 2 2 , 2 , 3 3 3 3 y 3 , : h.m , , , > q 3 2 2 , 2 , 3 3 2 3 2 , 2 2 3 - 9 8.y 3 2 2 , > 2 3 2 2 2 , 2 > 8 ",
"7.q 3 2 2 3 3 , , 2 2 3 2 > 2 2 q 3 3 2 2 > , o  .m 2 2 2 2 3 2 2 2 2 2 2 2 2 2 2 2 2 3 2 2 * 7 e.y 2 3 2 2 2 2 2 2 2 3 2 3 , % ",
"] q 2 , 2 3 2 > 2 3 2 2 , 2 3 q 3 2 2 3 2 q y $  .m , 2 2 3 3 2 2 2 2 2 , > 2 2 , 2 2 2 2 2 * 7 Y q , 2 3 2 2 3 2 2 2 3 2 3 > $ ",
"L 3 2 > 2 , , > q 2 2 2 2 2 3 q 3 3 2 > > 3 2 O  .j , , 2 2 2 2 2 2 2 2 2 2 2 q 2 2 > , q 2 * 5 L 2 2 3 2 2 2 3 2 2 2 2 2 2 > $ ",
"L 3 > 2 3 2 3 3 3 3 2 3 3 3 3 3 3 q 3 2 > 2 , O ..y , 2 2 2 2 3 2 2 2 2 , , 2 2 , 2 , 2 2 , * 7 L 2 2 2 3 3 3 3 2 2 , 3 q 3 ; $ ",
"( > O o o o o o o o o o * o o * * O * *   * o + h w * o o * * o o O o o o o o o o o o o * o   p ( = * * * o o * O o o * * o   5 ",
"h.o.f i i g f f p p d 9 9 p p p p p p d f f f R &.*.h f f p f d f p p p p p f p p f p p f p i ..M...f p i p p p p p p p 9 p h E ",
"N v N v M N j v M M v K o.8.N N m m c m j m N N Y Y N M m v j N Y M a ..( Y M m m m v N M N j N N N Y j m m N m N N m N v v N N ",
"3 2 3 3 3 2 2 3 2 , , @ o.m 2 , , 2 2 > 2 3 2 2 2 2 2 2 2 , 2 3 2 2 * 9 ] 3 3 y 3 3 3 2 3 3 2 2 2 2 2 2 2 2 2 3 q 3 3 2 , 3 3 3 ",
"3 2 2 2 , > 2 , > , 2 @  .v , , q 2 > , 3 2 2 2 2 2 > , 2 , 2 > 2 3 * p ,.3 3 3 3 3 3 2 q 3 3 2 2 2 2 2 2 3 2 2 2 2 2 > 2 3 2 3 ",
"y 3 3 2 , > 3 2 3 2 3 X h v , 2 2 2 2 2 2 > 2 2 , > > , > , 2 2 2 3 o 7 N 3 3 2 2 2 3 2 3 2 3 2 2 2 2 2 2 2 , 2 2 , , > 3 2 3 2 ",
"3 2 3 2 2 2 2 2 3 2 , o h v 2 3 2 2 2 2 , 2 2 , > 2 , > 2 2 2 2 2 2 O 9 Y 3 2 2 3 3 , > 2 3 3 2 2 2 2 3 2 2 3 3 2 2 2 2 3 2 2 2 ",
"3 q 2 2 , > 3 2 , , 2 o h v 3 2 2 , > > > 2 2 2 2 2 > 2 3 2 2 2 2 > o p Y q 3 2 3 2 2 q 3 3 2 2 , 2 2 2 2 2 2 2 , 3 2 2 , 2 2 2 "
};
