/* XPM */
static char *b5fbc301dac249c389be741ccef650e6bKFSAFPoOKfqLsc4[] = {
/* columns rows colors chars-per-pixel */
"64 64 173 2 ",
"   c #6E4B23",
".  c #734E24",
"X  c #794F21",
"o  c #6F502A",
"O  c #765126",
"+  c #7B5326",
"@  c #75542C",
"#  c #7B562B",
"$  c #77582F",
"%  c #7D592D",
"&  c #745630",
"*  c #775932",
"=  c #7C5C32",
"-  c #7C5F38",
";  c #7F6036",
":  c #7F633C",
">  c #815626",
",  c #855927",
"<  c #805729",
"1  c #845B2C",
"2  c #8A5E2C",
"3  c #815E33",
"4  c #8C612E",
"5  c #92642E",
"6  c #846136",
"7  c #8C6332",
"8  c #85643A",
"9  c #89673B",
"0  c #8A693D",
"q  c #916631",
"w  c #956934",
"e  c #9B6C34",
"r  c #936D3C",
"t  c #9B6E38",
"y  c #9E7037",
"u  c #9E7139",
"i  c #A17137",
"p  c #A4753B",
"a  c #A9773B",
"s  c #A7783E",
"d  c #AB7A3E",
"f  c #B17D3F",
"g  c #876B43",
"h  c #8C6D42",
"j  c #926F40",
"k  c #8B7047",
"l  c #8F734A",
"z  c #937345",
"x  c #9B7644",
"c  c #9F7845",
"v  c #94754A",
"b  c #96784D",
"n  c #9B7B4D",
"m  c #967A50",
"M  c #9C7E51",
"N  c #A67B44",
"B  c #AD7D42",
"V  c #A07D4D",
"C  c #AA7F49",
"Z  c #B17F41",
"A  c #B6803F",
"S  c #9E8053",
"D  c #AE8045",
"F  c #A7804B",
"G  c #AD824A",
"H  c #B48345",
"J  c #B98646",
"K  c #BB8847",
"L  c #B58649",
"P  c #B88749",
"I  c #B6884B",
"U  c #BB8A4C",
"Y  c #A38355",
"T  c #AC8652",
"R  c #AC8956",
"E  c #A58658",
"W  c #A7885A",
"Q  c #AC8C5C",
"!  c #B58C53",
"~  c #BC8E51",
"^  c #B38E5A",
"/  c #B88F58",
"(  c #AF905F",
")  c #BE9154",
"_  c #B5915D",
"`  c #BF975F",
"'  c #BC955D",
"]  c #BC945B",
"[  c #BF985F",
"{  c #AB8E61",
"}  c #AF9060",
"|  c #B79663",
" . c #B49463",
".. c #BD9761",
"X. c #BA9661",
"o. c #B79867",
"O. c #BE9861",
"+. c #BF9961",
"@. c #BD9862",
"#. c #BE9862",
"$. c #BF9A63",
"%. c #BC9A65",
"&. c #B39668",
"*. c #B79968",
"=. c #BC9B69",
"-. c #BD9C69",
";. c #BD9D6A",
":. c #BC9C69",
">. c #C08D4D",
",. c #C08F4F",
"<. c #C18E4E",
"1. c #C1904F",
"2. c #C2904F",
"3. c #C09050",
"4. c #C19151",
"5. c #C29150",
"6. c #C29151",
"7. c #C39151",
"8. c #C29152",
"9. c #C19253",
"0. c #C39252",
"q. c #C49352",
"w. c #C49252",
"e. c #C39354",
"r. c #C59454",
"t. c #C79554",
"y. c #C19254",
"u. c #C89655",
"i. c #C2965A",
"p. c #C4995D",
"a. c #C89B5E",
"s. c #C29961",
"d. c #C19A62",
"f. c #C29A63",
"g. c #C49B63",
"h. c #C49C63",
"j. c #C09B64",
"k. c #C19B64",
"l. c #C19B65",
"z. c #C29C64",
"x. c #C19C66",
"c. c #C59D65",
"v. c #C59E65",
"b. c #C59E66",
"n. c #C69F67",
"m. c #C39C63",
"M. c #C99E62",
"N. c #C19E68",
"B. c #C29F69",
"V. c #C19F6A",
"C. c #C59F68",
"Z. c #C19E69",
"A. c #C7A167",
"S. c #C7A067",
"D. c #C8A067",
"F. c #CAA166",
"G. c #C7A169",
"H. c #C7A36B",
"J. c #C4A26D",
"K. c #C6A46F",
"L. c #C4A16B",
"P. c #C9A168",
"I. c #C8A269",
"U. c #C9A36B",
"Y. c #C8A26C",
"T. c #CBA46C",
"R. c #CCA66C",
"E. c #C9A46C",
"W. c #C6A470",
"Q. c #C5A571",
"!. c #C8A570",
"~. c #C9A772",
"^. c #CAA974",
/* pixels */
"W.b.g.f.` D.P.D.b..._ k.T.T.P._ ^ P.h.b.C.k..._ ;.Y.f.` ` f.b.k.f.A.[ _ k.k.k._ F ^ +.+.+.f._  .;.V.+.b.' +.x.` _ +.) ! ` [ x.Q ",
"P.K H K K H U >.4.U B w.4.4.4.4.e.4.4.r.4.4.p 8 J.u.Z K H H K U K H K P 4.J 1.H J U J B U U 7 Y V.w.H U >.U U J J J H H K K H 8 ",
"C.J H P U U P U U K K K U U I U U U L L 4.U 5 8 K.r.H K K H d K K K U U H H H H U K H d J H 1 v T.U J 4.4.U K Z Z K H K d H d $ ",
"+.K U P U U K K K U K K U L L U U U U U H U B 8 !.4.U H d d B K P U 4.H d U U U J K H H H J 7 M H.U U 4.U K J K U U H H H J B = ",
"k.K P U P J P K P U U J H H ~ 4.L P U U U U H 6 V.J H d B H U J J U U B d U K J H L B H J J q n H.U U d U U K 1.U K H H H H d = ",
"k.U H H U U P J U U U U H B U U H P U U U J H 6 =.P p p J J P J U 4.U J U P J H K P U P K H < b H.4.Z J K >.K K K U H H K f B - ",
"' H B U U L L H U U U U U J 4.U H J J H L U H =  .H H U B U J U U J J L U J H H H P U J H H 1 v H.U B U ~ U K J K U K K H K d $ ",
"| c 1 2 2 + + 4 < 1 < 1 2 2 7 1 + < + + 2 < . 8 ;.C 4 < # 4 2 1 < + X 1 2 . 1 4 > 2 2 4 1 < . S x.t 2 4 < + + > 2 5 , + , , . = ",
"J.;.W n n b M E Y M Y n b b Y Y E Y W Y Y M Y Q V.=.Y Y E Y n b b v n z h b n M m M n n n n Y  .=. .W n b n b z z z z z z z n Q ",
"] ] i.y.i.~ ] i.i.~ ~ V  .H.M.i.p.M.p.p.p.) i.) y.i.p.) ) ] ] ] e.] T E ;.K.k._ =.| +.' X.| ..^ ^ _ ..^ G ^ i.I ~ p.) e.e.) ) ) ",
"U U K d P H H H P H Z $  .i.U L ~ 4.) ) ~ U U U y.4.J d Z J H J H H 7 b W.] G N C N G G G G G N G G G L s p H f H H a J J a J A ",
") 4.J H U H L H J J J $ o.p.B D i.~ ~ ~ ) U U U U U H H H H H U J B q g x.L L G C G L L L N N C C C G L B p B H f i e H a H J J ",
"~ L H U P H Z Z L U J % Q ! H U ) ) ~ U ~ U L U U ~ B B U H U U J ~ 7 h =.G D N N I G G G C C C G I I H B B D d Z Z Z K H K K H ",
"U H U U H H H H L J H $ Q p.U L U L U L U L H L U L p U H H P L U I w h H.D B B I L L D G N N G C H D B B H D B H Z f H J K K H ",
"~ U L B p p d B H B p @  .i.U U ~ ~ L U U H H ) L H J P U L L 4.U U p : V.H H G C G B N G G G G C L H B B B H B d H f f K K K H ",
"u w q 2 + < w 2 q 2 X o  .T q 4 w 4 4 t w t t u u u w 5 4 2 w q t w + v -.t w 4 1 1 # q w 1 2 1 4 q 7 w w 5 5 2 5 4 5 e w e 5 e ",
"z h z z b M V h z z z E  .V.W z h 0 h z h 0 9 6 3 - 0 h h h n n z z n _ ;.T 0 8 0 h b n z z z z z v z b z 0 j 0 0 h n j 0 8 8 6 ",
";.J.m.` h.] ) / i.h.b.f...m.f.f.f.f.b.A.f.b.^ R  .=.H.b.A.` ..] ` f.p.] ` ] ` +.f.f.b.b.p.` R _ x.` ` ] ] ` ] ] ! ] p.] i.] ^ E ",
"=.) H J K H H f Z Z Z U U U U H B y.~ U I U L 6 _ M.4.>.U H J Z H J f B K J H J U U U P J K 7 W f.f H Z f d p d d p d Z Z d t ; ",
"L.4.H P H J Z H d i H H B B H B H e.~ I L U I $  .i.U J K Z Z d a f J P U d Z U U P H Z L U 4 S h.H d Z d a p d a d B B d Z w @ ",
"K.4.P P J K Z L Z H L H d H L L ) U U U U U B @ *.p.K H d i d d d H J J U H J U H d Z U U H 7 S h.H H H d d d d Z p p B d d y = ",
"J.I U P H J U d Z d H B B U U L U L H L L L B = *.i.P K d H d p H J H H H H U U H J U U J J 1 m h.Z H p d d d d d u B B B B u = ",
"=.) U i U K U Z J H L L H L H L B H I U L L H = _ ~ H d d Z d d L L B Z J U K H U L U Z d J 1 S b.Z B H B p t p u 7 C N p B p - ",
"-.L w 4 B t w w B p p p i d p u w p B d p p q & o.D e t e i i i t t u u B i a s p p B e p w . Y ..d d u q < 4 7 < 1 1 1 r w + - ",
"W.T 9 0 = * = 6 8 6 8 8 8 6 9 6 8 8 8 3 6 8 h Q ;.^ x z z 0 0 8 8 8 8 8 9 9 z 9 6 9 0 8 8 0 M _ ;.T 6 = 6 6 h n n 8 h 0 0 8 v o.",
"J.=._ _ _ _ ^ _ =.x.=.W Q J.H.x.x.' ` =...| H.P.x.x.H.b.H.+.+.' +.| _ Q =.H.+.=.-.;.H.=.-.V.=.=.L.=.' _ +.=.=.=.-.-.L.X.^ V.x.k.",
"~ ~ U U H U U U U B J r ;.M.U H H H 4.4.U U 4.U U U 4.U 4.U Z a U H 7 Y ^.a.U U U L ~ U U ~ U 4.~ e.U I U I U U U U L U U J H P ",
"U ~ U B p P H U P H J 6 *.p.J Z Z B 4.U U ~ e.U L U U L U U d H P d 1 l !.y.U U U H J J U U U U U U U L J H J L U L H B U U U J ",
"~ L d B H H ~ U H J B $ *.h.U U d H L U L ~ 4.U U U B s U U P U J J 4 k ^.e.L L U J U J I U U L U H L U L H U U ~ U H H L U H H ",
"~ i H U J H U p d H B @ *.p.U U a H U L I U U U J B B H L U U H B H 4 v W.I L L L J U ~ I H L L I L I U I I U U U U H L L d B I ",
"H H ) 4.U U H L U L y @ W.p.U H B U J L U L H H p L U J B J J H L J 1 v L.I B J H U 4.U I L I L I U H L L L I U L D L L B H U J ",
"p B H B i i i B d i , = W.i.Z p p B B L d B D p B B B s i d i d D B # M L.L i e B B t t t t B p H s t s s B B B B s B B s p i t ",
"3 = 6 6 3 3 8 8 3 - - W W.| j 3 = 3 6 3 = 3 = $ % = 3 = - 8 3 3 % @ = Q o.T 9 - 6 % % $ = = 3 % 3 = $ 6 = = 3 $ = = 6 6 6 = $ O ",
";.*.V.| ' V.V.^ ! ` +.' +.` ' ^ _ ' _ ' | _ o.E Q o.+._ _ R _ _ _ _ | | _ | +.| _ _ _ _ | _ W Q  .o. ._ ' _ ^ _ ' | | _ | ;. .^ ",
"J.g.U K >.U w.K H H K H >.K K Z U 4.K U ~ ~ J n | M.U K H J Z H U J B B B B U K a B U U U H 9 Q L.M.U L L U J U ) 4.U I U p.D z ",
"V.P Z Z U H U H Z J Z Z U P H H H J J H P U B 6 ;.y.J U J a J H H B H H H P K d f J U U U U q Y H.U B H L B D U I L U ~ U U p * ",
"H.U H H H Z Z d d Z H H J H d Z J B J P J U B = o.y.U U d B H H H B L H H H H d B B U J H H q M x.U J U L J H U U U U ) U J p = ",
"J.U J H B a a d L H B H Z H d J Z d U H d H d = o.y.J H B U H B d d B d B H d d B H H J B J 2 M +.U L U J H H P U U U U U H d $ ",
"H.K K H B p B Z H B B H H H B L L H B p p U s $  .y.J U U H B d H Z H B B B d B H H L B H B + M +.J L U U L U H L U U U L U s @ ",
"| B d d B i B d Z B B p d d p p t p d d i H i = o.H B L w p p B L B B B p p Z i i e t i d i + Y =.t w B d d d p H d H B B U t @ ",
"*.T 3 O O $ $ $ % % % 6 = 3 % % $ 3 3 % % 7 6 z o.V 6 # O $ % 1 % # % $ O % % % % # 6 3 1 % 8 } o.n 9 3 # O O % % # # . 6 r % h ",
";.o. .Q Q E Q  . . . .W W } *.o.W  ._ Q o.o.*.;.V.V.o.} o. .o.Q _  .Q W Q Q  .-.Q  .o. ._ o.J.o.;.J.o.Q  .(  . .o. .Q W  .o.o.;.",
"i.~ e.) I L ) ) ) e.~ n ;.T.i.~ i.i.~ i.~ i.) 4.y.i.i.e.) ) i.) ) ) N W b.~ I L ! ~ ~ ) y.i.) ~ i.p.I L e.~ U U U e.U D ~ y.U D ",
"4.U U J d L U U 4.U H = *.] J H 4.U U U L U J U L ~ 4.4.~ U L U U H q Y C.D G H H L U H L U U U J J H U J J J J H H d J H H B d ",
"y.L B U H L H B U ~ L % o.p.4.U y.4.U U L U U P H U y.) U L U L J J w b H.D L L G I ~ D H J H L p H U L J L H d B B B U H H H L ",
"U H I I ~ U i H U ~ I % o.a.U J U ) U H H U U U U U U U U U U U H K 4 l x.C C D C L L L H L L H B U 4.U p B i B H J L B d J H B ",
") J J U ~ H N U ) H L = o.) U U B L H L L L L L U I J U U L U U U U 4 v =.N C G D L H D B H L H I U U B i B C U B H H H L J L B ",
"y.U U U U L H ~ ~ D U =  .) U J B L L I U U L U 4.U U L H H L H U J 7 b =.C G D s B B H B U H H L L H H H H L D D H B J B D L H ",
"6 3 # % 1 % 1 1 1 1 1 & ;.G > < < # < 1 1 + # 1 < + < + . 1 < # % %   Y =.7 # + . O . + < 1 # % + < . .   O % # # # 1 # .   + O ",
"M W Y Y W W W W Y Y E } J.o.Y Y b n Y W Y E W M b S W E W Q Q Y M M Q o.o. .W Y Y n E Y Y Y M n n M n z S W W S S n M Y Y E Y M ",
"J.p.U ~ L U i.y.U ~ p.4.P U r.U ~ U 4.~ ~ U L T  .b.4.U U ~ U ~ y.) e.e.~ ~ i.e.) e.~ ~ e.y.x Y J.) H L U U L D L L ~ ~ U L C E ",
"V.U H f Z H K Z J U H H f f H H H H H f H a d 6 :.i.f f K K K K K K U K K K U K J J p J P H 7 M x.H d f H f a Z H H H H a a w 0 ",
"_ U K H H H J d d H H Z J d d Z Z H H Z Z H d $ o.i.H H H H K d K U U K J J U K d B H P P U 7 l m.d f H d d d P d H B H H B u * ",
"_ L H Z B Z B d H H a Z Z H U H d H H H B H H 3 &.i.H Z f J Z d U P H P J U U H H U L U U U 1 l | J Z d d Z H H p H H H d B w & ",
"| L B B H B i i J a d H Z K H J J H L H Z H d %  .] H d d H d U P H H H I I L ~ U U U U U Z . l +.J B Z p B B H B H J d B p w @ ",
"| H d J P i d J Z a B H J H a P H U U H B Z a O  .i.P d d d d P d H L U U U U U J B U H B d + v +.H B d H B B H B B B B H d y & ",
"=.C w < # . + + + + 4 < 1 + < 7 4 1 < < < 1 + * o.! w # O # 7 1 + 7 1 % 7 1 % 6 7 1 7 < 1 1 . Y =.N q 1 4 < < 1 2 1 # 1 4 % O : ",
"*.=.Q b M W S S S Y Y b z b M n z b M S n M W o.;.o.E M S W  .Q W Y Y M m b E S M Y n n Y Y W  .*.o.E b n S n M n b n E n Y W Q ",
") / p.i.i.) ~ i.y.~ / T Q x.p.g.~ i.] ) ] ] g.i.h.h.p.i.) ~ / i.i.] T Q | f.h./ _ ] ) ) ] ] ) i.] ] p.! ] ) i.] ! ) f.p.~ ) i./ ",
"Z J K U P Z K K d d d $  .i.K B J U H H H U U U J U d H d H U K d J q l x.4.U U 4.J H J P J J U J H P K B U J J U U U U J H L H ",
"U U U U Z H U d a H d @  .) d B 4.P H U H U U U U U B Z B H U d B P q l H.~ ~ U U P L L U U P B B U J d H U H H L H H L I L B B ",
"U U U H B H U H B i B @ Q ) B U J L D B B B B U J H H H B B B L H H q : =.~ L B U U ~ U U U B B L U I L U J B U L J U B L J H U ",
"U L H B d L H d d P H O { ) H L L H B B L L L L L L L B B B L H B B w g ;.L N D ~ ) U L L U H d U U L U L J U U U L B J L B D H ",
"L L B L L H H d B Z d . Q / L D L H H B D L H H H J H B J H B B B B w h V.I L I ~ I L L L U B B I L H L J J d B H B H B B H H H "
};
