/* XPM */
static char *_db86edae322497491ba0ce5474628f8zfZQcruWNwwDvpkM[] = {
/* columns rows colors chars-per-pixel */
"50 50 165 2 ",
"   c #3F5D19",
".  c #435D1E",
"X  c #47661F",
"o  c #4E6B1F",
"O  c #4A6625",
"+  c #4D6C26",
"@  c #4D652B",
"#  c #4F6E2A",
"$  c #526E26",
"%  c #536E2C",
"&  c #4F7224",
"*  c #4E7329",
"=  c #537325",
"-  c #597527",
";  c #577826",
":  c #5A7B24",
">  c #54742B",
",  c #5A752C",
"<  c #56792C",
"1  c #5C7B2C",
"2  c #556F33",
"3  c #596F32",
"4  c #567332",
"5  c #5B7633",
"6  c #567A30",
"7  c #5C7B33",
"8  c #5D763A",
"9  c #5E7B39",
"0  c #617D27",
"q  c #627D2D",
"w  c #687F2E",
"e  c #617534",
"r  c #627D34",
"t  c #697E34",
"y  c #64773A",
"u  c #69743B",
"i  c #647D3A",
"p  c #6A7D3C",
"a  c #657E41",
"s  c #6C7D42",
"d  c #727A47",
"f  c #7E7846",
"g  c #8A7A48",
"h  c #5E8125",
"j  c #5E812C",
"k  c #548132",
"l  c #5E8132",
"z  c #5F8439",
"x  c #638327",
"c  c #63832D",
"v  c #69832C",
"b  c #65892D",
"n  c #6B8A2C",
"m  c #6D902F",
"M  c #648334",
"N  c #6A8434",
"B  c #668934",
"V  c #6B8A35",
"C  c #65833A",
"Z  c #6B843B",
"A  c #67893A",
"S  c #6C8A3B",
"D  c #718333",
"F  c #728B36",
"G  c #7C8E36",
"H  c #72843C",
"J  c #79853C",
"K  c #728C3D",
"L  c #7A8E3E",
"P  c #6E9034",
"I  c #6E913B",
"U  c #749234",
"Y  c #799536",
"T  c #74923C",
"R  c #79943D",
"E  c #76993C",
"W  c #7C9A3C",
"Q  c #668142",
"!  c #6B8442",
"~  c #6D8A42",
"^  c #6C8549",
"/  c #6E8B4A",
"(  c #718643",
")  c #7B8543",
"_  c #738C43",
"`  c #718B46",
"'  c #758A44",
"]  c #758946",
"[  c #758C45",
"{  c #788B45",
"}  c #7E8B47",
"|  c #7A8D44",
" . c #788D46",
".. c #71844B",
"X. c #798648",
"o. c #738D48",
"O. c #778D4A",
"+. c #768C4C",
"@. c #778E4D",
"#. c #7B8D4A",
"$. c #6F9041",
"%. c #749243",
"&. c #739044",
"*. c #769346",
"=. c #7B9343",
"-. c #7B9540",
";. c #7D9247",
":. c #7B9644",
">. c #7D9842",
",. c #7D9843",
"<. c #759149",
"1. c #76924A",
"2. c #76934A",
"3. c #76914D",
"4. c #7A914B",
"5. c #7E914B",
"6. c #7B9749",
"7. c #7D934D",
"8. c #7D9949",
"9. c #7E984A",
"0. c #7E994D",
"q. c #7E9D4E",
"w. c #768D50",
"e. c #788E51",
"r. c #7C8C53",
"t. c #7D9351",
"y. c #7E9B51",
"u. c #7E9952",
"i. c #7F955D",
"p. c #81953F",
"a. c #808A44",
"s. c #8A8B46",
"d. c #838C4B",
"f. c #888B4B",
"g. c #898D4B",
"h. c #859046",
"j. c #839645",
"k. c #889345",
"l. c #829B45",
"z. c #8B9D47",
"x. c #839549",
"c. c #829748",
"v. c #82954C",
"b. c #8C9248",
"n. c #8C944C",
"m. c #839B4B",
"M. c #8B9C4B",
"N. c #949F4B",
"B. c #818D5B",
"V. c #829553",
"C. c #8A9654",
"Z. c #809B50",
"A. c #839A51",
"S. c #809C56",
"D. c #889F52",
"F. c #819659",
"G. c #889459",
"H. c #8E9F58",
"J. c #909352",
"K. c #929F5B",
"L. c #949E58",
"P. c #92A24C",
"I. c #8CA35C",
"U. c #97A158",
"Y. c #9FAB69",
/* pixels */
"B 5 q M r M *.s : V { ! ! o.H D C M K t 2 r C V J c , t K M  .} 5.i 1._ ( r r 7 C B S R P - 7 7 r r ",
"x x M - N T -.Z N v ! S V 7 5 1 M S S 5 C 7 $ t N 5 l N W C V b.c.2 7 5 > l 0 r r M H h.b q t 7 N q ",
"C S _ q 6.D.' N Z Z , M ; , , B B C 9 C t # , C , p r - Z.0.C < Z F.5 C 5 M t r 1 7 S V q , V i e A ",
"C  .Z K e.v.O.S C 8 ! r q M C , M / 3.t S C , B V , c K _ 7 C C t.7., S i ' C 7 M V 9.4 4 ! Z.[ 1.S ",
":.S ! 0.` M S Z a ! 4.i , - M q.@.L.i.1.N M F N j 7 K U c M i O.Z Z i i S ;.Z t _ ( ,.1 S S S.u.C 9 ",
"K Z C U r 5 V 5 Z Z - B S r A Z @.J.G.M B q M M I i f.m C 1 O. .5 5 Z Z A r 1.S ( ! 9.,.S S &.S = V ",
"0 S N F _ I C K *.C 7 Z E W M , ` r B , V S v 0 V V K n C c.( 5 ! 4 C -.V ! C S S :.M.,.-._ =.q > V ",
"C E M , S 5 Q m.C _ t 8 > S N B K , M , , t B 1 V 1 1 B Z _ M 9 7 a ! _ Z ;.,.Z.B W i _ l.K B B : > ",
"( F b , M M A , 7 ; c v 7 C : _ d , , b j r B 4 1 M M S C C l.5 r ` _ 7 ` 7.c.4.1 S Z K P.=.V V , M ",
"M T c 0 _ &.B - 1 F S H Z r r  .i 7 N S m.S V , - B S C C Q M M C Y t 6.' ..o.~ S > 7 N 7 7 V q 7 M ",
"t Z i - r M T q + M 5 C i ! S K [ Z _ Q &.K q 1 , A r C C 9 C ! ` H p K %.m.,.N r 7 N , > r 7 N q j ",
"4 l t t U C N c c 5 9 8 C H S i / S S / D.m._ K S T - B j + + r R t r r Z 1 K N C q 4 % V 7 K K q N ",
", 7 t r K %._ : 1 S M 7 i 9.N ( N [ S -.R %.-.=.K V > 7 B c , 1 V & M , S S *.L C H B r M Z -.c = B ",
"> q , Z r  .K _ &.7 , a _ C Z m.l.D.7 R i S M.m.> M V S S 7 = v 1 s S b M V Z Q q C.9.: 7 i , * : M ",
"+ O : t a ! S Z N C M K K S ' ! 4.[ C , C _ l.p V K 1 q C M $ 1 %.S Z l r K , , r ! l.V M C 7 7 P P ",
", = -.r 9 S C 4 , r i E t *._ 7.&.S C 5 r Z + 1 q t C r C , q v C c S Z = r Z c r Z M q r S M Z C 1 ",
"> 1 > 7 C 9.N , M K _ J p =.~ O.9.M C 1.t % < B S N t C 1 9.S K _ Z - . Z s ( j r S r ( K Z 9 w.i : ",
"w 1 Z #.i C T b ( h.I K C S ! ! ..z / Z 7 6 V : I 7 : &..._ [ ^ o.Z 7 B.! v S C C K V Z S -.t.Q - T ",
"q 1 S *.t. .B V K S [ S A j.,._ ! K.C.6 K q S D M < S K ! m.D.u.F.Z.N r C : N ! C S T _ 7 7.( > V %.",
"B x %.V i M.r V 1 l C T C R :.p ~ d.g.H C c M 1 S M ) -.E R *.9.Z.1.N = C , B r S v M N ! Z Z > ' H ",
"K 4.M 5 > M M , N Z V 8 r I K r 6.& c q q V Z f r V K N T Z C M.M.( M M N r U N p S _ K Z._ ( y i L ",
"i r A q r M 1 c V r U ! A M N S j r ! 1 4 7 t d.M S > B 7 C _ ,.;.C S S r 7 i ,.7.N C Z 7 M.L i Q K ",
", 7 S Y B M N D %.S V S 7 ! -.0 q M S C C 4 S j > & M ~ 7 # C X 7 7 7 B r C N S _ O.! 9 S N r 5 S Z ",
"M B V U : 1 r r 7 5 r 5 7 C V Z V x N ! C N C U M r S > 7 V 1 = B j M 7 > M S 5 S t 5  . .V t 5 N K ",
"i l Z l.u.i 7 _ B M M Z V 1 c T > , B r :.=.r S *.*.B c F : - 1 1 S c 5 = n S Z S i ' Z _ O.M : 1 Z ",
"N 1 % u.#.Q C r S B S _ r c E V r r U Z -.T 1 M N C r S % M - M i r 1 S J N &.&.9 %._ 6 } L b - C $ ",
"S _ M M M O.r Z C ` c.4 K N A t S p 7 S P. .M Z M , > : x C B q S N l t Z r C 6 C _ Z V } U x : % V ",
"H { L Z e.t.! ) C r _ S 7 V l 5 7 K 8 7 B 5 S r 7 N r F K &.1 : N S K S l S C 1 T 7 B B b c B E V 1 ",
"l & X.{ #.c._ ' M M / V r c 1 1 M , V r < N 1 C 7 q V t S S C l 1 1 V N 4 V 1 > N > A 5 M c q N M : ",
"r A  .C.S S _ Q C C a C S V 4 M q , - q 7 N M S q V 5 9 M 4 q B 4 N M : 7 M 7 7 M : > 1 B v C l , V ",
"K 9 b C [ @.a _ V 7 5 i ~ ,.~ r C 5 S l i _ N M M E F S 1 ! i t _ 0.K V S r @ = = r C r M S 7 Z c - ",
", 4 < M u.o.M T ~ ! 4 r %.N V r _ S &.5 S ~ r 5 a.F B H 7 C C #.3./ =.R m.r   M N : r 7 C ~ ' c i 4 ",
"7 r 7 ! C ! J M ,.c.r C 7 M S F _ t.u./ S S 1 M } Y h N a p S V.t.b j 5 %.C 6 V F + r S M o.I.~ Z r ",
"C Z ! Z D < N r =.Z 1 t 7 M w &.I.@.@.&.i C S B S i M 5 C H _ ! ..N S ! m.m.S r M x C B B i O._ , r ",
"M i ( i L M S K M C C a.a.M  .S A ! M > p Z C m.t 7 i 4 i ,.{ ( C _ S -.,.-.-._ U : a Z < _ Z e _ H ",
"c.i 5 5 ! M I _ 5 t Z V G A #.L _ ( r.i ) Z r Z T 9 5 a ! C Z m.c.D.1 ,.i ~ z.,.V r T Z C M K M _ H ",
"K 4 5 y ! v r { 9 s.L 1 S S = p #.' Z.%.[ C C C -.7 M _ _ N ` ..5.[ M 7 ~ T l.=.1 S x C C M F K K 7 ",
"t Z *./ C r C p i Z M 7 B M M ~ C.6.S _ ! C C ^ C C Q -.r 1._ 4.&.Z C > 7 C * 5 t q N M C V M C C r ",
"( ~ ~ C 7 C -.j ..r.V M i K C M V ..S a ' S M 7 C / [ H p _ $.3.:.M 7 M v 4 7 B V V N U ! i _ S -.4.",
"N.=.F 9 C V  .7 k H.9., r 5 5 6 1 B S i S $.Z 5 8 *.&._ C S ! a ..6 7 r M B r M B 1 7 N c.O.C C C M ",
"M L R ` 4.S * ^ v.t l.S M C 7 7 7 4 ~ ( S S M.! C A 4.V S j.=._ ! n.#.6 %.: M N M : C Z S _ ( a i K ",
"F p =.F M i 5 Z } r V 1 r S C C 4 V - C r H ;.7 ~ 9 C E C -.,.i 7 f.g.Z S M c c I N V i r V 4 i c.( ",
"*.D t S M %.4 5 7 S r ( K Z 9 i i K V M V S C A 8 H Z.T Z C Z Z %.= B r M S 5 1 V B P Z S C Z ' Z ! ",
"8 , M S S M 2 ` i N S Z K -.( 5 7 C C ; S i 7 S C S S i S r @ Q u $ l l < 4 M 1 1 S , &.C C -.! S Z ",
"O > B 1 r 1.7 , 7 S T _ i K p 4 7 i ` o._ 9 J k.7 ~ ) y * j 7 e i S 5 < B 5 B 7 , > C 7 > C [ / 5 M ",
"1 N i C V S r 7 1 h M S 7 r i ~ ( ! ..e.( i N V r > Z , M < C ..V.C C 1 S 4 7 : M r b > , V 1.t : B ",
": 7 S 4.m.S.-.> : x M F ,.! ! &.S _ Q 4.S 9 r.4 *.K.r r 7 > S V.Y./ :.C ! w.! 7 V M C F : ! c.N > N ",
"c 1 S *.7.C C h M r C Z 7 n.j.K ! ! r R p z _ t r U.N i M 1 i Z 1.&.%.! Z _ i M , F m._ N r C x : 1 ",
"c V q S Y r B C F n / 8 S M F p.3.[ [ M 5 1 c , * = C =.7 7 :.#.7 H _ :.7 > V &.Z M S M S 1 C -.M c ",
"S E 7 > C N B p D t 7 _ ;.S t K =.S i 7 7 o r u n.= j g M *.m.U _ Z.C S =.i 5 B Y M < V S 3 7 P U M "
};
