/* XPM */
static char *a768cc5d170d4873ff1811e69496362cYv3CVK02BSJOGBCz[] = {
/* columns rows colors chars-per-pixel */
"64 64 198 2 ",
"   c #3D2619",
".  c #461E11",
"X  c #412315",
"o  c #4B2314",
"O  c #452718",
"+  c #4C2718",
"@  c #442C1D",
"#  c #4C2B1B",
"$  c #532515",
"%  c #5B2614",
"&  c #552817",
"*  c #5C2816",
"=  c #532C1B",
"-  c #5B2C1A",
";  c #4E301F",
":  c #54311F",
">  c #5D311E",
",  c #642613",
"<  c #692713",
"1  c #632916",
"2  c #6C2A16",
"3  c #632D1A",
"4  c #6C2E1A",
"5  c #742B16",
"6  c #7D2E16",
"7  c #732E19",
"8  c #7B2F19",
"9  c #64311D",
"0  c #6D311D",
"q  c #74311D",
"w  c #7C331D",
"e  c #402E21",
"r  c #453124",
"t  c #4C3323",
"y  c #4E3827",
"u  c #4D3728",
"i  c #4D3D2D",
"p  c #543423",
"a  c #5B3523",
"s  c #543827",
"d  c #5C3926",
"f  c #533D2B",
"g  c #5B3D2A",
"h  c #603521",
"j  c #633A26",
"k  c #6B3C25",
"l  c #623F2C",
"z  c #763621",
"x  c #7D3620",
"c  c #753924",
"v  c #7D3922",
"b  c #793E28",
"n  c #4F402F",
"m  c #56402E",
"M  c #5B412E",
"N  c #554432",
"B  c #5B4532",
"V  c #5C4936",
"C  c #5D4C39",
"Z  c #64422D",
"A  c #6B442E",
"S  c #7D4229",
"D  c #7C492E",
"F  c #614632",
"G  c #634A35",
"H  c #6C4B35",
"J  c #634E39",
"K  c #6F4F38",
"L  c #7F4730",
"P  c #714932",
"I  c #7D4E35",
"U  c #65513C",
"Y  c #6B543D",
"T  c #795037",
"R  c #72533B",
"E  c #7A563E",
"W  c #655541",
"Q  c #6B5741",
"!  c #6D5942",
"~  c #725741",
"^  c #735C44",
"/  c #7C5D43",
"(  c #735F48",
")  c #776046",
"_  c #7B6046",
"`  c #766148",
"'  c #7C644A",
"]  c #7F684D",
"[  c #822F16",
"{  c #882F16",
"}  c #822F18",
"|  c #843117",
" . c #8C3317",
".. c #84351C",
"X. c #8B361B",
"o. c #85381F",
"O. c #8C391E",
"+. c #91361A",
"@. c #923A1E",
"#. c #9A3C1E",
"$. c #823720",
"%. c #843A22",
"&. c #8B3C22",
"*. c #843F28",
"=. c #933D22",
"-. c #9A3E21",
";. c #854026",
":. c #8C4127",
">. c #84442B",
",. c #8C442A",
"<. c #8D492E",
"1. c #944225",
"2. c #9B4224",
"3. c #934529",
"4. c #9A4629",
"5. c #944A2D",
"6. c #9B4B2C",
"7. c #854B32",
"8. c #8D4D32",
"9. c #934D31",
"0. c #9A4E31",
"q. c #8D5136",
"w. c #835339",
"e. c #8B563B",
"r. c #86593F",
"t. c #8C593E",
"y. c #935235",
"u. c #9D5334",
"i. c #93553A",
"p. c #9D5638",
"a. c #945A3D",
"s. c #9A5B3D",
"d. c #A24526",
"f. c #A24729",
"g. c #A34A2B",
"h. c #A15434",
"j. c #A25C3D",
"k. c #A85938",
"l. c #A3603F",
"z. c #AA603E",
"x. c #845E44",
"c. c #8A5E42",
"v. c #955F41",
"b. c #985D40",
"n. c #876247",
"m. c #846247",
"M. c #8A6246",
"N. c #8B6246",
"B. c #83654B",
"V. c #8A6348",
"C. c #8A6649",
"Z. c #8E674A",
"A. c #8B664A",
"S. c #866B4F",
"D. c #83694E",
"F. c #8B684B",
"G. c #8F684B",
"H. c #8E6B4E",
"J. c #8A6C4F",
"K. c #8C6A4D",
"L. c #936245",
"P. c #9B6344",
"I. c #95674A",
"U. c #936649",
"Y. c #9B6749",
"T. c #906A4D",
"R. c #926A4D",
"E. c #946B4D",
"W. c #946B4D",
"Q. c #9A6C4E",
"!. c #866C51",
"~. c #886D50",
"^. c #8C6F52",
"/. c #8B6D51",
"(. c #926E50",
"). c #946E50",
"_. c #936E51",
"`. c #996F50",
"'. c #877054",
"]. c #8D7255",
"[. c #8F7558",
"{. c #937153",
"}. c #947354",
"|. c #937455",
" X c #927254",
".X c #9A7253",
"XX c #9B7354",
"oX c #927658",
"OX c #95795B",
"+X c #9B7C5D",
"@X c #A16545",
"#X c #A36443",
"$X c #AC6644",
"%X c #A66949",
"&X c #A86B4B",
"*X c #A27454",
"=X c #A87655",
"-X c #A08362",
/* pixels */
"' V.I.r.P w.c.c.N.E H T r.I.`.T.V.T.N.G.T.V.E ~ ~.(.n./ R E V.T._.XXN.V.}.K.V.N.E V. X}.V.K.J.' |.{.(..XF.(.XX_./ n.A.N.U.A._.D.",
"T.&.w o.o.w &.&.$.w q ..=.g.g.:.3.3.3.5.,.:.;.s _ 9.0 v v v :.<.,.c %.,.5.;.3.&.&.<.>.7.7.8.Z V t.y.9.y.9.,.<.,.:.3.6.1.1.1.v B ",
"W.&.w o...%.w ..w &.=.$.4.1.3.4.&.%.%.:.:.*.q @ ' 9.x %.:.%.:.&.v v :.:.&.:.&.&.1.&.:.*.>.,.# J @X9.<.5.,.,.g.4.g.g.2.6.1.2.o.f ",
"T.%.w $.&.%...&.&.=.2.4.4.&.&.%.$.v %.%.%.:.&.t ^.<.*.&.&.%.%.$.*.:.:.%.&.:.&.1.&.:.%.v :.:.: ] P.8.<.6.5.6.4.6.4.4.4.1.1.2.O.G ",
"W.w w &.&.$.&.&.=.1.1.$.$.%.%.%.$.$.&.%.%.*.3.d ~.>.$.%.%.:.*.z c v *.%.&.&.:.:.&.:.x %.1.=.h _ @X9.6.5.4.4.6.6.4.4.f.2.1.2.@.F ",
"W.$.q x &.&.&.&.&.$.$.%.$.$.$.v v &.:.:.:.:.:.d ~.>.x $.*.%.*.*.*.*.:.&.&.%.*.:.&.%.*.&.=.&.= ' &X8.<.,.,.5.3.4.4.6.6.4.2.2.X.B ",
"T.x z &.%.&.1.&.&.%.$.%.%.%.%.$.%.x v &.&.$.%.# Q c &.&.&.&.&.:.&.%.&.&.:.:.&.&.&.&.&.&.&.w # _ b.9.5.<.6.5.5.4.4.1.4.f.2.#.X.d ",
"B.P - - - % * - - - & - - - & 9 9 & - 3 3 - $ @ B.P - 3 4 4 3 3 * % * * 3 - 3 9 - 9 3 3 - & # ^ / > - 9 > - - - - h 9 3 - & $ i ",
"OX~.~ U U J Q ) _ ^ ^ U Y Q ^ ~ _ _ B.^ U V J ^ OX].) _ Q Y J V N n i f U ^ ] !.] ` Q Q _ _ ' ].+X!.^ U ^ ^ J U ) B.' ) Q J Q B.",
"9.5.0.h.k.h.u.h.h.<.>.Y oX&Xp.9.0.u.u.h.9.0.h.0.6.0.u.6.5.9.5.5.5.,.A Q =X$Xp.9.j.p.h.u.p.9.u.8.i.i.i.8.8.8.8.7.8.y.q.q.8.<.8.7.",
"2.-.2.2.2.=.-.-.-.-.#.a B.4.X.X.X.w 2.-.o.-.-.-.2.-.@. .{ |  .|  .X.2 Q z.@.@.@.-.-.-.&.O.&.&.&.O.o.o.w ..} ..} ..[ 6 | O.X.[ 6 ",
"=.2.=.1.5.-.2.=.-.-.2.- ' g.X.o.o.=.2.-.2.2.-.2.2.-.O.o.o.X.X.+.+.X.< C u.-.f.2.2.2.2.4.2.$.&.&.O.O...w X.w ....8 8 w ..8 | | ..",
"=.-.=.-.=.=.=.&.=.1.1.= / 1.X.O.=.-.2.-.=.=.&.2.-.-.o.o.@.X.@.#.X.@.2 V u.@.-.2.2.1.2.=.=.&.=.&.O.@.O.&.o.o.o...o.o...o.X.X.| 5 ",
"=.=.-.=.o.O.=.-.4.2.-.= / 4.@.O.=.o.-.=.=.=.-.1.=.O.o.O.X.X.@.@.@.O.2 C j.-.-.-.=.&.1.&.&.&.&.=.&.=...o.o.&.&.o.o.o.| X.o.w ..w ",
"-.-.@.o...X.X.@.2.=.X.= ' 1.@.=.=.=.=.O.=.@.-.2.O.O.O.@.@.@.@.@.-.-.7 i u.-.-.O.&.1.&.o.&.&.&.=.=.=.O.o...o.w ..w o...| w ..o...",
"w w 7 5 5 5 5 , 2 2 % @ ^ S 2 2 7 2 , 2 w w 8 5 2 2 q 2 2 5 w 5 w ..$ C a.6 5 2 5 2 1 w 2 , 2 w 2 1 2 2 2 % , 5 2 , < , % 2 , , ",
"G J U B G B B G / ) Q ^ !.[.Y J U J J Y U U Y U G J ) ' ~ Y / / Y J J ] oXR m B V B G B B Y Y M f V Y Y U Y _ U V J U J Y G f B ",
"+X*XY.a.b.e.s.P.b.s.@XP.Y.P.P.P.P.P.Y.Y.P.P.t.D.oXL.Y.Y.L.r.I.L.L.t.t.e.t.a.i.i.a.s.b.t.a.P.r.) ].c.r.e.a.r.w.w.w.r.e.7.r.I w._ ",
"{.4.X. .{  .+. .| X. . .+.X.X.| | @.&.o.O.-.o.l A.6.3.4.5.,.:.*.%.&.&.%.&.=.O.O.@.=.=.=.=.&.w G N.w w q q 4 q w w w w x w ..w B ",
"Q.2.O.o...X.X.@.X.8 | | ..| X.| w -.O.o.&.=.O.# A.,.&.$.&.%.&.%.o.&.&.&.1.=.O.=.-.=.&.&.&.&...B c.q 4 0 3 3 0 q q ..v x q %.4 u ",
"Q.4.=.o.o.O.o.@.X.o.X. .| | X.X...@.X.=.-.-.O.O m.,.o.....o...w o.O.o.&.-.&.O.O.@.=.&.&.&.o.O.B L.q q q 0 4 4 4 4 q q w w w * f ",
"Q.v $.o.o.o.X...X.X.X.X...X.O...@.@.O.O.O.-.X.# x.&.o.o.O.O...o.O.=.@.O.@.@.@.@.-.-.=.&...o.7 f I.7 w w q 3 3 4 7 3 4 ..w q 4 f ",
"N.3.=.o.O.@.@.X.o.o.o.....@.X.@.X.O.@.#.#.-.@.= E ..O.......| o.=.=.o.O.@.@.X.@.=.O.=.o...O.w N I.w q w q z 4 7 4 - q w 7 w 4 u ",
"K.:...5 w 5 5 6 | | | X.X.X.+.X.| | X.X.| 6 6   B.v ....[ 6 6 [ | < 6 ..X.| 5 [ 6 ..o.w ..X., f c.w 4 4 7 4 4 7 2 % % % 1 2 % r ",
"-X~ t t t f M f s @ t @ @ @ t t t s g s t s t J [.R d l Z M g Z d s d s Z F R R H H H g p s f Y ~.R s t s f s f F M F g M M B ^ ",
"XXU.N.L.c.x.x.x.x.x.x.Y '  XT.W.Q.A.W.Q.c.c.U.*XQ.W.U.L.I.c.L.L.v.c.E ^ }.Q.W.Q.XXQ.Q.T.K._.(.W..X_.N.N.T._.T.V.K.(.XXW.W.XX(.T.",
"1.&.-.@.X.&.w w %.$.&.Z [.u.f.2.=.=.-.-.o.#.@.X.2.1.1.=.@.| X. .@.+.- W #Xd.#.-.f.-.2.4.=.1.1.1.1.2.2.-.2.=.=.&...w %.&.&.o...o.",
"&.=.O.O.o.&.w w &.&.=.h ] 3.@.O.O.@.@.O.=.2.1.O.=.&.&.O.O.O.o.O.o.X.% U s.=.@.-.2.-.O...O.1.=.&.&.-.-.O.O.o.X.X...8 | ..O.X.o...",
"@.o.w @.....%.$.$.&.w O B.6.@.%.&.-.-.2.2.-.-.@.&.&.O.o.O...O.@.o.X.1 W j.2.-.-.2.@.X.X.=.1.&.o.&.=.o.w o.o.o.o.&.&.X.O.....o.o.",
"@.w -.-.o...w q q x o.@ ~.5.-.2.@.=.-.&.O.O.#.@.o.O.o...o.O.-.O...X.1 ( s.@.2.2.-.@.@.-.=.O.O.o.=.O.o.&.O.o...O.&.&.&.o.o.o.o...",
"&.-.2.-.O.%.&.%.$.x w @ oX5.-.-.@.@.O.@.-.@.o.X.X.@.X.@.O.X.o.......* ^ i.@.@.-.-.=.-.1.=.&.O.=.=.=.o.o.o.o.&.&.&.&.&.o.&.O.O.o.",
"&.&.o.O...o.&.=.O...2 @ OXs.o.X.o.o.w X.X.X.@.X.X. .| | | 6 5 [ | 6 * ' i.+. .X.@.O.o.O.O...@.@.O.....o...O.O.o.O.o...o.o.o.w ..",
"# # s d d a p t p s y Y OX/ K H Z g F G Z d p # O # s a a d a d a ; s ] C.P d : : # # o = p a = = # # p p = = X o O t p : # X O ",
"oX~.^./.V.^.S.B./ B.B.m.V.V.(.(.B.V.V.(.{.B.S.Q _ K.A.n.A.E A.G./ x.B.B.B.S.S.S.S.m._ _ S.D.B.B.B._ ~ _ B./ R R / B.K.S.B._ ~ ) ",
"+X8.x $.&.v :.=.w w %.:.4.:.1.%.%.:.&.:.%.%.&.H K.d.+.X.@.+.X.O.o.O...%.w ..O.-.=.O.-.2.-.=.*.Q `.0.:.1.1.1.v %.:.5.,.:.v ;.:.Z ",
"oX>.q w x z %.w q o...&.&.&.&...w w $.q ..$.o.p T.@. .@.X.| O...o.o.o.O.o...O.X.X.@.X.@.@.#.| C U...w ..$.w w &.*.,.&.&.q q ..a ",
"+X8.x x x z x w w w %.&.%.w o...$.%.%.w $.%.4 e A.@.@.O.o.X.o.o.O...O.O.O...X.| | O.@.X.X.@.X.U c.w w %.v $.%.%.%...w %.o.o.w d ",
"+X5.$.z c v v x x %.....q w q %...o.%.x $.$.1 t A.@.o.O.@.@.@.O.o.w ......X...w | +.X.X...@...C x.q $.&.$...o.....o...o.o.O...s ",
"+X0.&.v z z x v $.%.w %.v v w %.&.$.w q w %.7 r x.#.O.-.O.O.o.......X.X.X.X.X.+.X.@.X.X.@.@.2 C c.w &.&.&.&.w w o.O.o...%.&.w t ",
"OX3...v $.q w $...w o.w w w q q q 1 2 o.w 7 2 t D.O.@.#.w ..| X.o.X. .X.+.X.+.[  .+. .|  . .2 C N.q o.O.&.O.7 ....w 8 o.o.o.2 @ ",
"oXA = # # p = # # # # = # # # = # # j > + # = f _ A h & = # > > - & & - - - = j D k a a h j p U D.H j a - = # j j d h # = - o B ",
" X].B.B.B.^ ) ^ ) ' B.Q Q ` D.S.' ~.D.' ' ) D.D. XoXB._ ~.B.].B.B.' ^ Q _ D.^.+X~.B.!.!.~.].|.].].].|.B._ ' ~. X|.^.B./ ^ _ _ J.",
"6.3.6.5.5.,.3.3.:.:.4.P [.&X5.:.4.5.4.6.5.5.,.3.6.6.4.1.1.1.4.&.:.1.c U Q.u.5.,.,.>.5.9.<.5.h.5.3.6.3.:.:.%.&.&.&.1.&.%.&.&.=.=.",
"4.2.1.1.1.=.=.O.O.@.#.9 !.<...o.1.&.O.O.O.=.w =.1.=.=.=.&.@.w w X. .< Q P.,.;.%.v v &.%.&.4.1.1.&.1.&.&.O.o.O.O.X.O.X...| X.+.@.",
"4.1.:.5.:.&.O...@.&.-.- _ 9.2.1.4.=.%.%.2.1.1.-.O.&.1.1.=.O.o.w O.X.2 U s.,.>.,.;.v %.%.1.1.&.%.%.&.&.&.%.&.o.....X...o.O.O.X.X.",
"2.1.5.4.1.O...o.O.&.-.& _ 9.&.&.=.1.&.&.&.&.1.=.=.&.=.&.&.o.w O.#.X.2 V t.&.;.%.v c &.1.&.1.&.&.v &.4.&.&.%...o.O.O.O.O.o.X.| ..",
"2.&.=.=.1.o...X.=.O.@.# ` 5.:.>.>.1.&.1.&.&.=.=.O.=.O.o.O.o...@.@.X., C w.%.$.$.v :.=...&.&.>.$.&.1.&.o.o.o...&.o.o.O.O.o...o.w ",
"2.1.-.2.-.w | #.-.O.@.+ ] 5.=.>.7.4.1.O.-.1.=.&.2.2.-.@.O.....X.@.X.1 Q e.&.&.&.&.w w v =.&.w $.1.&.%.&.o.o.o...o.....O.o.o.....",
"- - * - - o - 4 % % %   !.I % 3 3 3 * - - - & * * $ 3 0 1 1 * % % , X ^ x.9 * * & o - - & * o - $ $ o o . + $ o $ . = = $ o o o ",
"U ^ ^ ^ ' ] !._ Q Q ^ _ oX'.^ Q Y Y ) !.] B.B.Y U Q ` ] _ ^ ^ U C C ^ !.].' ~ ^ Q Q B.) ^ ~ U J U Q Y V Q ^ ~ Q Q Q ^ ^ ^ ^ Q Q ",
"+Xi.>.7.7.8.8.8.7.8.y.8.>.8.9.>.>.>.q.8.7.>.>.~ K.j.h.h.u.u.5.5.h.u.u.h.5.9.h.h.6.u.6.6.u.h.S Q *Xu.,.,.<.,.>.>.>.>.>.>.>.>.7._ ",
"_.&...w w w &...x &.$.........%.$.w o.$.%...7 s {.5.1.1.2.1.2.2.f.2.1.2.o.4.4.1.4.4.=.O.-.-.w W s.#.O.o.o...o...w ....w 7 w w F ",
"V.$.w w w x %.$.$.w x $.%.z z $.%.%.$.w $.%.7 t {.<.&.1.4.1.4.1.2.4.4.1.1.1.1.1.1.1.O.O.2.2.q C l.@...o.o.o.....o.%.w $.%.o...u ",
"x.x w w q x w w ..$.w x x v %.%.$.w w q q x w p ~.>.w =.=.1.4.1.1.1.-.2.1.4.6.1.&.-.O.-.-.2.q C i.O...o.O.&.o.&.%.o.o.o.q o.4 i ",
"x.x w w x w w q ..w w x $.$.$.%.$.$.v q q q 4 = B.S O.O.O.1.1.4.-.@.@.=.1.1.1.4.1.=.-.=.-.-.q B i.o.o.O.O.&.&.&.%.&.&...o...7 N ",
"V.w w %.&.w w ..w w w $.%...o.w x $.x q q 4 4 # D.>.%.&.-.2.2.2.@.O.O.@.=.1.4.1.O.O.O.o.&.O.q V i.O.o...1.=.1.1.&.&.o.O.&.&.7 i ",
"D.j - & o o 3 - & 3 3 & * $ o - - & & % . o o r ~.k 9 4 q w 4 1 4 q 1 % 7 4 1 4 2 * 2 7 w 7 % C w.1 1 3 w q 2 0 q 2 * 3 q 4 $ V ",
"].!.' Y Y B.] ` ' ` ^ Y Y Q ! _ ^ ` _ _ ^ ` ' '.oX!.' ^ Q Q ^ ^ ^ Q Y J U U Q Q Q _ Q U U G N ` '.^ ^ ~ ~ Q Q Y G B C ^ Y U ^ '.",
"s.q.s.i.q.y.7.s.s.i.i./ B.b.y.y.9.8.L y.i.y.y.q.i.s.s.y.i.i.i.i.s.i.R !.U.q.q.i.a.i.y.q.i.i.i.s.i.i.s.7.t.t.t.e.e.a.a.b.7.7.a.e.",
"@.@.@.2.f.d.-.2.@.o.X.@ B.:.| ..8 7 w +.X. . . .[ |  .| X.O.O.O.o.X.9 ^ y...o.o.O.o.X.o.O.&.O.o.w ..o.o.....w w &.&.&...w ..7 ..",
"-.@.@.2.f.4.2.-.@.=.O.= ! >.5 8 O.X.@.o...X.X.| ..X.| 5 | ..o.w &.1.4 ^ i.......O.o.O...&.&.&.w w ..o.....$.x v *.%.$.$.v v w o.",
"2.2.2.2.f.4.2.=.-.O.-.o U >.7 =.O.o.| w  .| w | .. .6 w X.o.o.&.=.=.4 V 8...o.o...o.O.&.=.&.%.w %.%.%.%.w x $.%.$.$.$.v b v &...",
"2.2.1.1.1.4.&.@.#.#.@.o ^ 6.O.&.o.X.o.o.|  . .| | X...o.O...&.-.=.O.4 U y.o.&.&.=.=.&.o.$.%.%.o.&.%...%.w w &.&.%.$.w v v w ..w ",
"-.w &.1.1.=.&.@.@.@.@.o ^ 3...w $.o.o.....| | | o.X.o.O.=.&.&.&.&.o.% Q i.&.&.&.=.&.$.&.w %.$.%.w w 2 ..w w w w ..w w w w ..o..."
};
