/* XPM */
static char *e6720e3a73cb4d26fbe31d58e3958a0c0slbh6aLaXR8bqZn[] = {
/* columns rows colors chars-per-pixel */
"64 64 150 2 ",
"   c #5C3729",
".  c #5E392B",
"X  c #633C2C",
"o  c #693E2D",
"O  c #713F2E",
"+  c #633E30",
"@  c #6C3F30",
"#  c #6C412E",
"$  c #72422E",
"%  c #7E452E",
"&  c #664030",
"*  c #6C4131",
"=  c #734331",
"-  c #7D4631",
";  c #7A4832",
":  c #83462E",
">  c #8A472D",
",  c #85492F",
"<  c #8B4A2E",
"1  c #934C2E",
"2  c #994E2E",
"3  c #97502F",
"4  c #9C502F",
"5  c #824730",
"6  c #854931",
"7  c #8C4C32",
"8  c #934E32",
"9  c #994F31",
"0  c #8E5034",
"q  c #955134",
"w  c #9B5233",
"e  c #945338",
"r  c #9D5639",
"t  c #9E5639",
"y  c #9B5538",
"u  c #A0522F",
"i  c #A15231",
"p  c #A05132",
"a  c #A15332",
"s  c #A05333",
"d  c #A75230",
"f  c #A05432",
"g  c #A75531",
"h  c #A55432",
"j  c #A55532",
"k  c #A55533",
"l  c #A55733",
"z  c #A75732",
"x  c #A25635",
"c  c #A15637",
"v  c #A25637",
"b  c #A45434",
"n  c #A45534",
"m  c #A45735",
"M  c #A65634",
"N  c #A65734",
"B  c #A75734",
"V  c #A65635",
"C  c #A65735",
"Z  c #A75735",
"A  c #A45636",
"S  c #A55736",
"D  c #A65736",
"F  c #A75736",
"G  c #A35534",
"H  c #A85630",
"J  c #A95632",
"K  c #A85735",
"L  c #A85736",
"P  c #A85734",
"I  c #A55835",
"U  c #A65835",
"Y  c #A75835",
"T  c #A45937",
"R  c #A75A36",
"E  c #A55836",
"W  c #A85835",
"Q  c #A95835",
"!  c #AA5935",
"~  c #AB5A35",
"^  c #A85836",
"/  c #A85936",
"(  c #A95936",
")  c #A95937",
"_  c #AA5836",
"`  c #AB5936",
"'  c #AB5937",
"]  c #A95A37",
"[  c #AB5A36",
"{  c #AA5B36",
"}  c #AB5B36",
"|  c #AB5A37",
" . c #AC5834",
".. c #AD5A35",
"X. c #AC5A36",
"o. c #AD5B36",
"O. c #AB5C37",
"+. c #AD5C36",
"@. c #AE5D37",
"#. c #AF5F37",
"$. c #AB5A36",
"%. c #A35738",
"&. c #A45838",
"*. c #A55939",
"=. c #AC5C39",
"-. c #AD5D39",
";. c #AF5D38",
":. c #AE5D39",
">. c #AF5F38",
",. c #AF5E39",
"<. c #AE5D3A",
"1. c #AF5D3A",
"2. c #AF5F3A",
"3. c #AC5C39",
"4. c #B05D37",
"5. c #B05E37",
"6. c #B15E37",
"7. c #B05F38",
"8. c #B15F38",
"9. c #B05E39",
"0. c #B05F39",
"q. c #B25E38",
"w. c #B25E3A",
"e. c #B35F3A",
"r. c #B15E39",
"t. c #AF603C",
"y. c #B1603A",
"u. c #B1603B",
"i. c #B3603A",
"p. c #B2603B",
"a. c #B3613B",
"s. c #B4603A",
"d. c #B3613C",
"f. c #B3623D",
"g. c #B3623E",
"h. c #B5623D",
"j. c #B7643C",
"k. c #B7653D",
"l. c #B7663D",
"z. c #B4623C",
"x. c #B8643D",
"c. c #B8653E",
"v. c #BB693F",
"b. c #B56440",
"n. c #B96741",
"m. c #B96640",
"M. c #B96841",
"N. c #BC6840",
"B. c #BC6A42",
"V. c #C06C46",
/* pixels */
"y 8 q q 7 7 6 , 6 6 7 7 7 7 w w q 8 8 8 q 7 : : 8 8 2 s 8 8 y t 8 7 < 7 * o 7 6 : , 8 q : 5 5 % 5 : w w w 8 6 6 5 6 6 6 $ $ # o ",
"8 8 8 8 7 7 6 : : 6 7 7 8 7 8 y q y q q 7 8 5 5 8 q 2 w 8 1 8 8 7 7 q 7 # o 7 < 6 7 q 8 5 : % 5 5 6 9 w 8 8 6 6 : 6 6 7 o = o = ",
"w 2 8 8 ( #.( ( :.d.J ( q 8 m :.m m w q ( ( #.s.m ( h.9.:.K d :.w t m 4 o # n.y.:.J ( :.d.k ( ..9.y.m ( ..9.m ( m m d.d.s m t < ",
"s w 8 8 ( ..R ( :.( ..:.t y R ( m k 8 y k m 4.x.k m 9.9.( m y.k w s R y o @ B.M.:.O.:.( :.y.9.:.9.#.( R #.4.K s R 4 y.y.m m w y ",
"< , w w 1 2 < 7 w w 8 q w m 7 7 q 8 8 q m s G w 2 y 8 y < 7 8 w 8 q 7 7 . . h.h.s *.7 7 7 7 w t 7 8 w 8 8 q k ( 8 < w w 7 < 7 7 ",
"7 < w m y < q 7 s 2 y q 9 G 7 q < 1 y 8 k s t w 8 9 q y 7 < s v q y 6 7 X X h.x.w w 7 7 7 7 w w q 7 8 w 7 8 ( =.8 1 v 9 q 7 7 < ",
"6 : t w 7 , q q m s t 8 w q , : t 8 q q y 1 q q 6 : 1 w w s 2 t y q 7 6 . . =...8 y *.] 8 8 t 9 7 q y w t y w w 8 8 2 9 7 < 8 2 ",
"% : 9 t < 7 8 1 G R 8 q w 8 7 7 q 8 y y w 8 q q : 6 8 8 s s w 9 w 8 : 7 . . #.d.7 < G ] 8 8 w t q 8 w w q 8 8 1 2 w w s 7 7 8 y ",
", 6 K =.8 8 y w < w G m q 8 < < 7 7 2 w 6 : q 7 7 < 7 q : 6 8 q q q 7 7 X X d.h.7 , 7 7 w 8 8 < 8 t s w y < 7 , ( G 8 w 2 t : : ",
"6 7 ( d.9 1 %.w y 7 s v 7 1 y 7 7 8 ] m : : 7 8 7 < 8 < 5 5 < 8 8 < < 6 & X n.d.7 7 7 8 w w y q 8 y 8 q 7 7 6 7 s =.q 1 s w 5 5 ",
"6 6 ( m s s t q < 7 8 e 7 q < 7 8 q q 7 q q 8 7 s w *.w : 7 q q 7 6 7 7 # = *.w 1 w t q 8 1 7 6 7 , 7 7 2 w 2 8 7 : 7 6 y 1 6 7 ",
"6 7 k *.=.s w t < 7 q 1 v y 7 : 8 < 7 7 8 1 q < y 9 m w < < 7 < , 7 7 8 o # ] w w 1 w w 2 < 6 6 7 : 7 < 9 8 1 q 6 7 6 : y 8 6 7 ",
"# o # o X X X # * # X o X o X X X X X X X o X X o X o X # X o # . X o X o o # # . X X X . + X X . X X X X X X . X X X X o o o o ",
"o o o o . X # o o o # # o o X X X X o o o X # o o o X o X X o X . . X o * # # X X X X @ . . X X X X X X X X . . o X X X o o X * ",
"h.9.k 9.9.( R ( k s G s 0 7 m s s w $ = 8 7 x.y.e.s.9.y.( ( d.9.d.d.] s b.:...( s m ..y.:.9.h.9.G m w 3 = O m G w s s m w y w G ",
"d.y.y.( ( k R K m m #.m 7 6 9 G w w o O q 8 d.d.x.h.d.d.s s #.( d.#.s G :...:.K m 2 :.:.:.d.y.y.s G w 2 O $ s s w w ] s w w w s ",
"w v 8 7 7 7 7 7 , 7 y y 7 8 w w 2 8 $ = G s s s 2 s R s 8 q 7 q *.9 s w 7 7 6 7 q 8 9 w 8 7 q y y w 7 7 . . x.x.s R 8 q 7 7 8 8 ",
"R w 8 7 7 7 7 , 6 6 y 8 7 8 < w 9 9 $ = m G w w w 2 s w 8 q 7 < ] s G w 7 7 7 7 8 w s w < 7 8 y w w : 7 . X B.x.s s 7 7 < 8 w w ",
"w t 8 3 7 , q y 7 7 &.w 7 7 6 : 6 6 . X s s > 7 7 7 s w 8 8 7 7 G s 7 < 8 < 7 8 w s R s 8 8 7 q 2 q 7 6 X X G O.7 7 q q w s 7 : ",
"t w w 2 7 6 8 8 q 7 q 8 7 7 6 : , 6 + X G s < 7 7 < w y 7 7 7 < w m 7 < 8 < 8 q w w 8 y 7 7 q q 9 9 : 6 * X <.G 7 7 < 8 1 w 7 6 ",
"y y *.8 7 7 e q s s 7 < 2 s w 9 7 7 . . B.d.q 7 w 8 q 8 8 q w w < 7 9 w R s 8 8 y 7 7 6 8 2 <.m w q 7 7 . X R k 7 7 , 7 q y 8 8 ",
"8 8 1 1 e 7 7 y w w 7 7 w s w q , 7 X X d.y.8 8 t 8 7 8 q w w m 7 8 9 2 2 s q q w q < , 8 q w 9 w 1 7 , . X *.2 : 6 7 7 q y < 8 ",
": , 7 7 8 1 w v 1 y 7 , : 6 : 7 : : o @ ( ( w <.> 7 < q 6 5 : : 8 8 : 7 q 7 7 < 7 7 w 2 q 7 7 7 7 7 5 6 o X q 8 8 q y s q 7 , 6 ",
"6 6 7 : 8 < w w 2 q 7 6 7 6 7 q 7 6 X X ( ] w w q 7 < : 6 5 : , 8 < 7 : q : , 7 7 < y 8 < 7 < 7 7 , 7 : o o 7 1 1 8 8 8 7 7 6 : ",
"* X * X X o * * . . . . # X # = o # o o o * X X X X X X X X X X X . X . X X . . # = X X X . o o . . X o o X o X X . . X X o X X ",
"o o o o o X X # . . X X X o * # o o o o # # X X X X X X X X o X . X . . X . . . o # X X X X o o X X X o o X X X . X X X o X X X ",
"5 : n.9.B.B.9.y.d.d.d.d.k Y h.s.m m 9.y.y.x.y.d.y 8 q q :.d...Y 1 < 6 7 ; - #.:.y.9.s.h.h...=.9.R ( s ( :.( 9.9...#.y.:.:.( s 2 ",
"5 : ..s.B.s.#.9.d.9...d.k m x.d.( m 9.f.x.9.9.9.q 8 y 1 y.y.( =.q q < , $ $ :.J d.9.d.x.h.h...y.s G s w P ..9.d.:.:.y.d.k :.s s ",
"5 : s d s v 7 7 6 6 q y 8 < 7 q t s 7 7 7 8 7 7 8 8 8 < 2 w y w 6 % 6 5 $ ; =.R ( s q 8 q q 8 8 7 8 8 8 s s k s 7 7 y w 7 7 9 w ",
"5 5 =.( G s 7 7 : 7 8 q 8 7 q 8 s m 7 7 < 7 7 7 < > 8 7 w 2 8 q 5 : 6 : = $ m k s s y 8 1 8 8 q 7 7 1 t G w 2 s 7 7 2 2 7 < y 8 ",
"$ $ B.n.> q q y q q 7 : w 8 1 8 9 8 6 7 w w 8 q < q < 7 5 6 7 8 8 q , 6 . . =.( 8 7 7 7 s m 2 8 m k 7 : 8 q 7 7 q 8 w s *.2 7 6 ",
"= $ v.h.1 %.q 8 q 8 8 7 w 4 y q w y 7 7 2 9 s 9 8 8 7 : 5 : 7 8 y 8 6 6 . . K J 8 7 7 7 s s 9 q :.s 7 7 q 8 < < 8 q R w m 2 7 : ",
"# # B.B.8 < s w 8 8 m ( ( ] 7 7 > 2 G t y y 8 q 7 6 8 7 q 7 w m q 8 : - . . m G 6 : 5 6 y 9 y 8 7 e 8 8 1 w q 8 7 8 7 7 &.s 7 8 ",
"# o 4.h.7 7 2 t 8 q G m :.k 7 < q q 4 s 8 8 y 7 < , < < q 7 *.w q 8 5 - X . m ( : : 6 , t 8 w 8 q q 8 8 w w 7 < q q < > 2 4 < w ",
"$ % %.t s t R w 7 7 7 7 q t 8 < 6 7 : % 5 6 q q y y 8 8 7 7 7 7 7 7 6 7 # # 2 9 q q w 2 6 % 5 , 6 , 7 7 5 : 6 7 w s 8 y 7 7 < 8 ",
"$ ; 2 8 t 8 w 8 7 7 < , 8 8 < 8 : : % % : 7 8 8 8 w 8 8 7 : 5 6 , : 7 7 o o 8 w w w 8 y : , : % : , , 7 % : : : 8 8 9 t : : 8 y ",
"o o * o X X + X X & # X X # o o o X X X o * # X X . X = * o . X o X * X # X X o X . X o X # X X X . X X X o X X X X X . X . . . ",
"o $ o o . X X X X X # # # o # o o o X o o @ o X . . o # X o X X X X X X X o o o . . o o X o X X X X X X X X X X X X X X X X . X ",
"n.y.y.#.:.J P y.h.( :.y.y...m G ..:.P :.K =.8 q G s =...s.d.h.d.x.9.J ( y.( K ..9.x.9.d.s.d.w w ..( ( ( w w ( ( s.x.( P R s 8 7 ",
"x.x.#.9.:.( :.d.d.y.9.( 9...w s :.9.k ( ..s y 1 s m J d.4.#.#.9.h.s.( :.9.#...9.y.4.#.9.:.:.t 2 ( #...=.w w ..:.9.:.( ( G R < : ",
"w y 6 6 7 7 , 7 7 6 q q 0 7 1 q 0 6 8 w w 2 , 7 = # d.y.w w 8 y w w w w 7 7 7 < t w w w 8 7 7 7 q < *.w 2 8 2 R q 8 s m 7 , O = ",
"w w 7 7 7 : 7 7 6 6 7 7 6 6 q t 7 7 < y w w 6 6 $ $ M.x.w 8 q q 2 w 9 2 7 7 7 7 8 w s w 8 7 7 < 8 t s s y q s w 8 8 w s , , = $ ",
"s G w *.q < w R 8 q q 8 *.s y 8 w 9 < 7 < < 6 , = $ h.z.7 0 < 7 8 8 s G q < 8 8 q 8 8 8 8 w k R K R 8 8 8 7 < 7 s G w w 6 : # o ",
"] w 2 *.y w w m y y w q m w t q w 9 7 0 8 y < 7 o @ M.d.< 7 7 6 8 7 m m 8 7 8 7 8 1 8 1 y w ( s K k t y 8 7 7 q m G w 1 6 6 = # ",
"8 q < q *.R < q 6 7 7 7 y < 7 7 q 1 w w w R y 8 X X x.B.y q d.s w w 7 7 s ] s %.=.t.q q 6 7 w t 8 w m G < 8 w 8 7 7 7 7 t 8 . . ",
"7 7 w y =.w 7 < 7 7 6 : q 7 , 7 8 7 m &.4 w 8 q . X x.h.2 w s ( w 1 7 7 s s v s ] G 8 q , 7 w v t 8 m s 7 q 1 w 7 7 q < 8 w X . ",
"8 q q q 7 7 7 q w 1 q q 8 7 7 7 6 7 , 7 7 < 6 7 o X 8 < 7 7 7 < 7 7 7 7 7 7 : 6 5 : 7 6 w 2 1 8 7 7 7 7 % 5 5 % 5 - 7 7 q < X X ",
"q y 8 1 8 : 8 8 8 < w w < 7 8 8 6 6 7 , e 8 : 6 o o < 8 , 7 , 6 < 7 7 7 7 6 5 5 5 : , 7 2 y 8 8 6 7 6 7 5 6 % % 5 5 7 7 < q X X ",
"* * o # o o X # X . . . . . . X . . . X X X X X X X o o X *   . * X . . X X X X X X o X o o X X . . . .   . .   . . .   X X o X ",
"# o o o X X o o . X . X . X . X X . . . X * o * X * o o o X . . X X . . X X X * X X o o o o + X . .   . . . X . . X . X o o X X ",
"y.y.s w m s J ] h.s...( 2 w w 8 $ $ 8 8 m 4.h.n.y.x.s.h.K =.( k w w ( 9.4.9.#.9.( K d.s.#.s.y y 8 2 4 w = $ ..4.y.9.s.4.w s #.( ",
"d.J s 9 ] s ( u 9.d.:.:.w s 8 < = = 8 8 #.:.9.V.d.h.h.d.k m k J w 2 ( m ..9.y.9.k R h.v.b.9.w 2 w q w w $ $ y.y.s.h.O.:.9 w =.:.",
"y w 7 7 < < q 7 v w 7 7 7 : 7 > . + k t.R w 7 7 q < w y 8 7 6 5 7 < 9 2 q 8 e 8 m v R s 8 7 7 5 8 7 6 6 o # d.y.8 w 6 7 7 7 7 < ",
"8 8 6 6 > > < 7 w 9 < e 7 6 q 7 X . ..] s m < < q 7 q 2 7 < 7 , 7 < w w 8 q q 8 %.w s w 7 7 7 5 8 q 6 5 = $ h.9.2 q 7 , 6 6 7 7 ",
"7 , w w s y 7 , : 6 < q =.w 7 7 & X :.( 7 8 8 q q 7 8 8 w 2 w s : : w 9 w w w s 6 6 7 7 q w w 9 s t % 6 . . h.s.: : q < w m q 8 ",
"7 q w G w 1 8 8 7 7 < w R s < 7 X X :.d.7 < 7 8 q 7 8 8 s s m w , , 9 4 s w t s , 6 7 7 y q w 4 m s : 5 X . M.d.7 6 8 1 w w 8 1 ",
"7 < y 8 6 : y q s s w y y < 7 7 . X d.( 7 7 s m s s s w 8 1 ] u w w q 7 , 7 , , y 8 q y m s ] s 8 8 6 : X . d.h.< 7 < < , , G s ",
"8 q y 7 7 7 8 w s 2 9 8 q 8 6 6 X X ] 9.7 7 ( k w t w s 8 8 s ( m s 8 8 7 5 : 7 8 1 q 1 s m m 9 8 q , , X X #.9.< 7 < 7 7 7 G ( ",
"*.&.m w 8 7 8 8 1 w 7 7 w 8 : 7 . X 0.#.s 9 w w 7 7 m m y 8 7 , 8 y t 2 7 1 w y s w 7 7 8 8 7 6 8 8 q q # o s *.s 2 G w q 7 q 8 ",
"*.w w 9 1 < q q w 8 8 7 t q 5 6 X . ] ( s 2 1 8 < 7 R ( w y 7 6 < 8 y y 7 8 w 4 ( *.7 7 8 7 6 6 7 8 > q o o t w w w *.s 8 8 < q ",
"7 6 : , 7 7 6 5 6 % < 7 7 7 7 7 # o 8 7 6 % 5 5 8 7 7 7 5 5 , , 6 : 6 6 5 5 7 q q y 8 w 8 q 8 7 : : 8 7 . X t 8 : 6 : 6 8 8 : : ",
"7 6 6 7 < 7 5 % : 5 7 q : % 8 8 o = q q 5 : % 6 7 7 6 : 5 6 , : : 7 5 5 6 5 7 7 8 8 w w 7 7 < 7 : 6 < q X . t y 6 5 % % 1 q 7 : ",
"X X # X o X X . o * X X X . # * o o X * . . . . . . . X o o o o .   . X o X . X . . * o o o * o $ # X X X X o @ X . X X X X . . ",
"X X X o o # X X X # X X . . # X X o o X . . . X X X . . o o X o X . X X * o . . . . o # o = # # o # . . . X o * . X o X X X . X "
};
