/* XPM */
static char *e13405b8ec064b25a61be5567c093739aABurqoo7hMYO3uA[] = {
/* columns rows colors chars-per-pixel */
"64 64 166 2 ",
"   c #6A472F",
".  c #6A492E",
"X  c #724D2F",
"o  c #6E4D33",
"O  c #714E35",
"+  c #6F5035",
"@  c #735136",
"#  c #7C5435",
"$  c #755339",
"%  c #7A563A",
"&  c #7C593C",
"*  c #903F27",
"=  c #8F422A",
"-  c #95452D",
";  c #99462E",
":  c #97482F",
">  c #9B492F",
",  c #974730",
"<  c #9A4730",
"1  c #974930",
"2  c #9D4A32",
"3  c #835635",
"4  c #895736",
"5  c #855837",
"6  c #8C5A36",
"7  c #825739",
"8  c #855A3A",
"9  c #8B5C3B",
"0  c #945C36",
"q  c #985B35",
"w  c #925E3A",
"e  c #9A5F3A",
"r  c #A44827",
"t  c #A2472C",
"y  c #A54C2E",
"u  c #AB4E2E",
"i  c #B14F2E",
"p  c #AD502E",
"a  c #B3532E",
"s  c #B9562E",
"d  c #B35A2F",
"f  c #BB582F",
"g  c #A34D32",
"h  c #A94F31",
"j  c #A34F38",
"k  c #A65034",
"l  c #AC5233",
"z  c #A55138",
"x  c #AB5338",
"c  c #B35533",
"v  c #B95631",
"b  c #B55934",
"n  c #BC5A34",
"m  c #B15638",
"M  c #B65C38",
"N  c #BC5D39",
"B  c #86613F",
"V  c #8E613E",
"C  c #95613C",
"Z  c #9B643D",
"A  c #9F683D",
"S  c #A0673E",
"D  c #AF623C",
"F  c #A16A3F",
"G  c #B66136",
"H  c #BC6136",
"J  c #B4643C",
"K  c #BD643B",
"L  c #B76C3E",
"P  c #BC6A3D",
"I  c #BD703E",
"U  c #C15D35",
"Y  c #C35E38",
"T  c #C36136",
"R  c #C3643A",
"E  c #C9663C",
"W  c #C36B3D",
"Q  c #CB6A3D",
"!  c #C3713E",
"~  c #CD703F",
"^  c #855E41",
"/  c #8A5F41",
"(  c #866143",
")  c #8B6142",
"_  c #936543",
"`  c #9B6742",
"'  c #956846",
"]  c #9C6A45",
"[  c #966A49",
"{  c #9A6B49",
"}  c #996A48",
"|  c #9D6B48",
" . c #9F6E49",
".. c #9E6D4A",
"X. c #9F6F4A",
"o. c #9E6E4C",
"O. c #9F6C48",
"+. c #9F704C",
"@. c #A26D43",
"#. c #A66F43",
"$. c #A06C46",
"%. c #A16E47",
"&. c #A46C45",
"*. c #A66F44",
"=. c #A56F47",
"-. c #A16942",
";. c #AD6D42",
":. c #A16F49",
">. c #A26D4A",
",. c #A16F4B",
"<. c #A36F4B",
"1. c #A66F49",
"2. c #B06D44",
"3. c #BC6E41",
"4. c #AB7046",
"5. c #AD7247",
"6. c #AD7446",
"7. c #A1714A",
"8. c #A3704B",
"9. c #A77149",
"0. c #A4724A",
"q. c #A3724F",
"w. c #A5734C",
"e. c #A5734E",
"r. c #A7734E",
"t. c #A5744F",
"y. c #A7744F",
"u. c #AA724B",
"i. c #AD7349",
"p. c #AF764A",
"a. c #BE7343",
"s. c #B1774A",
"d. c #B4744A",
"f. c #C76F40",
"g. c #C46E41",
"h. c #C86B40",
"j. c #CA6E42",
"k. c #CE6D40",
"l. c #CA6E43",
"z. c #C77140",
"x. c #C47341",
"c. c #C47442",
"v. c #C37443",
"b. c #CA7442",
"n. c #C87745",
"m. c #CA7546",
"M. c #C97544",
"N. c #C57844",
"B. c #C47946",
"V. c #CB7846",
"C. c #C87B47",
"Z. c #CA7946",
"A. c #C27648",
"S. c #C57B49",
"D. c #C87948",
"F. c #CF7949",
"G. c #CF7B49",
"H. c #CA7D4A",
"J. c #D27244",
"K. c #D27546",
"L. c #D17A47",
"P. c #D17C4A",
"I. c #CB814D",
"U. c #D0814D",
"Y. c #CE8450",
"T. c #D08451",
/* pixels */
"i.4.s.p.Z Z 9.%.7.,.] ] ,.w.t.7.*.@.] ]  .] ] ] ` ` ` | C C  .q.+.] Z Z 9 6 Z C 6 w ' ' _ [ C 6 Z Z 0 w _ ' ] ] C C Z F Z C { { ",
"#.*.5.6.Z ` t.] ] 7.] ] t.w.,.w.1.9.,.,.] ,.] ] ` %._ ` C w |  .] ] F A 9 3 Z C C C ' _ ' _ 9 C Z Z w C _ _ ` ` C C Z S 0 ` ] o.",
"*.*.R T W Q W W Y R Q Q n n n E n n n n T R n U W W Q R j.W U E n Y b c w V G.M.D.! z.n.G.! n n K K l b R W E E b n b N n n b u ",
"u.9.R R W W W W Y n k.J.R n K R n n n N T R U T R R R E h.W Q U n Y M b 9 9 L.G.C.B.n.c.n.n.H H K H l l R W E T b a n b b b b c ",
"6 6 R R s f l h g g b b l c 2 2 c l Y Y b c g 2 u c u l < g 1 g c b g g o . z.f.n N b c v c l z g g l u 2 j s n a a u y n v g g ",
"C w R E n s l l g ; n n u c 2 g h l R n b i g > u c l c 2 > g z b n > g % $ f.z.b b b c n v l h g g u l 2 g v n a a l h n n ; ; ",
"w 6 N G g ; l h n v b l c l b a b c g j c u l c 2 2 y h s b p c b b g 2 @ @ K R l x z x c b n c h l v n k k l l l l s v 2 > v s ",
"9 6 N K g 2 l u v n l c c l n n c c j k c c c c ; 1 > h n v l u c c ; 2 @ O K h.y y g g b c n n l l v n g g u t u l n Y j g b n ",
"` Z R E c c h u u l 2 2 l l s s l l s n l u l u n a a b l l 2 g b b 2 j / 8 f.f.g > v n 2 ; h ; l b l l T s g ; 2 > v n s n u u ",
"` -.E Q b a x h l g > < g l n n l c Y n p u h c b a b p l h > 2 b a > g ) 9 l.h.2 g n n 2 2 h h l l h u n n 2 2 2 g s f U n z l ",
"Z C n v h h b b n n c c - 1 - 1 h z 2 1 1 1 b c 2 ; 2 - - 2 x c k g c u $ % E T u l c l c u l l l u 2 1 - > a a c t b s 1 - - - ",
"C Z n n x h v n v n b a g g 1 - l y 1 1 - - b u 1 ; 2 : ; > u u y g u a O % Q R l u c c a l h u h y - - - - u c u h c a 2 ; - 2 ",
"w w & % 7 8 o $ ^ & o @ o @ o $ O @ @ @ o @ o + 7 # % # $ o % & O $ 8 3 8 8 ` ` @ & 7 7 $ & & % @ % o $ % & @   @ $ 9 9 $ @ $ @ ",
"w 9 & & 7 8 $ @ 7 % @ $ @ @ @ o $ o $ % $ @ $ O 7 7 # # o @ # $ o O 7 9 9 9 ` C $ $ 7 9 O @ % % $ % $ @ # % o O $ O 5 9 o $ . $ ",
"H.S.P N.v.L a.N.a.L 3.a.P K W R R R C Z d.;.G.c.a.A.a.A.S.H.C.n.C.H.P.n.G.N.c.N.z.n.a.A.a.A.S.A.H R b d w w G.c.x.S.z.n.c.b.n.M.",
"B.B.D.v.L J a.v.3.a.C.a.J M n R K K 0 w d.2.n.M.B.B.A.A.B.B.c.x.S.v.c.n.N.v.n.g.C.P a.a.a.A.A.A.G b b b 0 C z.c.v.v.C.x.n.z.n.n.",
"l c Y Y g 2 x l a b b n n n 2 2 y y Z ` z.b.Y Y ; g x l c c b b b u c c 2 g v Y l l u l l l g k l l b b $ O n.n.b b j g b c h h ",
"c c Y n g 2 c u c l b c b n ; 2 y h C -.K.z.n n 2 ; l u c b b s b c b c 2 g v Y l c c l y h > g h h u c $ $ D.n.b a g g s b h h ",
"l c l l l u 2 g c b g , u l n a h h $ % P K y l s n l h 2 2 l c g g ; ; n s l c g k g g v n z l a b x h @ @ a.S.l l l l v n n a ",
"c l c a c l 2 g n b - - u h n a u h & $ P P u l n s l k 2 2 l p > h ; - v a c c h h ; 2 f v l l a v y j % o H.v.l l u l a v n v ",
"n n c h 2 g n n l l b a y l v v Y n % $ P.b.l k g 2 x l v n 2 > ; g s n l h u h Y n U n n f M c g g b a @ $ x.x.l l s n l c g 2 ",
"n v h h z 2 n n h u n v h l v n n n % % z.z.l l g > z l n U 2 2 2 j v v u h h l Y n n n n Y p u g ; i a $ $ v.L u l n n x c ; 2 ",
"- ; - 1 c u s n u l k u - - y h - - 9 9 E E u c u p u c 2 1 u t h h - 2 2 > a i 2 2 1 - 2 1 u u a i u l 9 7 J J - : - 2 l l u u ",
"1 1 1 * c a b c u h l g 2 1 h l 2 2 5 3 R E h h c u u u ; , u h h t 1 - 2 - u c ; > 1 ; > - u u a u c u 8 9 D J - , - - u u u u ",
"& O $ o 3 9 & $ $ @ @ O 7 3 & ^ _ _ 9 9 _ [ & $ $ $ $ $ $ @ 5 5 % O % $ @ @ o @ 8 V @ $ 7 % 7 # O O 4 6 3 3 _ ) @ @ @ @ 3 8 $ $ ",
"$ $ @ O 8 7 o $ O o $ $ 7 8 8 & C _ 9 8 _ _ % & % @ $ $ $ $ 9 7 o O O O $ @ o o 5 9 $ $ & 8 # 7 O $ 9 6 6 3 ) 9 o $ $ @ 8 7 $ $ ",
" .] G.N.P.U.B.I.H.S.I.I.a.v.H.C.a.a.z.c.B.G.c.n.N.A.S.B.v.D.x.! G M l b Z ` B.S.S.S.S.I.I.B.g.z.N.D.x.n.3.L z.n.v.A.3.3.B.B.R G ",
" .] x.n.G.C.B.H.H.B.A.I.x.N.G.G.v.3.f.c.G.n.x.n.A.a.S.a.A.x.x.v.L K l l C C N.v.H.H.H.H.H.I.W N.v.z.f.P J L z.n.A.A.3.v.a.N.W K ",
"w 0 W K k z 2 g l x b N x l c b n n < g l c z z l l h y > > c c z u g 1 C ` n.z.n c g g l c h l h z h h 2 2 l l 2 2 c c j g ; 2 ",
"C w b.j.y h g 2 u c b b c l c b v n g > p c h z t u z h ; ; u l h u 2 ; _ w n.z.b c j g p u l l u k u m 2 > y l g ; p a g g 2 ; ",
"w C b.Q - g x c n b 2 - n n f v > 2 g j n b h l u c f n g h g g b b ; g O @ W R b c l l 2 g u h b s n a y l 2 g n b u l R a z h ",
"C C ~ Q ; z c l n v g 2 U f Y n g 2 h h a s c p l c R v h > 2 g n b g g @ O R Y b c l l 2 2 l l N s n v l h > > b n c h Y v j y ",
"Z C K.K.n c c l u l h h U Y l l a n n n l m n n v v 2 1 l u a v n n u h % O j.W c u 1 > l l Y v b N 1 2 y l Y n b b 2 2 z l n n ",
"Z w E k.n b u l y l > h R n l l U Y s n l h Y v n v ; ; l h n n n n z l % $ j.b.l l 1 - x l Y n n n > ; l c n f M b ; ; y u v U ",
"0 0 R R c l l h - - c c b n b u > 2 u u > > a a c c l l l h 1 > > > - 1 $ $ a c > > u t l t y y 2 > p l - - 1 2 ; 2 t h u p - ; ",
"w C b b l y u y , - p u c b p c - - t y ; h p u p a c a l t - 1 - - 2 2 O O a n 2 > u l y u y > : - y c - - > ; : 1 h l u t - 2 ",
"Z ` w 6 $ $ % $ @ % 9 8 O $ 5 3 @ @ $ $ $ & % O $ @ % ^ & & $ % % @ 9 5 8 8 9 9 $ o $ % 7 B & & $ @ % @ 7 8 o @ 7 3 % O 9 3 O $ ",
"` ` w 6 @ $ % @ @ @ 9 9 % $ 9 5 $ @ $ $ $ % $ O @ @ % & $ & % % O o 8 8 5 8 _ V O o $ $ 7 9 & % $ $ $ $ # 7 o $ # # $ % 8 9 O @ ",
"H.S.B.a.S.B.a.B.B.3.S.I.a.P g.I B.S.a.a.P g.M M q q H.B.B.S.I.H.S.a.B.B.P P N.C.z.n.C.G.v.A.3.a.B.B.S.B.W W W ! G.G.C.M.K G C 0 ",
"I.H.a.A.S.S.A.H.A.a.H.S.a.P P 3.B.B.L 3.g.P K b q e B.Y.a.a.B.H.S.B.B.S.P P n.G.c.! c.c.3.a.A.L B.B.I.H.P W W ! M.N.C.C.G K 0 0 ",
"l l b n v n u h b c g g M b s n x h > 2 l u h z & $ N.A.b b b n 2 g c b l c v s x l g g n b b n x y b c f n f Y n b 1 g x l 4 9 ",
"l l n n n a l l c c 2 1 c b b n g z ; 2 l p h g $ $ S.C.n v n n ; g l p c c n v h l h > b c n b h l c b Y n U n n b ; 2 u u 6 6 ",
"v n u x 1 > h x n n n s x z 2 - g y a b v n 2 > $ $ S.S.a b 2 2 g g v n Y s > g c l v v 2 g c c v n v v g 2 - 2 l p l l v c 9 3 ",
"Y v y l 2 g y l T R n n l h 2 2 g y b n n Y g 2 O $ I.B.c a 2 2 g > n n Y v g 2 l u b a j g b l v s Y n g 2 2 g l l u u b c 9 5 ",
"l l l b n n s n l l 2 2 x y n Y Y s a b l x c i $ $ N.D.h h b u s n U v g z l x n n x l l l n Y s n 2 1 u h l u n n v v l u o o ",
"h l n b N n s b c x 2 ; l l f U n v v n u u l c @ $ z.z.y u u c n s n v g > l x n b l l u l n R T n 2 > y l t l n n Y v h h @ o ",
"n n n U l l 2 g 2 - b b b a 1 1 - 2 > 2 u t u c 9 9 G G l h l u - 1 ; > u h u u - > h u > - - < u l l l t y 1 - 1 - c p c u @ O ",
"n Y n n l u 2 > ; - n b c l ; 2 < ; > > b u u l 6 9 M G u l u h ; > > ; y y u h - - u c - 1 < 1 h l l c u h - - 1 1 u c u b @ $ ",
"( ( $ $ 8 8 o @ @ @ o @ 8 7 o $ O o 7 9 7 7 ) ) 3 3 C C o $   @ % o # 7 o O O O @ o 5 7 $ O @ $ # 7 $ @ O $ @ . 8 8 o o 7 # 9 3 ",
"( ^ @ @ 7 7 @ $ o $ O % 8 9 O $ O O 8 8 8 / [ [ 9 9 C C @ + O O o @ 7 7 o o @ % @ O 7 8 $ @ % $ 7 7 X O # # O @ 7 8 o @ 7 3 3 3 ",
"S.I.P P N.x.K P S.v.A.3.b b K M w 0 x.g.P z.I.I.B.B.B.H.B.H.z.P S.B.B.H.f.g.x.A.3.g.A.B.B.H.a.a.W K b H C 9 W x.v.A.H.B.P W z.W ",
"H.v.P K S.x.P G v.B.A.A.b n b M C Z 3.x.W x.S.T.B.B.S.B.A.A.W z.S.B.N.a.P f.A.v.P a.B.B.H.B.a.3.W K b K 6 w x.c.B.H.B.S.K W z.c.",
"c c g g p p n c l h 2 2 2 ; k y $ % P N.n s l l x u c l g 2 b c l u c p g 2 N b l z n v n b l g l h h j # # g.! c b h l g 2 1 ; ",
"l h 2 > u u v b j g ; z 2 > l h $ @ x.x.n n h u x l c p > ; b b h h c c g 2 n b x h n n b v h y h l z j 7 # n.W c c l u 2 1 2 ; ",
"b c h h 2 1 g > y h u l R v g h & $ v.a.c c 2 g l l n n h t n Y u u n b u h l c 1 1 x l g 2 l l n n > j 8 8 C.N.; - l t s n n n ",
"n n g h - = k h k l u l Y n y k $ % v.A.l l 1 g l u n n l l Y n u p a s l h l c < 1 l h g 2 l p n v ; g 9 8 G.n.2 2 p u s b n n ",
"h h g > b a b c n b 2 g Y b c c % & n.W l l s n U Y l p g > b p n n g 1 b n n n n n g g n n n s ; > c u % $ W W u l s b h y n n ",
"h z z ; v n c c s u ; 2 n v l c % $ x.c.c u n n n Y u l g g l c n n 1 2 n b s n n s 2 ; s n n a 2 2 c p O $ R W u l s c h h n Y ",
"j g n v n n < 2 - > v n l l t l % % W R n s l l 2 2 l l n n n s l c n s v s h h 2 ; n n l l l h n n x c $ @ R W n s 2 > 2 1 l h ",
"g 2 v v n s 2 1 g 2 n v l u h h % $ R R n a u h > g l c Y T n b u l v n v n l u 2 2 v n l l j h v n t l @ $ R K f v g 2 1 2 u l ",
"c c - 1 1 2 c l l y ; g l c p u 8 # N b > - 2 1 h h h g 1 1 > 2 u u 1 2 1 , 1 g a v u b 2 2 ; 1 ; ; h l 8 9 K G - 2 > 2 p p u u ",
"c l > 2 ; 1 l r u u g k u t c c 7 9 n n 1 ; = 1 u l y ; 1 1 ; ; u l 1 , 2 1 ; 2 a c b b 2 > - - - 2 u c V 9 K G 1 1 - - u a c u ",
"9 9 @ o @ @ 9 7 $ % 6 5 $ $ 9 ) 9 9 w ` @ o o @ o @ 7 8 @ @ 9 9 3 3 $ $ @ o 9 ) 9 8 & O 9 8 9 8 $ $ 9 9 8 5 Z _ % @ o @ 8 9 o O ",
"3 3 O o $ $ 9 8 O $ 9 9 @ O 9 7 8 9 C 9 o o @ $ O $ 7 # @ @ 8 9 9 8 % % $ $ 9 7 8 9 @ @ 7 ) 9 9 @ $ 3 6 3 9 C ` @ @ @ o 9 7 @ $ "
};
