/* XPM */
static char *_4cb7a766db64335c95eb75c18a9b247yK6ERyGbrKWhjcrz[] = {
/* columns rows colors chars-per-pixel */
"64 64 171 2 ",
"   c #7B573E",
".  c #7B583F",
"X  c #7E5B42",
"o  c #855D3F",
"O  c #9C573E",
"+  c #9A593E",
"@  c #A34C37",
"#  c #A44F3A",
"$  c #A6523C",
"%  c #AB553E",
"&  c #A35C3E",
"*  c #AD593F",
"=  c #B1573D",
"-  c #B45A3E",
";  c #B95D3F",
":  c #B7603F",
">  c #BD613F",
",  c #C0633E",
"<  c #835E44",
"1  c #8B5F42",
"2  c #855F48",
"3  c #955D42",
"4  c #9E5D44",
"5  c #A45542",
"6  c #AC5641",
"7  c #A55B42",
"8  c #AE5942",
"9  c #A95F48",
"0  c #B15740",
"q  c #B45B42",
"w  c #B95E42",
"e  c #B45E49",
"r  c #856146",
"t  c #8B6345",
"y  c #8D6947",
"u  c #856249",
"i  c #8C6649",
"p  c #8E694A",
"a  c #916646",
"s  c #9C6145",
"d  c #936847",
"f  c #996A46",
"g  c #916749",
"h  c #9C654A",
"j  c #936A4A",
"k  c #9B6E4C",
"l  c #9D714D",
"z  c #976F51",
"x  c #9A6F50",
"c  c #9C7151",
"v  c #A36144",
"b  c #AB6245",
"n  c #A26A46",
"m  c #A46349",
"M  c #AB6449",
"N  c #A36E4A",
"B  c #AB6B4B",
"V  c #B56245",
"C  c #BC6244",
"Z  c #B36B46",
"A  c #BB6B45",
"S  c #B56249",
"D  c #BD6448",
"F  c #B46D49",
"G  c #B96D49",
"H  c #A3734E",
"J  c #AB734E",
"K  c #B27047",
"L  c #B5734D",
"P  c #BC724C",
"I  c #A47551",
"U  c #A97751",
"Y  c #A97955",
"T  c #B87750",
"R  c #B77953",
"E  c #BC7A52",
"W  c #C16644",
"Q  c #C46A45",
"!  c #C86D47",
"~  c #C16649",
"^  c #C56B49",
"/  c #C96E4A",
"(  c #C6734B",
")  c #C8714A",
"_  c #C8744B",
"`  c #C8704C",
"'  c #CB724C",
"]  c #C8714E",
"[  c #C9744D",
"{  c #CA754C",
"}  c #CA754D",
"|  c #CA764C",
" . c #C9754E",
".. c #CB754E",
"X. c #CB754F",
"o. c #CC774F",
"O. c #CE774F",
"+. c #CA744D",
"@. c #C7784E",
"#. c #C4794D",
"$. c #C8784C",
"%. c #CA784F",
"&. c #CC784D",
"*. c #CD784F",
"=. c #CA784F",
"-. c #CB7750",
";. c #CC7750",
":. c #CE7750",
">. c #CA7650",
",. c #C77D52",
"<. c #CD7950",
"1. c #CD7851",
"2. c #CC7850",
"3. c #CD7852",
"4. c #CD7A52",
"5. c #CF7B53",
"6. c #CA7D52",
"7. c #CD7D52",
"8. c #CF7D53",
"9. c #CE7C53",
"0. c #CC7E53",
"q. c #CE7F53",
"w. c #CF7B54",
"e. c #CB7E54",
"r. c #CD7D54",
"t. c #CF7C54",
"y. c #CD7F54",
"u. c #CD7E54",
"i. c #CE7F54",
"p. c #CD7F56",
"a. c #CF7F56",
"s. c #CC7C52",
"d. c #D17C53",
"f. c #D17D55",
"g. c #D37D55",
"h. c #D17E54",
"j. c #D17D54",
"k. c #CB8053",
"l. c #CD8054",
"z. c #CD8154",
"x. c #CF8155",
"c. c #CD8355",
"v. c #CF8254",
"b. c #CF8056",
"n. c #CF8156",
"m. c #CD8256",
"M. c #CE8357",
"N. c #CF8256",
"B. c #CD8256",
"V. c #CE8358",
"C. c #CF8559",
"Z. c #CE8559",
"A. c #CF885B",
"S. c #D08054",
"D. c #D08154",
"F. c #D28055",
"G. c #D18057",
"H. c #D18157",
"J. c #D18357",
"K. c #D08256",
"L. c #D18457",
"P. c #D18256",
"I. c #D28358",
"U. c #D08558",
"Y. c #D28559",
"T. c #D18658",
"R. c #D18559",
"E. c #D3885A",
"W. c #D2895A",
"Q. c #D28A5C",
"!. c #D68C60",
/* pixels */
"Y I U U j j y t j j H J k k U I k j j j j j u t l l H I H J I I I k H I j y j j u y j j H I k j H k d j H H j j y j k l k d j j ",
"H H J H j j j t d k I H I l H I k k k k d j u u k I l H H N k l l k U H p u j a j j j j H k j l H H j j k k j j a j k N a c a j ",
"t 1 ] ^ r.v.r.r.1.g.&.1.o.{ { g.v.r.W C W W _ o.K.R.E.v.r.{ Q &.v.L.L K i y K.1.r._ 9.K.w.Q Q W R.C.v.R.9.K.] ] r.v.-.:.#.r.Y f ",
"i i / ] r.9.9.9.1.] 9.I.d.:.%.1.v.v.C D C ~ { g.9.R.v.K.{ { 1.! v.W.E L y i K.K.v.k.K.r.{ 1.) ( V.v.C.v.v.K./ W v.%.{ -.e.6.I I ",
"< < ^ ^ W Q C w w C ^ ^ C ~ 6 6 ^ W C W q * C C $ 6 % 6 C W w C * q w w X   v.9.e C C w q 0 Q ^ Q W Q W w C ; C W W q q q * p j ",
"u 1 ~ ] ^ W C C C - / / C Q 6 q C C ^ C = % ~ C $ * 6 q C C ~ ~ q w q D r 2 6.g.q q C w w q Q Q Q W W Q q w C W Q Q C q e 0 u t ",
"j a ] ( 6 $ 6 % W W ~ C C w w - C q D C 6 $ C C C w C W C Q * e / ^ m m < X W W C ^ C D C w q * W Q q 6 ^ ^ Q Q 6 * - w C w u t ",
"i g ^ >.* % % % C ^ w C C C C w w q W ~ 6 6 D ~ - w C W Q W q = ! Q O m X X Q / w w w C w w q e ^ W q q W W W > $ q C W W C t p ",
"j j ~ ^ W C W C Q Q * 6 * q Q Q q 6 W Q W W ^ W ~ w % q w C W Q C V v m 2 < C.C.^ W ^ ^ C ; % @ $ q ~ C ) C e % C C Q ! * 8 a a ",
"k k ^ :.Q C / C / W * 6 $ * / ^ 6 w / Q C W W ! C - 6 $ w w W Q C - 4 4 u r R.v.! Q ) ) Q W 6 6 6 6 w w W W 6 6 C ~ ! W q 6 g j ",
"I k ^ ~ q q C C w C w w w W $ 6 C W C V 6 6 C C C w / C @ 6 D D C V b 5 y j -.^ - C C w w - q 6 C w D C % % ; w C - 6 6 C ; 1 1 ",
"H J ~ ^ V q W ~ - w w = ^ ~ 6 # W C w w $ $ C w w q / C $ $ q - w C 5 b t j 2.] C = C C ; w 6 6 C w w ; $ $ - C w w 6 % W C < 1 ",
"j j i u t j X u u r < t X r r i X < < < X r u y u X < X r X 2 u 2 t u o r t l H t p r u y j u 2 a j u i X u <   d j r 2 i u g y ",
"j i u t t p t r < < t i < 2 u 1 2 X r r r < j y < <   X X < 1 < r r 1 t p i l f y i u j t t 2 r d j i y < < < < a y < 2 t i o j ",
"R.v.Q 1.] Q ^ ] k.6.e.k.K.1.9.2.T R j k 2.( K.6.{ 2.k.v.C.C.9.{ 9.v.I.1.Q.I.R.C.{ 1.{ 9.{ %.Q.R.C.Q.L K k j I.K.9.V.^ ] %.-.1.1.",
"C.v.9.] ^ Q Q ^ r.v.Q.v.2.@.] 2.L R g i r.] r.9.r.r.C.C.v.e._ _ 9.{ 2.9.L.v.R.r.1.( %.2.{ -.R.R.A.C.L F j k 1.9.6.1.1.^ 2.{ 1.r.",
"W ^ q q 6 % C w W Q C C Q W q q % % t i 9.r.w w - D e q ~ W Q ^ e $ 6 6 C Q w C C C q - q q C C 6 6 8 8 t u ( ^ 6 q / / W C % $ ",
"^ Q q * q 6 w - Q Q C w W ^ $ q % * u g K.r.w - w - 6 % C ~ W C e 6 * q ~ C w C w W C q $ * w C * 6 $ 8 y i >.~ 6 * ^ Q C C 6 * ",
"C ~ C C W W W W % 8 D q $ $ C w A Z X < v.V.- C W Q q q C C 6 6 w w C C W C * 6 C Q e q % q C C ; C M 4 2 r A ] W C 6 6 C C C = ",
"~ C C C ! W W W q % - q $ $ C = A A u u C.C.V C ! W q q W C % $ - C C ; C - * 6 C C % 6 % * C C C C O 4 i X 2.A W C $ * = w C w ",
"w w o.! * 6 D C C C C w * w w w M v < < I.1.Q W C w q 6 * 8 C C C Q w C ^ W W W e * W C w ; ] Q W C m v < < k.6.C C W Q w C Q W ",
"q q Q ! e * C C C w Q W q w w C 7 M 2 2 -.2.W Q D w q q 6 q C Q Q ^ w - C W ! ! q q W W C C W C W ; 4 4 r 2 C.#.w C Q ! D C C Q ",
"C C * 6 C - q w * q q - C C % 6 3 1 j k P #.* D ; C C ^ ^ C q $ 6 6 ; Q q * * $ w e w = e q % % 6 % b M t < P P $ 6 6 6 ^ ^ - q ",
"C C q @ C w q q % * q 6 ^ ^ 8 S h a j a G ( q q Q C Q W Q W q q 6 $ ~ C e $ $ q q w w - q 0 % 6 % % M & u 1 P P $ 5 $ $ W W q = ",
"z y u X X u i u j j j y t r t j u t j j i j t r j j < r t r < < u X g t r r X < j x j j r X < X y y u y y t p i r < < u j j i i ",
"j y < X 2 < X r g y j j u u p t r u a i p j u t j y r r p r u < X < u u u < X X y j j j < u X < a g i a g u i u . r u r j g u u ",
"k k E.r.I.Q.v.C.R.R.R.C.{ %.C.v.C.C.&.1.%.r.{ :.A.C.A.C.{ g.1.%.%.%.F L k k v.R.C.C.9.v.r._ v.R.W.Q.-.1.1.{ { 2.k.v.C.v.9.1.N N ",
"k k 2.K.I.v.k.v.I.v.6.R.{ 2.R.I.R.C.:.9.1.{ { { A.C.W.k.1.&.%.1.v.r.F Z j g g.9.Q.C.1.d.r.r.r.R.R.C.] ^ _ %.{ 1.C.V.C.R.@.9.J N ",
"u 1 ^ Q 6 8 6 6 q w Q / C w - V 6 q W Q w C C ~ w w w - w w e q 6 % C q j l 1.{ Q C q = Q Q 6 6 6 e W C e e * * C C C w 6 8 t y ",
"y t 1.o.% % * 6 = D W W C w q q = e Q C ; ~ C ~ = - C e w - * q 6 $ C * x j 2.@.C C q - W C 6 q * q > / w - $ * C w - w % % g t ",
"k l Q.W.W ! C C Q ^ 6 $ C - W W w w C W * % C Q $ 6 $ 6 q w Q W W W $ 8 y i ^ ^ w w W Q C C W W w - 8 # $ q q w ^ W - C e # u r ",
"c l W.R.Q o.C w ^ ^ 6 * C - ^ Q w C W C $ $ ^ W 6 % 8 $ w - Q Q ^ C 9 9 i y ~ W C w ^ Q C w Q Q ~ - 6 % 6 6 = - Q ^ D q q $ u X ",
"i t K.I.! C C w - w Q / / / C C , Q 6 6 C D C C W C w q q % % q C C $ 5 r < V.k.^ w C C e q e % C ^ % * ; W ! ^ C D ! Q ] ! < r ",
"i 1 ) 1.^ Q - C - D Q Q ' Q C w ! ! % q w w D q W W - = q % q * ~ C 8 5 2 < C.W.W C C - C q q * W ~ % * W W Q W D C W W W Q < u ",
"a d ,.#.C C / W % $ 6 6 ^ ^ q $ * e W C C w 6 * 6 6 C C ^ Q C C 6 8 M F u r G P 6 6 C ; ! W W W C V w w % % w C = w $ 6 C C d k ",
"j k G A D q Q C 6 * * $ Q W % 6 * * C C w W 6 % % 6 C W / > w C % $ F F 2 < G ( 6 6 w C Q Q W C w - * e $ $ q - % % 6 q - - k I ",
"y j j t < r j i j j r X y j g a t u t y j l u X r X < p j j r t u r j t p t 1 u u X < r u p j j j y t 2 < 2 r y < < j y p t u i ",
"j k i u < u j y a y 2 r j g j j i t t y y j < X < X 2 r t j u t 2 < y i u i j t < X r r u i j a d j t r < < 1 i X . j k i i u t ",
"I.v.2.{ C.k.( 9.v.@.e.K.C.6.C.C.{ { 2.v.6.I.L L d d R.v.C.C.K.V.R.v.6.r.C.,.r.K.1.g.C.Q.9.r.k.v.( ( C.C.%.2.{ { d.K.C.L.v.6.J B ",
"R.R.@.1.W.v.{ K.r.r.9.%.v.6.C.C.{ 1.{ 6.K.e.E Z d j 6.Q.k.k.2.r.C.C.6.v.6.k.K.E.9.%.v.v.2.&.C.,.( ( W.R.{ %.{ &.1.2.R.R.6.v.n n ",
"Q ^ % 6 * w W W ^ W C C q 6 - C ] W * 6 % $ q S j y { { w w W / Q Q C w 6 6 q - W C W W D C * 6 e * ^ C w w $ e Q W Q Q D q 1 i ",
"Q Q 6 q 6 $ W Q W Q q w % 6 C W W / $ 6 * * w q y i r.d.C C Q Q C Q w - 6 6 e w w C W C C w 6 $ 0 e W W C e q * Q W W Q - - i u ",
"w C W ^ w - % 6 % 6 C C / Q 6 % % % - w C C 4 s r < 2.%.W ! q q 6 6 0 - ~ ; W W V q Q Q q w Q ^ W W w w W W > Q % % 6 6 Q Q j a ",
"D w C ^ w w $ 6 8 q W W Q C 6 6 * $ w C W ^ 7 4 < 2 1.{ ! Q q 6 6 $ w q W C ^ W q * Q W C w ) Q C C ~ ~ W Q Q ! 6 % % $ ! Q k j ",
"q 6 $ 6 C C C ^ C w 6 8 D - Q / ^ C - w w D 9 5 u r C.Q.q q D $ W Q ^ W ^ ] C D ^ / q q W Q ~ / Q Q C C % 6 C - C ~ W W q % X < ",
"q 6 6 6 ~ w C C C C 6 $ C C W Q Q C w w - - 5 7 < < v.v.= - $ q Q W W W ^ W C C / Q 0 q C W C ] o.Q C w $ 6 * C W Q / W * 6 2 X ",
"C w Q Q 6 6 % 6 C ; Q Q w q 6 6 q C Q Q w - 8 M t r P A q * C C w C * % % 6 - w q - Q W q * q C 6 % 6 6 - w Q W C w q q Q W r < ",
"C C Q W q $ % % C w ! Q - 6 % 6 e w ! Q ~ w 5 9 1 u Z P % 6 C w C C % % 6 $ q q q * W / * q w C % 6 6 8 w C Q Q C C * q W / r r ",
"t t g j r 2 y j i t r y <   X t < X 1 r X < y y o r u t r p o y z u X X < < < < j t u u u r y p X X u r . X t 1 i t X . i y i t ",
"t u i y X < i j u y u j < u 2 u < < r 1 < u j c t p u i u r y y u t < < < X < i y t u t u u j g 1 < < < < X u t y g X r j g u 1 ",
"C.Q.9.9.K.6.C.C.Q.C.%.{ ( 2.P P g a 1.2.k.C.Q.W.&.r.C.A.1.9.9._ { { C.W.9.v.9.v.%.2.C.C.c.C.C.C.{ ^ Z Z j i ^ ( v.v.K.6.e.v.{ ] ",
"Q.6.9.%.I.r.W.k.C.W.2.9.o.&.P F j k { %.k.V.v.!.9.r.A.C._ { { 1.&.( C.k.9.K.v.r.{ 6.C.W.Q.C.c.6.o.( Z F y j @.@.C.W.,.v.6.v.-.%.",
"W W q q * = ~ w V q C ~ 6 $ 6 % j j ( 1.C - q q ~ - 6 6 w w W C C q 6 % C C / C 0 8 C C C w q % W C 6 8 1 r ] _ - C % 6 e q w - ",
"C C 6 % $ = W W e = - / 6 % C q j g { { w C = = D C 6 $ - = ^ Q C q 6 6 C C ~ C q % C C w w q % C W q 8 i r 2.( - w q % q w C w ",
"w q C W Q C 6 $ $ 6 - C ] W 9 b i < C.c.Q Q C C / Q W C $ @ % 6 = q W C $ % C W q q ^ Q w w W W W C + s < < v.v.Q > C = Q ! C w ",
"C D C W W - 6 * 6 q - C / Q * m < u C.A.W W w w ) Q Q ~ % % 6 % = - C W 6 $ C ~ q e Q W C q W C W w O s u < R.V./ Q C - Q Q C w ",
"w w q % 6 $ S q W W W ^ D w M M r u 1.^ q q - w q q 6 * Q W ^ W Q Q D q w C % % 6 6 C C q 6 q % w w b 7 j g -.%.w C W Q C - * * ",
"w C e $ % q q q C - W W C w M b r r ] @.e * C w * q $ 0 Q Q W Q Q ! q w C w $ 8 6 $ C - * 6 6 $ C C b 7 a j ( @.q w C W w C * q ",
"D D ^ Q C C W W > C q q Q Q $ e < 2 1.%.C w ^ ! C C Q Q D w C w 6 q C - W W w w ^ C w C / ! C w / ! Z V r < r.K.C - q - Q W C - ",
"D w Q Q C w ^ Q Q W e q ^ Q 8 8 u < 2.2.C - Q Q C ~ ! ! D D C C $ 6 w C Q ! w - Q ^ q w Q Q w e Q Q * V < 2 r.2.- q e q Q Q : C ",
"! Q % q C ~ 6 6 6 $ - C C C b b j t P Z w * 6 6 w w 6 6 6 6 % % W W w C 6 6 6 q 8 q - C q q W W w q h s < r P P C ~ w C 6 q W Q ",
"/ ^ 6 q C C 6 @ % 6 w D q % M B a j P P C q $ 6 w C % $ $ 6 $ $ Q ^ w w 8 6 $ 6 $ 6 C C 8 * W W - C 3 h i r P P C C q - * q ! Q ",
"k k p u 2 r j y u i j j r < r u < < u j r < t j < 1 i j r < r r t 1 r r u X y j < < j y r r j g j i < 2 j j u u j y 2 r u t u y ",
"f f t t u u j j 1 t j d < < r X X < g u < < g j 2 u a t < r < < j a r t u r y u X < g j 2 i j j y j X < t j u i g j r < t r j j "
};
