/* XPM */
static char *ce69199da28e46faec483f75d849dfa870yR2upwKzJYobim[] = {
/* columns rows colors chars-per-pixel */
"64 64 147 2 ",
"   c #83673E",
".  c #88693F",
"X  c #8C6E44",
"o  c #8C6F48",
"O  c #906F47",
"+  c #8E7146",
"@  c #8F7148",
"#  c #917247",
"$  c #93744A",
"%  c #99774B",
"&  c #96784D",
"*  c #9B7A4E",
"=  c #977850",
"-  c #9D7C51",
";  c #A27E4F",
":  c #A17E51",
">  c #9F8052",
",  c #AB824F",
"<  c #A58253",
"1  c #AD8554",
"2  c #AD8856",
"3  c #AA8759",
"4  c #AE8A5A",
"5  c #B08755",
"6  c #B18956",
"7  c #B48D5A",
"8  c #B88F5D",
"9  c #B6905D",
"0  c #B9925E",
"q  c #B49161",
"w  c #BB9562",
"e  c #BE9966",
"r  c #BF9A68",
"t  c #C0945F",
"y  c #C39761",
"u  c #C09662",
"i  c #C39963",
"p  c #C39A62",
"a  c #C19966",
"s  c #C59B66",
"d  c #C59C65",
"f  c #C49C66",
"g  c #C59C66",
"h  c #C59D66",
"j  c #C69E66",
"k  c #C69E67",
"l  c #C39B65",
"z  c #C39E6B",
"x  c #C59E69",
"c  c #C59F69",
"v  c #C79F68",
"b  c #C59F6A",
"n  c #C69F6D",
"m  c #C39D69",
"M  c #C89F6A",
"N  c #C7A167",
"B  c #C7A069",
"V  c #C5A06B",
"C  c #C6A06A",
"Z  c #C7A06A",
"A  c #C7A16C",
"S  c #C7A36C",
"D  c #C7A16C",
"F  c #C9A169",
"G  c #C8A16B",
"H  c #C8A16C",
"J  c #C9A16C",
"K  c #C8A16D",
"L  c #CAA16C",
"P  c #C9A26D",
"I  c #C8A36D",
"U  c #C9A36D",
"Y  c #C8A16E",
"T  c #C8A26E",
"R  c #C9A36E",
"E  c #C8A26F",
"W  c #C9A26F",
"Q  c #CAA36E",
"!  c #CAA36F",
"~  c #CBA46D",
"^  c #C8A46E",
"/  c #CAA46F",
"(  c #CBA46F",
")  c #CBA56F",
"_  c #CCA66F",
"`  c #C9A26D",
"'  c #C7A371",
"]  c #C8A370",
"[  c #CAA470",
"{  c #CBA470",
"}  c #CAA570",
"|  c #CBA670",
" . c #CBA573",
".. c #CBA672",
"X. c #CBA773",
"o. c #CCA772",
"O. c #CCA673",
"+. c #CCA773",
"@. c #CBA674",
"#. c #CBA775",
"$. c #C9A676",
"%. c #CCA775",
"&. c #CCA777",
"*. c #CAA572",
"=. c #CBA873",
"-. c #CCA872",
";. c #CCA873",
":. c #CBAA77",
">. c #CCA875",
",. c #CCA876",
"<. c #CCAA77",
"1. c #CEAA76",
"2. c #CCA976",
"3. c #CCA778",
"4. c #CAA878",
"5. c #CBAA78",
"6. c #CCA978",
"7. c #CDA978",
"8. c #CEA979",
"9. c #CCAA78",
"0. c #CDAA78",
"q. c #CCAA79",
"w. c #CDAA79",
"e. c #CCAB79",
"r. c #CDAB79",
"t. c #CEAB79",
"y. c #CEAB7A",
"u. c #CEAB7B",
"i. c #CEAC78",
"p. c #CEAD79",
"a. c #CEAC7A",
"s. c #CFAC7A",
"d. c #CEAC7B",
"f. c #CCAC7C",
"g. c #CEAD7D",
"h. c #CFAE7D",
"j. c #CFAF7D",
"k. c #CEAE7E",
"l. c #CDAB7A",
"z. c #D0AC77",
"x. c #D0AC79",
"c. c #D0AE7D",
"v. c #D0AD7C",
"b. c #CFB07F",
"n. c #CFB07E",
"m. c #D1B17F",
"M. c #D1B081",
/* pixels */
"7 4 6 4 4 4 7 7 7 7 7 7 3 4 7 7 4 4 2 2 7 4 < < 9 7 2 7 2 2 3 4 4 3 ; < % # 7 4 : < 7 7 3 3 9 4 3 < 4 7 7 7 3 4 < 3 4 4 6 2 4 4 ",
"3 3 4 2 4 4 q 2 4 7 7 4 7 4 4 7 4 6 4 4 4 6 < < 6 9 3 4 2 1 < 3 2 2 < < @ X 7 2 3 3 7 4 3 < 4 7 3 3 4 7 2 4 3 2 < 3 2 6 1 7 3 7 ",
"< ; &.] 7.p.Y Y o.z. .7.p.>.$.g.Y n v.7.7.7.x Y Y  .F f p.$.t x s x w 9 X @ &.Y 7.Y 7.7.,.V i u U Y Y  . .o.U _ i f Y Y w a < % ",
"< <  .$.7.7.S Y o.Y 7.g.c.p.4.b.S V 7.g.7.g.x U V Y f s ,. .U i f V r 0 X # o.,.g.4.p.7. .-.f f  .Y  .U =.=.Y x f 0 F V r r : : ",
"3 3 7.4.6 6 0 w w w w w 6 0 r r z r w r 7 6 r r 1 6 0 w w w 0 w 7 9 3 < # X >.7.0 w w 7 6 5 w r w 0 7 6 w r w r 6 1 w w 6 3 : < ",
"4 3 4.p.9 6 w w w 7 r w 6 7 r a w w m w 6 6 z r 1 6 w r w w w r 7 9 < < & $ 7.7.7 7 9 7 7 6 w 0 w w 6 7 w w r z 6 6 z w 7 2 % % ",
"3 < Y x 0 6 w w 7 7 w 7 6 6 w 9 r w 7 7 r w w 0 6 2 7 7 2 7 1 7 w w 4 4 X X n z w m w w w 0 w 7 w r r r a w 6 6 w w 0 w 2 1 : ; ",
"< < x Y 7 7 w w 6 7 7 7 6 6 w w w 0 7 7 r r w w 1 6 6 7 6 6 6 1 w 9 < 4 X X x ] 0 9 7 8 0 0 w w r w w r w w 2 1 w r w r 6 3 : < ",
"3 3 x x 7 7 7 7 0 w 7 9 w w 2 1 r w 7 9 6 1 w 0 r 0 w r 7 7 w w 9 9 3 4 & # $. .w 7 w w r w 6 , w r 0 6 z 0 w 7 0 7 1 6 7 w X X ",
"4 4 f Y w 7 w 6 m w 7 7 7 0 7 6 w r w 0 2 1 w w w 0 r 0 7 6 w w 0 6 1 3 * % $.] 9 7 w r w w 7 7 w w 2 6 w w 8 0 7 w 6 , 0 0 o + ",
"4 4 x m 6 6 7 6 0 w 0 w 6 7 w w r r 7 2 2 6 6 6 w 9 r 0 1 7 9 9 w w 4 3 # # x w 7 9 r r 7 7 r r 6 5 r r 6 6 5 2 9 6 w 9 6 1 $ % ",
"4 4 a z w 6 7 7 0 w w 7 0 8 w 7 a w 6 6 1 1 6 1 w 7 w 9 7 7 6 2 7 0 3 2 X # x a 0 6 r m 7 7 w w 6 2 w 0 6 6 1 6 6 7 w 7 6 2 # * ",
"- * < * $ & X & - * % * % - + & # $ & % + $ # # * # * * - % & % X $ $ X % % @ % * < % % % < < * X $ # # $ & $ X % * % # % # # + ",
"- * * * $ & $ $ * * - * * * # X & + & & % @ $ # & % # % % & # @ X @ X % - = @ X % * % - % % * * # $ $ # # $ X # % % # # + & . = ",
" .] ] m.o.Y f f i u a i v.7.U S n z $ & f a  .V  . .x Y 7.,. .V ]  .F x ,. .f a  .&.V Y S V ,. .f x 0 9 % X Y x Y  .S U x x  .U ",
" .' m.7.U Y f s s a N f $.>.x ^ z S $ # F i ] Y p.7.Y U 7. .V z  .S f f U Y f i ,.S Y V S Y  . .x a w 7 X % s f V Y =.S V V  . .",
"w z w w r w r w 6 7 0 0 7 7 7 7 9 q + # $.&.w w 7 r 9 7 r w 9 7 w 6 w w 9 w 2 7 7 6 w w 7 6 w w 7 6 4 4 # + ,.&.w w 7 7 6 6 7 7 ",
"r w w 0 w w a 0 7 6 0 7 7 7 2 7 q 9 # & ,.,.w w w 7 7 2 w r 7 5 w 9 w e w 0 2 7 2 6 r w 2 6 0 w 5 2 < 3 # $ c.&.0 0 7 6 6 6 0 7 ",
"w w 2 2 w w 6 7 w r 0 7 0 0 7 1 < < $ %  .$.7 w 5 7 w 7 0 w w w 6 2 6 1 7 6 w w 7 0 0 8 7 w 6 6 2 6 7 4 # # z U 6 6 w w w w r 7 ",
"w 0 6 5 m w 6 6 r w 7 6 0 7 7 1 < < = &  .7.9 w 6 1 w w 0 0 w 9 1 6 2 1 7 1 w r 7 7 7 7 7 7 6 6 5 6 3 4 & X  .a 7 6 7 w 7 w m w ",
"w 7 ] m w r w w w w 0 7 1 7 w 8 7 4 @ X M.7.9 7 m w z r w m 6 2 0 w 7 0 7 6 7 0 a w m w 7 6 z w w w 3 < X X S x w 0 w w 7 7 0 0 ",
"7 7 r r S r 9 0 9 7 9 9 6 7 9 9 3 4 + + 4.$.7 7 z w r r r r 2 6 w r 7 7 1 6 0 0 r r w w 7 9 w 7 w 7 < : + X Y a 7 w w w 7 7 7 0 ",
"w w 0 w 7 1 0 w 1 7 7 2 9 0 7 9 4 4 X @ m z 6 w 7 0 1 7 w 7 6 1 7 7 7 a m a w 0 7 7 w 7 w w 7 7 7 7 3 4 : % x z 5 7 w w w 0 2 2 ",
"w w r 7 6 5 w 9 2 6 7 6 r w w w q 7 X X r z 6 6 w 0 1 1 7 7 6 6 7 1 a w z w 0 w 6 6 w 0 7 7 6 7 6 7 4 < * * w w 1 2 9 9 7 7 2 1 ",
"< * - # + & < - # # & # $ + % * * - % * - - & $ & % # # & $ * * & # - * - - $ $ $ - * * & + % % # + % * * % - * $ # # & % & & % ",
"* * & & % # $ - @ + * % # $ & % % * % & - * % & = % # $ & # * % + # % # - * $ # # & * * # * $ * # $ * * * % * % X & & $ & # # # ",
"< : F a Y  .Y U 7.g.7.p.x Y Y F S x F F  .7.$.,.U Y S x f F  .U i u 7 7 3 3 f Y 7.,.7.4.g.' 7.7. . . .o.U S s a n Y  .] >.,.x i ",
"< : u s Y x x x p.,.] c.x S U Y F V F U ,.] >.o.U V Y f x f  .o.V f 6 6 < : M f g.7.7.7.g.7.&.c.U Y M x x Y i f ]  .U o. .&.M f ",
"< * $. .7 7 7 7 w r r z 9 6 w z 6 7 w w 6 7 w r 9 9 6 1 2 6 w 0 w 9 7 3 * - p.7.z w w 7 w r 6 6 7 w w w w w 0 0 7 7 7 6 w w 8 0 ",
"< < g.7.6 6 7 7 0 m w w 7 6 r a 6 7 r w 6 9 w r 6 6 7 6 6 2 7 0 w 7 4 < = % 4. .w r w 7 0 8 6 6 6 7 7 m w w 7 7 7 5 6 6 9 9 w 7 ",
"- *  .Y 6 0 w r r r 7 1 m w w w 0 w 2 7 7 7 2 6 0 a 0 w 6 7 r w w w 3 7 % # Y V 7 7 w r r m 6 6 6 5 7 1 w z w w w w 7 0 z 7 7 6 ",
"- - Y V 7 w w w r w 6 2 w w r r w r 7 6 6 7 7 1 w 0 r 0 7 6 w w r 0 4 4 $ # x s 0 7 w r w w 7 7 7 1 6 6 a r 7 7 w r w 7 a 0 7 1 ",
"< ;  .&.r w 7 6 7 7 7 7 w r 9 7 , 1 w r 7 7 w w 8 9 7 6 w 7 9 w 7 6 < < $ + 7.' 9 5 9 0 7 6 z w 7 w w w 1 6 6 7 w w w w z z r w ",
"< * x S m z 1 6 6 w 7 7 z w 7 6 6 6 0 w 6 5 m w 7 7 2 1 0 7 w 7 7 6 3 3 # + $.,.7 6 9 7 7 5 a w 0 w w 0 6 6 6 5 w w w 7 w w w w ",
"% * z w 0 0 m w 1 2 7 7 9 w w 7 6 9 6 6 w w 7 7 w w 7 7 w 7 6 6 w w 7 7 $ $ w r 0 0 6 1 w 9 0 9 7 7 9 w 0 9 0 w 6 6 7 7 6 7 7 w ",
"* - 7 7 w 6 w w 5 5 6 6 9 9 7 0 6 6 6 6 9 r 7 6 w w 7 7 w 1 6 6 7 7 q q X X w a w 0 6 7 0 0 7 7 7 6 6 0 7 7 9 7 2 2 7 w 1 , w z ",
"* * * * # % - * # $ & # % - * $ * % $ # * > & + * # * < = % - < < - < % - * # % & + % # X & < - * % - % # $ # % # # & # * # X # ",
"- < * % # $ - % # + % % - - * * * * # # % = # X & $ * * O & - < - * * * % = * & # + & & + $ * * * * - * # # # * X X & * * * @ $ ",
"3. .V f $.Y i x  .V 7.v. .Y o.U i s f V s M 9 9 * * Y Y p.p. . .g.4.Y  . .S x F &.v.o.p.,.7.x f Y S -. .x V a i M U  . .r w * % ",
",.$.f F 7. .f Y  . .,. .U Y  .$.f f i f f s r 7 * - x ,.>.>.x Y g.p. .,. . .x o.,.U Y  .,.o.x u S Y ,.7.V V i f f x  .=.w r % $ ",
"7 7 6 6 w r 9 w 7 6 6 6 w 7 0 r w 6 7 9 6 6 < 3 & $ 7.p.r w 6 0 7 7 r w w w 7 6 0 0 6 6 w 0 7 0 z w z w 6 5 2 7 0 0 6 7 r q X @ ",
"7 7 7 9 w 9 w 0 6 6 6 2 7 7 w a 7 0 6 0 7 7 3 < # $ g.v.r w 7 7 6 7 w 9 w a 7 6 7 7 6 2 0 7 7 6 w m m r 7 6 7 6 0 w 2 7 9 9 # X ",
"7 7 w z r w 0 w w r 7 7 z m w 7 w w 5 6 1 2 4 4 % # S ' 6 7 0 w r a w w w 7 6 7 z w w w 0 0 r z w r 7 7 7 7 0 r 1 6 6 6 3 3 # X ",
"w 9 w z w w 7 w z z 7 9 w w 0 7 r w 6 7 5 7 4 4 # #  .S 6 6 w w w w r w w 9 7 6 w 0 w 9 w 9 z w w w w w 7 7 r a 6 1 2 1 3 < % # ",
"w r 7 w 7 7 0 r 6 6 w z w 7 5 7 7 1 0 w 0 r 4 3 $ # 4.b.w w z w 7 7 w 7 z z r z w w 7 7 2 6 r m 5 7 r w 1 6 0 7 w r w w 6 < X X ",
"w w w 0 w 6 w 0 7 7 w 7 w 9 1 6 6 1 w w 9 9 3 4 + @ 7.7.7 9 w r 9 6 6 7 z w r r w 7 6 7 1 2 r z 0 6 r w 1 7 2 9 w e m 9 3 3 # X ",
"7 7 6 6 r a w w 0 6 9 9 7 6 r r 7 0 7 7 7 7 7 q - * a w 9 7 w 0 2 6 7 7 7 7 1 6 w w 8 9 6 1 0 w w w 7 7 2 6 6 1 7 6 w w 7 4 @ X ",
"7 8 6 5 w 0 0 0 7 2 9 7 2 6 w w 7 9 7 2 w 7 2 7 % * 0 a 6 7 0 7 5 6 7 7 7 7 6 2 0 7 7 w 2 6 w w 0 w 7 0 6 7 1 1 6 7 0 w 4 7 # + ",
"- * # % - - % * * & X # * # X $ # X $ % X X + # X # * * + & . X & X # $ # # # # * # + + % % & * # # X X X + $ + # X # + # # * % ",
"= % $ # & = * * % % + * * - + $ # # % # + * $ = & - * * # + X X X # # # + X $ = $ # + # % % - % # #     $ # # $ X # $ & & % $ # ",
",.b.x x  .V S  .x f x x a x 0 7 % % s s $.&.,.,.Y o.f V  .,.U V $.,.7.p.Y  .,.p.7.,.Y S S  .Y U $.Y 6 6 # X a f $.3.7.$.f Y $. .",
"7.S V f  .Y Y f a f S S F x 9 7 * - a a  .>. .v. .o.V F S  .x F ,. .,.,.Y U p.p.$.:. .-.,. .V x ,. .6 7 X @ f V ,.p.$.>.f Y 7.,.",
"7 7 w a 0 0 7 2 0 7 6 7 7 2 3 : & * S ,.0 6 w w 7 5 9 7 w w 6 2 7 6 w 7 m w m 0 0 w 6 2 7 7 6 2 w 7 3 3 + # 7. .r r 0 w 7 6 0 6 ",
"5 5 w w 9 0 1 6 7 6 1 w 7 6 4 < * %  . .7 7 0 0 9 6 9 6 8 7 6 1 7 6 0 0 w r r 0 w 7 7 2 7 7 6 2 8 0 4 3 & # 7.] w z w 7 6 7 w 7 ",
"w 7 6 6 7 6 w 9 6 7 0 a n w 4 4 & X $.$.w a r r w 7 r m w 7 w r 9 9 6 6 w w 6 7 w w m r r w 0 7 w w < < X X Y V 5 , r 7 7 7 w w ",
"w w 5 6 1 , r w 7 7 0 e a w 4 4 X # 4.g.w w w w w 0 w m e w a w 0 7 1 1 r w 7 7 w r r w a w 0 7 w 0 < < + X  .S 7 6 e w 6 6 w 0 ",
"6 6 z w 7 6 r 0 r w 6 6 7 2 < 3 $ % ] z w w 6 6 w r 6 6 5 1 z 0 6 6 r w 9 w w w w 9 7 6 w w a 0 6 6 4 2 # X x x 6 7 7 9 w 0 7 7 ",
"6 7 V w 0 0 w 0 0 9 1 6 7 6 < < $ $ z S w 0 7 6 w r 2 6 6 6 w a 6 7 w w w 7 0 r w 7 6 , 9 w r 7 6 6 4 4 # # i a 6 7 7 7 w w 9 0 ",
"z m w 7 7 7 w 0 1 6 w w w w 2 q # & S f 0 6 r r w 9 w w w 0 w 7 m V w 7 6 6 w w 9 7 6 6 w w 7 5 w w 4 4 & # S S a 0 w w 6 6 6 5 ",
"m w w 8 6 1 r w 6 6 w w r w 7 7 # + x z 7 5 w w 9 0 w w w w 0 9 w r 0 9 6 6 w w 0 0 5 6 w w 6 6 w 0 < 3 $ % x a 0 w a w 6 2 1 7 ",
"0 0 1 6 w a r w 9 6 2 6 w w 3 < & # m w 6 1 0 7 6 2 0 0 6 2 6 2 0 8 w r w w 2 7 6 6 w a w w 6 7 6 6 7 4 X # a w 1 7 6 6 w w 7 7 ",
"w 9 5 7 w w w 6 7 7 6 9 7 5 3 3 % - a a 6 5 2 7 2 6 7 2 2 2 2 , 7 w w w a w 1 2 2 6 w r w 7 6 6 1 7 3 4 $ + w w 6 6 1 1 0 w 0 7 ",
"$ # $ X * * & # $ & : * * * # # X + - < @ X X + % % X # * * # $ X X - < = # $ & * % & X * * & # # # # & @ + * - % + # # % & * * ",
"O X X # : - # # X & : * * % # X X # : * + @ X # % % X X * * + # # # : < - % # + % * $ # * : $ % X # X # X # * < # # # + $ # < < "
};
